<?xml version="1.0" encoding="UTF-8"?>
<!DOCTYPE svg PUBLIC "-//W3C//DTD SVG 1.1//EN" "http://www.w3.org/Graphics/SVG/1.1/DTD/svg11.dtd">
<!-- Creator: CorelDRAW X8 -->
<svg xmlns="http://www.w3.org/2000/svg" xml:space="preserve" width="210mm" height="297mm" version="1.1" style="shape-rendering:geometricPrecision; text-rendering:geometricPrecision; image-rendering:optimizeQuality; fill-rule:evenodd; clip-rule:evenodd"
viewBox="0 0 21000 29700"
 xmlns:xlink="http://www.w3.org/1999/xlink">
 <defs>
  <style type="text/css">
   <![CDATA[
    .fil4 {fill:#FEFEFE}
    .fil3 {fill:#373435}
    .fil1 {fill:#429B4D}
    .fil0 {fill:#549151}
    .fil2 {fill:#F0F0F1;fill-rule:nonzero}
   ]]>
  </style>
 </defs>
 <g id="Camada_x0020_1">
  <metadata id="CorelCorpID_0Corel-Layer"/>
  <polygon class="fil0" points="3312,13513 18988,13513 18988,14261 2555,14261 "/>
  <polygon class="fil1" points="2508,13511 3184,13511 2428,14259 1752,14259 "/>
  <path class="fil3" d="M3035 9965c67,0 100,34 100,102l0 1865c0,125 10,228 30,311 19,82 52,148 98,196 45,48 107,83 184,103 78,20 176,30 295,30l1846 0c67,0 101,35 101,103l0 458c0,69 -34,103 -101,103l-1874 0c-231,0 -427,-22 -588,-66 -161,-43 -293,-114 -395,-212 -101,-98 -176,-226 -223,-383 -47,-158 -71,-349 -71,-573l0 -1935c0,-68 35,-102 105,-102l493 0zm5046 0c116,0 213,24 292,72 79,48 157,143 233,283l1509 2808c15,32 19,57 12,77 -8,21 -30,31 -66,31l-580 0c-51,0 -86,-20 -105,-61l-323 -603 -2144 0 -314 603c-22,41 -56,61 -105,61l-593 0c-39,0 -63,-10 -71,-31 -7,-20 -3,-45 12,-77l1496 -2808c76,-140 150,-235 223,-283 73,-48 158,-72 255,-72l269 0zm-884 2065l1568 0 -725 -1369c-12,-22 -29,-33 -50,-33l-27 0c-21,0 -38,11 -50,33l-716 1369zm5723 -2065c15,0 28,0 42,0 2,14 4,28 7,43 17,269 144,545 261,727 124,191 312,379 495,485l21 20c27,19 100,57 154,82 -7,294 -83,517 -227,671 -152,162 -403,243 -753,243l-1887 0 0 897c0,69 -34,103 -101,103l-492 0c-70,0 -105,-34 -105,-103l0 -3028c0,-94 45,-140 137,-140l2448 0zm-1887 1654l1746 0c155,0 265,-34 328,-103 64,-68 96,-173 96,-313l0 -178c0,-140 -32,-244 -96,-313 -63,-68 -173,-102 -328,-102l-1687 0c-40,0 -59,18 -59,56l0 953zm3849 -162l0 1676c0,69 -33,103 -100,103l-493 0c-70,0 -105,-34 -105,-103l0 -1707c220,58 466,68 698,31zm3991 -1492c67,0 100,34 100,102l0 458c0,72 -33,108 -100,108l-2285 0c-118,0 -216,10 -294,30 -77,21 -139,55 -185,103 -45,48 -78,113 -98,194 -19,81 -29,184 -29,308l0 673c0,125 10,229 29,311 20,83 53,148 98,196 46,49 108,83 185,103 78,20 176,31 294,31l1505 0c79,0 137,-21 173,-63 37,-43 55,-117 55,-222l0 -379c0,-40 -18,-61 -55,-61l-1336 0c-67,0 -100,-36 -100,-107l0 -351c0,-71 33,-107 100,-107l1902 0c91,0 137,47 137,140l0 1089c0,262 -49,446 -146,554 -98,107 -237,161 -420,161l-1842 0c-231,0 -427,-22 -588,-66 -162,-43 -293,-114 -395,-212 -102,-98 -176,-226 -223,-383 -47,-158 -71,-349 -71,-573l0 -667c179,-80 347,-192 479,-325 35,-34 138,-136 164,-189 67,-56 175,-265 210,-353 65,-164 106,-325 122,-488 93,-10 194,-15 302,-15l2312 0z"/>
  <path class="fil4" d="M14242 8509c-66,25 -119,39 -177,65 -7,19 19,90 32,111 11,18 63,52 87,58 2,1 4,2 5,3 19,16 40,48 42,74 4,44 -13,21 -57,41 -114,51 -12,20 -100,62 -20,9 -9,3 -19,12 24,6 40,9 44,34 5,6 14,14 22,23 -8,23 -22,28 -39,47 -10,16 11,2 -15,16 -14,7 -8,3 -22,4 -56,3 -70,-7 -98,-40 -21,1 -61,13 -75,29 -19,23 0,58 -18,87 -21,36 -32,3 -36,66 -4,50 -13,40 -34,67l-49 55c-21,21 -30,30 -27,67 5,59 42,129 -30,137 -22,-16 -41,-46 -45,-78 0,-20 -13,-30 -21,-43 -20,-1 -106,-7 -114,7 -1,2 -3,4 -4,5l-5 11c-5,9 -1,0 -8,12 -75,14 -80,-31 -135,21 -9,47 0,114 0,164 13,7 20,10 31,20 3,2 12,9 14,12 11,12 5,3 14,19l46 6 20 -44 84 6c1,50 -27,45 -22,87 18,14 81,23 109,24 11,5 9,-12 22,16 16,37 -40,70 24,111 38,24 102,12 125,9 44,0 44,-28 107,-27 43,1 95,0 137,4 9,5 95,113 128,126 121,47 86,-17 153,100 12,21 36,69 52,80l281 90c14,162 -4,138 -62,232 -61,96 9,131 -96,198 -43,27 -81,54 -115,79 -1,103 -4,74 -56,135 -33,38 -256,268 -270,299 288,138 688,156 1010,50 207,-69 412,-188 562,-339 30,-30 121,-119 143,-164 -7,-25 -60,-109 -76,-139 -54,-98 -9,-62 -8,-167 0,-43 7,-180 -6,-211 -14,-34 -31,-21 -35,-70 -2,-35 5,-72 -7,-98 -20,-11 -52,-6 -76,-8 -17,-8 -52,-138 -150,-64 -21,15 -55,42 -79,46 -18,3 -46,2 -65,2 -103,1 -49,-36 -137,-160 -51,-72 -74,-29 -73,-156 0,-100 -13,-146 25,-205 58,-90 33,-60 113,-114 1,-25 -13,-89 61,-110 19,-5 54,-7 76,-10 67,-7 91,-81 157,-86 52,-3 108,2 160,1 18,12 8,-3 12,20l-6 53c6,13 168,64 192,64 11,-29 22,-54 24,-91l22 -28 -1 -11c-39,-35 -229,-151 -268,-159 -40,-7 -100,-10 -132,5l-4 50c-69,5 -60,2 -89,48 -16,26 -32,50 -48,78 -8,14 14,9 -25,16 -63,11 -84,-46 -130,-70l9 -140c54,-14 133,16 181,-16l-2 -59c-9,-4 -68,-43 -69,-72 48,-20 43,-8 89,-5 45,3 41,-10 78,-20 21,-17 63,-51 72,-72 -19,-22 -54,-47 -80,-63 -16,6 -14,36 -17,56l-9 50c-11,45 -109,23 -149,21 -10,-61 29,-66 5,-135 -11,-32 -35,-84 -39,-120 -53,-40 -243,-100 -325,-117 -145,-32 -244,-37 -403,-37 -19,27 -46,53 -68,76 -54,56 -27,19 -32,91 -89,5 -83,14 -125,-37 -22,-26 -56,-73 -88,-73z"/>
  <path class="fil0" d="M15787 10755c58,-49 151,-232 182,-308 110,-277 143,-544 84,-839 -27,-133 -69,-246 -126,-360 0,-2 -1,-7 -2,-5 -1,1 -2,-5 -3,-6 -5,-8 -6,-8 -11,-13l-22 28c-2,37 -13,62 -24,91 -24,0 -186,-51 -192,-64l6 -53c-4,-23 6,-8 -12,-20 -52,1 -108,-4 -160,-1 -66,5 -90,79 -157,86 -22,3 -57,5 -76,10 -74,21 -60,85 -61,110 -80,54 -55,24 -113,114 -38,59 -25,105 -25,205 -1,127 22,84 73,156 88,124 34,161 137,160 19,0 47,1 65,-2 24,-4 58,-31 79,-46 98,-74 133,56 150,64 24,2 56,-3 76,8 12,26 5,63 7,98 4,49 21,36 35,70 13,31 6,168 6,211 -1,105 -46,69 8,167 16,30 69,114 76,139zm-2573 -708c-7,-103 -18,-200 2,-303 34,0 56,7 97,6 33,-1 71,-7 105,-5 30,1 51,26 70,38 26,17 45,32 63,47l1 65c59,27 92,60 140,63 47,3 24,0 58,15l1 123c-48,19 -23,15 -54,51 -32,36 -21,148 -5,177 12,23 23,44 36,69 56,106 -5,100 120,193 18,14 47,33 60,45l-37 470 19 17c34,24 153,84 182,90 14,-31 237,-261 270,-299 52,-61 55,-32 56,-135 34,-25 72,-52 115,-79 105,-67 35,-102 96,-198 58,-94 76,-70 62,-232l-281 -90c-16,-11 -40,-59 -52,-80 -67,-117 -32,-53 -153,-100 -33,-13 -119,-121 -128,-126 -42,-4 -94,-3 -137,-4 -63,-1 -63,27 -107,27 -23,3 -87,15 -125,-9 -64,-41 -8,-74 -24,-111 -13,-28 -11,-11 -22,-16 -28,-1 -91,-10 -109,-24 -5,-42 23,-37 22,-87l-84 -6 -20 44 -46 -6c-9,-16 -3,-7 -14,-19 -2,-3 -11,-10 -14,-12 -11,-10 -18,-13 -31,-20 0,-50 -9,-117 0,-164 55,-52 60,-7 135,-21 7,-12 3,-3 8,-12l5 -11c1,-1 3,-3 4,-5 8,-14 94,-8 114,-7 8,13 21,23 21,43 4,32 23,62 45,78 72,-8 35,-78 30,-137 -3,-37 6,-46 27,-67l49 -55c21,-27 30,-17 34,-67 4,-63 15,-30 36,-66 18,-29 -1,-64 18,-87 14,-16 54,-28 75,-29 28,33 42,43 98,40 14,-1 8,3 22,-4 26,-14 5,0 15,-16 17,-19 31,-24 39,-47 -8,-9 -17,-17 -22,-23 -4,-25 -20,-28 -44,-34 10,-9 -1,-3 19,-12 88,-42 -14,-11 100,-62 44,-20 61,3 57,-41 -2,-26 -23,-58 -42,-74 -1,-1 -3,-2 -5,-3 -24,-6 -76,-40 -87,-58 -13,-21 -39,-92 -32,-111 -102,31 -284,156 -363,227 -110,97 -193,188 -273,314 -141,221 -274,600 -215,932zm1028 -1538c32,0 66,47 88,73 42,51 36,42 125,37 5,-72 -22,-35 32,-91 22,-23 49,-49 68,-76 -109,4 -211,31 -313,57zm1258 360c-37,10 -33,23 -78,20 -46,-3 -41,-15 -89,5 1,29 60,68 69,72l2 59c-48,32 -127,2 -181,16l-9 140c46,24 67,81 130,70 39,-7 17,-2 25,-16 16,-28 32,-52 48,-78 29,-46 20,-43 89,-48l4 -50c32,-15 92,-12 132,-5 39,8 229,124 268,159 -49,-74 -71,-137 -148,-228 -35,-41 -57,-66 -90,-99 -30,-31 -64,-69 -100,-89 -9,21 -51,55 -72,72zm-8 -135c-29,-33 -170,-119 -209,-128 4,36 28,88 39,120 24,69 -15,74 -5,135 40,2 138,24 149,-21l9 -51c3,-19 1,-49 17,-55z"/>
  <path class="fil4" d="M13214 10047c15,234 125,474 227,632 108,167 272,330 430,422l37 -470c-13,-12 -42,-31 -60,-45 -125,-93 -64,-87 -120,-193 -13,-25 -24,-46 -36,-69 -16,-29 -27,-141 5,-177 31,-36 6,-32 54,-51l-1 -123c-34,-15 -11,-12 -58,-15 -48,-3 -81,-36 -140,-63l-1 -65c-18,-15 -37,-30 -63,-47 -19,-12 -40,-37 -70,-38 -34,-2 -72,4 -105,5 -41,1 -63,-6 -97,-6 -20,103 -9,200 -2,303z"/>
 </g>
</svg>
