<?xml version="1.0" encoding="utf-8"?>
<!-- Generator: Adobe Illustrator 24.1.3, SVG Export Plug-In . SVG Version: 6.00 Build 0)  -->
<svg version="1.1" id="Camada_1" xmlns="http://www.w3.org/2000/svg" xmlns:xlink="http://www.w3.org/1999/xlink" x="0px" y="0px"
	 viewBox="0 0 746.2 378.7" style="enable-background:new 0 0 746.2 378.7;" xml:space="preserve">
<style type="text/css">
	.st0{display:none;}
	.st1{display:inline;opacity:0.4;}
	.st2{display:inline;}
	.st3{fill:#231F20;}
	.st4{fill:#FFFFFF;}
</style>
<g id="Camada_1_2_" class="st0">
	<g id="Camada_1_1_" class="st1">
	</g>
	<g id="Camada_2_1_" class="st2">
		<g>
			<g>
				<path class="st3" d="M849-4.2h-89.3v57.6h99.7v45H705v-242.7h149.4v45h-94.7v50.4H849V-4.2L849-4.2z"/>
				<path class="st3" d="M953.4,36.1l-17.3,62.3h-56.5l73.8-242.6h72L1101,98.4h-59.4l-18.7-62.3L953.4,36.1L953.4,36.1z
					 M1014.9-4.9l-15.1-51.5c-4.3-14.4-8.6-32.4-12.2-46.8h-0.7c-3.6,14.4-7.2,32.8-11.2,46.8L961.3-4.9
					C961.3-4.9,1014.9-4.9,1014.9-4.9z"/>
			</g>
			<g>
				<path class="st3" d="M695.9,270.5h-23.6v18.4h26.3v9.4h-37.7v-62.5h36.4v9.4h-24.9v16.1H696L695.9,270.5L695.9,270.5z"/>
				<path class="st3" d="M708.4,285.8c3.7,2.1,9.3,4,15.1,4c7.3,0,11.4-3.4,11.4-8.5c0-4.7-3.2-7.5-11.1-10.4
					c-10.3-3.7-16.9-9.2-16.9-18.2c0-10.2,8.5-18,22.1-18c6.8,0,11.8,1.5,15,3.2l-2.8,9.2c-2.2-1.2-6.6-3-12.4-3
					c-7.2,0-10.4,3.9-10.4,7.5c0,4.8,3.6,7,12,10.3c10.9,4.1,16.1,9.6,16.1,18.5c0,10-7.6,18.7-23.7,18.7c-6.6,0-13.4-1.9-16.9-3.9
					L708.4,285.8z"/>
				<path class="st3" d="M801.6,296.4c-2.7,1.4-8.6,2.8-16.1,2.8c-19.8,0-31.9-12.4-31.9-31.4c0-20.6,14.3-33,33.4-33
					c7.5,0,12.9,1.6,15.2,2.8l-2.5,9.1c-3-1.3-7-2.4-12.2-2.4c-12.7,0-21.9,8-21.9,23c0,13.7,8.1,22.5,21.8,22.5
					c4.6,0,9.5-0.9,12.4-2.3L801.6,296.4z"/>
				<path class="st3" d="M864.4,266.3c0,21-12.7,32.9-30,32.9c-17.6,0-28.8-13.4-28.8-31.8c0-19.2,12.1-32.7,29.7-32.7
					C853.6,234.7,864.4,248.5,864.4,266.3z M817.7,267.3c0,12.7,6.4,22.8,17.3,22.8c11,0,17.3-10.2,17.3-23.3
					c0-11.8-5.8-22.9-17.3-22.9C823.8,243.9,817.7,254.4,817.7,267.3z"/>
				<path class="st3" d="M874.2,235.7h11.4v53h25.7v9.6h-37.1L874.2,235.7L874.2,235.7z"/>
				<path class="st3" d="M932.8,280.5l-5.4,17.7h-11.8l20-62.5h14.6l20.3,62.5h-12.2l-5.7-17.7H932.8L932.8,280.5z M950.7,271.9
					l-4.9-15.4c-1.2-3.8-2.2-8.1-3.2-11.7h-0.2c-0.9,3.6-1.9,8-3,11.7l-4.8,15.4H950.7z"/>
				<path class="st3" d="M998.5,236.6c5-0.8,11.4-1.3,18.2-1.3c11.7,0,19.8,2.4,25.5,7.2c6,4.9,9.7,12.3,9.7,23
					c0,11.1-3.8,19.5-9.7,24.9c-6.2,5.7-16.1,8.5-28.3,8.5c-6.7,0-11.7-0.4-15.4-0.8L998.5,236.6L998.5,236.6z M1009.9,289.5
					c1.6,0.3,4,0.3,6.3,0.3c14.8,0.1,23.6-8.1,23.6-23.9c0.1-13.8-7.9-21.7-22.2-21.7c-3.6,0-6.2,0.3-7.8,0.6L1009.9,289.5
					L1009.9,289.5z"/>
				<path class="st3" d="M1096.8,270.5h-23.6v18.4h26.3v9.4h-37.7v-62.5h36.4v9.4h-24.9v16.1h23.6L1096.8,270.5L1096.8,270.5z"/>
				<path class="st3" d="M597.1,391.8l-5.4,17.7h-11.8l20-62.5h14.6l20.3,62.5h-12.2l-5.7-17.7H597.1z M615,383.2l-4.9-15.4
					c-1.2-3.8-2.2-8.1-3.2-11.7h-0.2c-0.9,3.6-1.9,8-3,11.7l-4.8,15.4H615z"/>
				<path class="st3" d="M691.7,406.7c-4,1.5-11.8,3.5-20.1,3.5c-10.6,0-18.5-2.7-24.5-8.3c-5.6-5.3-8.8-13.5-8.7-23
					c0-19.8,14.1-32.5,34.8-32.5c7.7,0,13.7,1.6,16.6,3l-2.5,9.2c-3.4-1.5-7.6-2.7-14.2-2.7c-13.4,0-22.7,7.9-22.7,22.4
					c0,14.2,8.7,22.6,21.7,22.6c4.1,0,7.1-0.6,8.6-1.3V384h-11v-9h22.1L691.7,406.7L691.7,406.7z"/>
				<path class="st3" d="M703.4,347.9c4.3-0.7,10.7-1.3,17.3-1.3c9,0,15.1,1.5,19.3,5c3.4,2.9,5.4,7.2,5.4,12.5
					c0,8.1-5.5,13.5-11.3,15.7v0.3c4.5,1.7,7.1,6,8.7,12.1c1.9,7.8,3.6,15,4.9,17.4h-11.8c-0.9-1.9-2.4-7-4.2-14.7
					c-1.8-8.2-4.7-10.8-11.2-10.9h-5.8v25.5h-11.3V347.9L703.4,347.9z M714.7,375.5h6.8c7.7,0,12.5-4.1,12.5-10.3
					c0-6.9-4.8-10-12.2-10c-3.6,0-5.9,0.3-7,0.6L714.7,375.5L714.7,375.5z"/>
				<path class="st3" d="M811.6,377.6c0,21-12.7,32.9-30,32.9c-17.6,0-28.8-13.4-28.8-31.8c0-19.2,12.1-32.7,29.7-32.7
					C800.9,346,811.6,359.8,811.6,377.6z M765,378.6c0,12.7,6.4,22.8,17.3,22.8c11,0,17.3-10.2,17.3-23.3c0-11.8-5.8-22.9-17.3-22.9
					C771,355.2,765,365.7,765,378.6z"/>
				<path class="st3" d="M821.4,409.5V347h13l16.1,26.8c4.2,7,7.8,14.2,10.7,21h0.2c-0.7-8.3-1-16.4-1-26V347H871v62.5h-11.8
					L842.9,382c-4-6.9-8.2-14.6-11.2-21.6l-0.3,0.1c0.5,8.1,0.6,16.3,0.6,26.6v22.4H821.4L821.4,409.5z"/>
				<path class="st3" d="M939.6,377.6c0,21-12.7,32.9-30,32.9c-17.6,0-28.8-13.4-28.8-31.8c0-19.2,12.1-32.7,29.7-32.7
					C928.8,346,939.6,359.8,939.6,377.6z M892.9,378.6c0,12.7,6.4,22.8,17.3,22.8c11,0,17.3-10.2,17.3-23.3
					c0-11.8-5.8-22.9-17.3-22.9C899,355.2,892.9,365.7,892.9,378.6z"/>
				<path class="st3" d="M1002.2,384c-0.4-8.1-0.8-17.8-0.7-26.2h-0.3c-2,7.6-4.6,16-7.4,23.9l-9.1,27.1h-8.8l-8.3-26.7
					c-2.4-8-4.6-16.5-6.3-24.3h-0.2c-0.3,8.2-0.6,18.1-1.1,26.6l-1.4,25.1h-10.7l4.2-62.5h15l8.2,25.1c2.2,7.3,4.2,14.7,5.8,21.7
					h0.3c1.7-6.8,3.8-14.5,6.2-21.8l8.6-25h14.8l3.6,62.5h-11.1L1002.2,384z"/>
				<path class="st3" d="M1037.5,347v62.5h-11.4V347H1037.5z"/>
				<path class="st3" d="M1063.1,391.8l-5.4,17.7h-11.8l20-62.5h14.6l20.3,62.5h-12.2l-5.7-17.7H1063.1z M1081,383.2l-4.9-15.4
					c-1.2-3.8-2.2-8.1-3.2-11.7h-0.2c-0.9,3.6-1.9,8-3,11.7l-4.8,15.4H1081z"/>
			</g>
		</g>
	</g>
</g>
<g>
	<g>
		<path class="st4" d="M215.8,1.4H247v111.3h54.6v26.1h-85.8V1.4z"/>
		<path class="st4" d="M353.2,103.6l-9.8,35.3h-32.2l42-137.4H394l42.6,137.4h-33.4l-10.6-35.3H353.2z M388,80.3l-8.6-29.2
			c-2.4-8.2-4.9-18.3-6.9-26.5h-0.4c-2,8.2-4.1,18.6-6.3,26.5l-8.2,29.2H388z"/>
		<path class="st4" d="M454.9,3.3c9.6-1.6,23-2.9,42-2.9c19.2,0,32.8,3.7,42,11c8.8,6.9,14.7,18.3,14.7,31.8s-4.5,24.9-12.6,32.6
			c-10.6,10-26.3,14.5-44.6,14.5c-4.1,0-7.7-0.2-10.6-0.6v49.1h-30.8V3.3z M485.7,65.6c2.7,0.6,5.9,0.8,10.4,0.8
			c16.5,0,26.7-8.4,26.7-22.4c0-12.6-8.8-20.2-24.3-20.2c-6.3,0-10.6,0.6-12.8,1.2V65.6z"/>
		<path class="st4" d="M604.6,1.4v137.4h-31.2V1.4H604.6z"/>
		<path class="st4" d="M746.2,132.5c-9.6,3.3-27.7,7.7-45.9,7.7c-25.1,0-43.2-6.3-55.9-18.6c-12.6-11.8-19.6-29.8-19.4-49.9
			C625.4,26.1,658.6,0,703.6,0c17.7,0,31.4,3.5,38.1,6.7l-6.5,24.9c-7.5-3.3-16.9-5.9-32-5.9c-25.9,0-45.5,14.7-45.5,44.4
			c0,28.3,17.7,45.1,43.2,45.1c7.1,0,12.8-0.8,15.3-2V84.4h-21.2V60.1h51.2V132.5z"/>
	</g>
	<g>
		<path class="st4" d="M343.9,216.6h6.5v30h14.5v5.4h-21V216.6z"/>
		<path class="st4" d="M377.1,242l-3,10h-6.7l11.3-35.4h8.2l11.5,35.4h-6.9l-3.2-10H377.1z M387.2,237.1l-2.8-8.7
			c-0.7-2.2-1.3-4.6-1.8-6.6h-0.1c-0.5,2-1.1,4.5-1.7,6.6l-2.7,8.7H387.2z"/>
		<path class="st4" d="M403.4,217.1c2-0.4,5.8-0.7,9.4-0.7c4.8,0,7.7,0.6,10.1,2.3c2.2,1.3,3.7,3.6,3.7,6.6c0,3.3-2,6.3-5.9,7.7v0.1
			c3.7,0.9,7.1,3.9,7.1,8.8c0,3.2-1.4,5.6-3.4,7.3c-2.5,2.2-6.7,3.3-13.1,3.3c-3.6,0-6.3-0.3-7.9-0.5V217.1z M409.8,231.1h3.3
			c4.5,0,7-2.1,7-5.1c0-3.3-2.5-4.8-6.6-4.8c-1.9,0-3,0.1-3.7,0.3V231.1z M409.8,247.4c0.8,0.1,1.9,0.2,3.4,0.2
			c4.1,0,7.8-1.6,7.8-5.9c0-4.1-3.6-5.8-8-5.8h-3.2V247.4z"/>
		<path class="st4" d="M465.1,234c0,11.9-7.2,18.6-17,18.6c-10,0-16.3-7.6-16.3-18c0-10.9,6.8-18.5,16.8-18.5
			C459,216.1,465.1,223.9,465.1,234z M438.6,234.5c0,7.2,3.6,12.9,9.8,12.9c6.3,0,9.8-5.8,9.8-13.2c0-6.7-3.3-13-9.8-13
			C442,221.3,438.6,227.2,438.6,234.5z"/>
		<path class="st4" d="M470.6,217.1c2.4-0.4,6-0.7,9.8-0.7c5.1,0,8.6,0.8,10.9,2.8c1.9,1.6,3,4.1,3,7.1c0,4.6-3.1,7.7-6.4,8.9v0.2
			c2.5,0.9,4,3.4,4.9,6.8c1.1,4.4,2,8.5,2.8,9.9H489c-0.5-1.1-1.4-3.9-2.4-8.4c-1-4.6-2.7-6.1-6.4-6.2H477V252h-6.4V217.1z
			 M477,232.8h3.8c4.4,0,7.1-2.3,7.1-5.8c0-3.9-2.7-5.7-6.9-5.7c-2,0-3.4,0.2-4,0.3V232.8z"/>
		<path class="st4" d="M508,242l-3,10h-6.7l11.3-35.4h8.2l11.5,35.4h-6.9l-3.2-10H508z M518.1,237.1l-2.8-8.7
			c-0.7-2.2-1.3-4.6-1.8-6.6h-0.1c-0.5,2-1,4.5-1.7,6.6l-2.7,8.7H518.1z"/>
		<path class="st4" d="M536.8,222h-10.1v-5.4h26.7v5.4h-10.2v30h-6.5V222z"/>
		<path class="st4" d="M587.5,234c0,11.9-7.2,18.6-17,18.6c-10,0-16.3-7.6-16.3-18c0-10.9,6.8-18.5,16.8-18.5
			C581.4,216.1,587.5,223.9,587.5,234z M561.1,234.5c0,7.2,3.6,12.9,9.8,12.9c6.3,0,9.8-5.8,9.8-13.2c0-6.7-3.3-13-9.8-13
			C564.5,221.3,561.1,227.2,561.1,234.5z M579.4,208.3l-6.6,6.3h-5.2l4.6-6.3H579.4z"/>
		<path class="st4" d="M593.1,217.1c2.4-0.4,6-0.7,9.8-0.7c5.1,0,8.6,0.8,10.9,2.8c1.9,1.6,3,4.1,3,7.1c0,4.6-3.1,7.7-6.4,8.9v0.2
			c2.5,0.9,4,3.4,4.9,6.8c1.1,4.4,2,8.5,2.8,9.9h-6.7c-0.5-1.1-1.4-3.9-2.4-8.4c-1-4.6-2.7-6.1-6.4-6.2h-3.3V252h-6.4V217.1z
			 M599.5,232.8h3.8c4.4,0,7.1-2.3,7.1-5.8c0-3.9-2.7-5.7-6.9-5.7c-2,0-3.4,0.2-4,0.3V232.8z"/>
		<path class="st4" d="M629.4,216.6V252H623v-35.4H629.4z"/>
		<path class="st4" d="M668.2,234c0,11.9-7.2,18.6-17,18.6c-10,0-16.3-7.6-16.3-18c0-10.9,6.8-18.5,16.8-18.5
			C662.1,216.1,668.2,223.9,668.2,234z M641.8,234.5c0,7.2,3.6,12.9,9.8,12.9c6.3,0,9.8-5.8,9.8-13.2c0-6.7-3.3-13-9.8-13
			C645.2,221.3,641.8,227.2,641.8,234.5z"/>
		<path class="st4" d="M684.7,217.1c2.8-0.5,6.5-0.7,10.3-0.7c6.6,0,11.2,1.4,14.4,4.1c3.4,2.8,5.5,7,5.5,13c0,6.3-2.2,11-5.5,14.1
			c-3.5,3.2-9.1,4.8-16,4.8c-3.8,0-6.6-0.2-8.7-0.5V217.1z M691.1,247.1c0.9,0.2,2.3,0.2,3.6,0.2c8.4,0.1,13.4-4.6,13.4-13.6
			c0.1-7.8-4.5-12.3-12.6-12.3c-2,0-3.5,0.2-4.4,0.4V247.1z"/>
		<path class="st4" d="M740.3,236.3H727v10.4h14.9v5.3h-21.4v-35.4h20.6v5.3H727v9.1h13.3V236.3z"/>
		<path class="st4" d="M0,280.1c2.3-0.4,5.5-0.7,9.9-0.7c4.7,0,8.2,1,10.5,2.9c2.1,1.7,3.5,4.5,3.5,7.8c0,3.4-1.1,6.1-3,8
			c-2.6,2.6-6.6,3.8-11.2,3.8c-1.2,0-2.3-0.1-3.2-0.2v13.3H0V280.1z M6.4,296.6c0.8,0.2,1.8,0.3,3.2,0.3c4.8,0,7.8-2.4,7.8-6.5
			c0-3.9-2.7-6-7.2-6c-1.8,0-3,0.2-3.7,0.3V296.6z"/>
		<path class="st4" d="M29.4,280.1c2.4-0.4,6-0.7,9.8-0.7c5.1,0,8.6,0.8,10.9,2.8c1.9,1.6,3,4.1,3,7.1c0,4.6-3.1,7.7-6.4,8.9v0.2
			c2.5,0.9,4,3.4,4.9,6.8c1.1,4.4,2,8.5,2.8,9.9h-6.7c-0.5-1.1-1.4-3.9-2.4-8.4c-1-4.6-2.7-6.1-6.4-6.2h-3.3v14.5h-6.4V280.1z
			 M35.8,295.8h3.8c4.4,0,7.1-2.3,7.1-5.8c0-3.9-2.7-5.7-6.9-5.7c-2,0-3.4,0.2-4,0.3V295.8z"/>
		<path class="st4" d="M90.6,297c0,11.9-7.2,18.6-17,18.6c-10,0-16.3-7.6-16.3-18c0-10.9,6.8-18.5,16.8-18.5
			C84.6,279.1,90.6,286.9,90.6,297z M64.2,297.5c0,7.2,3.6,12.9,9.8,12.9c6.2,0,9.8-5.8,9.8-13.2c0-6.7-3.3-13-9.8-13
			C67.6,284.3,64.2,290.2,64.2,297.5z"/>
		<path class="st4" d="M121.6,314c-1.5,0.8-4.9,1.6-9.1,1.6c-11.2,0-18.1-7-18.1-17.8c0-11.7,8.1-18.7,18.9-18.7
			c4.3,0,7.3,0.9,8.6,1.6l-1.4,5.1c-1.7-0.7-4-1.4-6.9-1.4c-7.2,0-12.4,4.5-12.4,13c0,7.8,4.6,12.8,12.3,12.8c2.6,0,5.4-0.5,7-1.3
			L121.6,314z"/>
		<path class="st4" d="M146.9,299.4h-13.3v10.4h14.9v5.3h-21.4v-35.4h20.6v5.3h-14.1v9.1h13.3V299.4z"/>
		<path class="st4" d="M154,308c2.1,1.2,5.3,2.3,8.6,2.3c4.1,0,6.5-1.9,6.5-4.8c0-2.7-1.8-4.3-6.3-5.9c-5.8-2.1-9.6-5.2-9.6-10.3
			c0-5.8,4.8-10.2,12.5-10.2c3.8,0,6.7,0.8,8.5,1.8l-1.6,5.2c-1.3-0.7-3.7-1.7-7-1.7c-4.1,0-5.9,2.2-5.9,4.3c0,2.7,2,4,6.8,5.8
			c6.1,2.3,9.1,5.4,9.1,10.5c0,5.7-4.3,10.6-13.4,10.6c-3.7,0-7.6-1.1-9.6-2.2L154,308z"/>
		<path class="st4" d="M181.2,308c2.1,1.2,5.3,2.3,8.6,2.3c4.1,0,6.5-1.9,6.5-4.8c0-2.7-1.8-4.3-6.3-5.9c-5.8-2.1-9.6-5.2-9.6-10.3
			c0-5.8,4.8-10.2,12.5-10.2c3.8,0,6.7,0.8,8.5,1.8l-1.6,5.2c-1.3-0.7-3.7-1.7-7-1.7c-4.1,0-5.9,2.2-5.9,4.3c0,2.7,2,4,6.8,5.8
			c6.1,2.3,9.1,5.4,9.1,10.5c0,5.7-4.3,10.6-13.4,10.6c-3.7,0-7.6-1.1-9.6-2.2L181.2,308z"/>
		<path class="st4" d="M215.7,305l-3,10H206l11.3-35.4h8.2l11.5,35.4h-6.9l-3.2-10H215.7z M225.9,300.1l-2.8-8.7
			c-0.7-2.2-1.3-4.6-1.8-6.6h-0.1c-0.5,2-1.1,4.5-1.7,6.6l-2.7,8.7H225.9z"/>
		<path class="st4" d="M271.8,300.6c-0.2-4.6-0.5-10.1-0.4-14.9h-0.2c-1.2,4.3-2.6,9.1-4.2,13.6l-5.1,15.3h-5l-4.7-15.1
			c-1.4-4.5-2.6-9.3-3.6-13.8h-0.1c-0.2,4.6-0.4,10.2-0.6,15.1l-0.8,14.2h-6l2.4-35.4h8.5l4.6,14.2c1.3,4.1,2.4,8.4,3.3,12.3h0.2
			c0.9-3.8,2.2-8.2,3.5-12.3l4.9-14.2h8.4l2,35.4h-6.3L271.8,300.6z"/>
		<path class="st4" d="M305.1,299.4h-13.3v10.4h14.9v5.3h-21.4v-35.4h20.6v5.3h-14.1v9.1h13.3V299.4z"/>
		<path class="st4" d="M312.4,315.1v-35.4h7.4l9.1,15.2c2.4,3.9,4.4,8,6,11.9h0.1c-0.4-4.7-0.6-9.3-0.6-14.7v-12.3h6v35.4h-6.7
			l-9.2-15.5c-2.3-3.9-4.6-8.2-6.4-12.2l-0.2,0.1c0.3,4.6,0.3,9.2,0.3,15.1v12.7H312.4z"/>
		<path class="st4" d="M354.7,285.1h-10.1v-5.4h26.7v5.4h-10.2v30h-6.5V285.1z"/>
		<path class="st4" d="M405.4,297c0,11.9-7.2,18.6-17,18.6c-10,0-16.3-7.6-16.3-18c0-10.9,6.8-18.5,16.8-18.5
			C399.3,279.1,405.4,286.9,405.4,297z M379,297.5c0,7.2,3.6,12.9,9.8,12.9c6.2,0,9.8-5.8,9.8-13.2c0-6.7-3.3-13-9.8-13
			C382.4,284.3,379,290.2,379,297.5z"/>
		<path class="st4" d="M421.8,280.1c2.8-0.5,6.5-0.7,10.3-0.7c6.6,0,11.2,1.4,14.4,4.1c3.4,2.8,5.5,7,5.5,13c0,6.3-2.2,11-5.5,14.1
			c-3.5,3.2-9.1,4.8-16,4.8c-3.8,0-6.6-0.2-8.7-0.5V280.1z M428.3,310.1c0.9,0.2,2.3,0.2,3.6,0.2c8.4,0.1,13.4-4.6,13.4-13.6
			c0.1-7.8-4.5-12.3-12.6-12.3c-2,0-3.5,0.2-4.4,0.4V310.1z"/>
		<path class="st4" d="M477.5,299.4h-13.3v10.4h14.9v5.3h-21.4v-35.4h20.6v5.3h-14.1v9.1h13.3V299.4z"/>
		<path class="st4" d="M502.1,279.7v35.4h-6.5v-35.4H502.1z"/>
		<path class="st4" d="M539.4,300.6c-0.2-4.6-0.5-10.1-0.4-14.9h-0.2c-1.2,4.3-2.6,9.1-4.2,13.6l-5.1,15.3h-5l-4.7-15.1
			c-1.4-4.5-2.6-9.3-3.6-13.8H516c-0.2,4.6-0.4,10.2-0.6,15.1l-0.8,14.2h-6l2.4-35.4h8.5l4.6,14.2c1.3,4.1,2.4,8.4,3.3,12.3h0.2
			c0.9-3.8,2.2-8.2,3.5-12.3l4.9-14.2h8.4l2,35.4H540L539.4,300.6z"/>
		<path class="st4" d="M559.7,305l-3,10H550l11.3-35.4h8.2l11.5,35.4h-6.9l-3.2-10H559.7z M569.8,300.1l-2.8-8.7
			c-0.7-2.2-1.3-4.6-1.8-6.6h-0.1c-0.5,2-1,4.5-1.7,6.6l-2.7,8.7H569.8z"/>
		<path class="st4" d="M613.3,313.4c-2.3,0.8-6.7,2-11.4,2c-6,0-10.5-1.5-13.9-4.7c-3.2-3-5-7.7-4.9-13c0-11.2,8-18.4,19.7-18.4
			c4.4,0,7.8,0.9,9.4,1.7l-1.4,5.2c-1.9-0.8-4.3-1.5-8-1.5c-7.6,0-12.9,4.5-12.9,12.7c0,8,4.9,12.8,12.3,12.8c2.3,0,4-0.3,4.9-0.7
			v-8.8h-6.3v-5.1h12.5V313.4z"/>
		<path class="st4" d="M639.7,299.4h-13.3v10.4h14.9v5.3h-21.4v-35.4h20.6v5.3h-14.1v9.1h13.3V299.4z"/>
		<path class="st4" d="M646.9,315.1v-35.4h7.4l9.1,15.2c2.4,3.9,4.4,8,6,11.9h0.1c-0.4-4.7-0.6-9.3-0.6-14.7v-12.3h6v35.4h-6.7
			l-9.2-15.5c-2.3-3.9-4.6-8.2-6.4-12.2l-0.2,0.1c0.3,4.6,0.3,9.2,0.3,15.1v12.7H646.9z"/>
		<path class="st4" d="M682.3,308c2.1,1.2,5.3,2.3,8.6,2.3c4.1,0,6.5-1.9,6.5-4.8c0-2.7-1.8-4.3-6.3-5.9c-5.8-2.1-9.6-5.2-9.6-10.3
			c0-5.8,4.8-10.2,12.5-10.2c3.8,0,6.7,0.8,8.5,1.8l-1.6,5.2c-1.3-0.7-3.7-1.7-7-1.7c-4.1,0-5.9,2.2-5.9,4.3c0,2.7,2,4,6.8,5.8
			c6.1,2.3,9.1,5.4,9.1,10.5c0,5.7-4.3,10.6-13.4,10.6c-3.7,0-7.6-1.1-9.6-2.2L682.3,308z"/>
		<path class="st4" d="M740.3,299.4H727v10.4h14.9v5.3h-21.4v-35.4h20.6v5.3H727v9.1h13.3V299.4z"/>
		<path class="st4" d="M266,376.5c-2.3,0.8-6.7,2-11.4,2c-6,0-10.5-1.5-13.9-4.7c-3.2-3-5-7.7-4.9-13c0-11.2,8-18.4,19.7-18.4
			c4.4,0,7.8,0.9,9.4,1.7l-1.4,5.2c-1.9-0.8-4.3-1.5-8-1.5c-7.6,0-12.9,4.5-12.9,12.7c0,8,4.9,12.8,12.3,12.8c2.3,0,4-0.3,4.9-0.7
			v-8.8h-6.3v-5.1H266V376.5z"/>
		<path class="st4" d="M292.4,362.4h-13.3v10.4H294v5.3h-21.4v-35.4h20.6v5.3h-14.1v9.1h13.3V362.4z"/>
		<path class="st4" d="M331.1,360c0,11.9-7.2,18.6-17,18.6c-10,0-16.3-7.6-16.3-18c0-10.9,6.8-18.5,16.8-18.5
			C325,342.1,331.1,349.9,331.1,360z M304.7,360.5c0,7.2,3.6,12.9,9.8,12.9c6.3,0,9.8-5.8,9.8-13.2c0-6.7-3.3-13-9.8-13
			C308.1,347.3,304.7,353.2,304.7,360.5z"/>
		<path class="st4" d="M336.6,343.2c2.3-0.4,5.5-0.7,9.9-0.7c4.7,0,8.2,1,10.5,2.9c2.1,1.7,3.5,4.5,3.5,7.8c0,3.4-1.1,6.1-3,8
			c-2.6,2.6-6.6,3.8-11.2,3.8c-1.2,0-2.3-0.1-3.2-0.2v13.3h-6.4V343.2z M343,359.6c0.8,0.2,1.8,0.3,3.2,0.3c4.8,0,7.8-2.4,7.8-6.5
			c0-3.9-2.7-6-7.2-6c-1.8,0-3,0.2-3.7,0.3V359.6z"/>
		<path class="st4" d="M366,343.2c2.4-0.4,6-0.7,9.8-0.7c5.1,0,8.6,0.8,10.9,2.8c1.9,1.6,3,4.1,3,7.1c0,4.6-3.1,7.7-6.4,8.9v0.2
			c2.5,0.9,4,3.4,4.9,6.8c1.1,4.4,2,8.5,2.8,9.9h-6.7c-0.5-1.1-1.4-3.9-2.4-8.4c-1-4.6-2.7-6.1-6.4-6.2h-3.3v14.5H366V343.2z
			 M372.4,358.8h3.8c4.4,0,7.1-2.3,7.1-5.8c0-3.9-2.7-5.7-6.9-5.7c-2,0-3.4,0.2-4,0.3V358.8z"/>
		<path class="st4" d="M427.3,360c0,11.9-7.2,18.6-17,18.6c-10,0-16.3-7.6-16.3-18c0-10.9,6.8-18.5,16.8-18.5
			C421.2,342.1,427.3,349.9,427.3,360z M400.9,360.5c0,7.2,3.6,12.9,9.8,12.9c6.2,0,9.8-5.8,9.8-13.2c0-6.7-3.3-13-9.8-13
			C404.3,347.3,400.9,353.2,400.9,360.5z"/>
		<path class="st4" d="M458.2,377c-1.5,0.8-4.9,1.6-9.1,1.6c-11.2,0-18.1-7-18.1-17.8c0-11.7,8.1-18.7,18.9-18.7
			c4.3,0,7.3,0.9,8.6,1.6l-1.4,5.1c-1.7-0.7-4-1.4-6.9-1.4c-7.2,0-12.4,4.5-12.4,13c0,7.8,4.6,12.8,12.3,12.8c2.6,0,5.4-0.5,7-1.3
			L458.2,377z"/>
		<path class="st4" d="M483.5,362.4h-13.3v10.4h14.9v5.3h-21.4v-35.4h20.6v5.3h-14.1v9.1h13.3V362.4z"/>
		<path class="st4" d="M490.6,371c2.1,1.2,5.3,2.3,8.6,2.3c4.1,0,6.5-1.9,6.5-4.8c0-2.7-1.8-4.3-6.3-5.9c-5.8-2.1-9.6-5.2-9.6-10.3
			c0-5.8,4.8-10.2,12.5-10.2c3.8,0,6.7,0.8,8.5,1.8l-1.6,5.2c-1.3-0.7-3.7-1.7-7-1.7c-4.1,0-5.9,2.2-5.9,4.3c0,2.7,2,4,6.8,5.8
			c6.1,2.3,9.1,5.4,9.1,10.5c0,5.7-4.3,10.6-13.4,10.6c-3.7,0-7.6-1.1-9.6-2.2L490.6,371z"/>
		<path class="st4" d="M517.9,371c2.1,1.2,5.3,2.3,8.6,2.3c4.1,0,6.5-1.9,6.5-4.8c0-2.7-1.8-4.3-6.3-5.9c-5.8-2.1-9.6-5.2-9.6-10.3
			c0-5.8,4.8-10.2,12.5-10.2c3.8,0,6.7,0.8,8.5,1.8l-1.6,5.2c-1.3-0.7-3.7-1.7-7-1.7c-4.1,0-5.9,2.2-5.9,4.3c0,2.7,2,4,6.8,5.8
			c6.1,2.3,9.1,5.4,9.1,10.5c0,5.7-4.3,10.6-13.4,10.6c-3.7,0-7.6-1.1-9.6-2.2L517.9,371z"/>
		<path class="st4" d="M552.4,368l-3,10h-6.7l11.3-35.4h8.2l11.5,35.4h-6.9l-3.2-10H552.4z M562.5,363.2l-2.8-8.7
			c-0.7-2.2-1.3-4.6-1.8-6.6h-0.1c-0.5,2-1,4.5-1.7,6.6l-2.7,8.7H562.5z"/>
		<path class="st4" d="M608.4,363.6c-0.2-4.6-0.5-10.1-0.4-14.9h-0.2c-1.2,4.3-2.6,9.1-4.2,13.6l-5.1,15.3h-5l-4.7-15.1
			c-1.4-4.5-2.6-9.3-3.6-13.8h-0.1c-0.2,4.6-0.4,10.2-0.6,15.1l-0.8,14.2h-6l2.4-35.4h8.5l4.6,14.2c1.3,4.1,2.4,8.4,3.3,12.3h0.2
			c0.9-3.8,2.2-8.2,3.5-12.3l4.9-14.2h8.4l2,35.4h-6.3L608.4,363.6z"/>
		<path class="st4" d="M641.8,362.4h-13.3v10.4h14.9v5.3H622v-35.4h20.6v5.3h-14.1v9.1h13.3V362.4z"/>
		<path class="st4" d="M649,378.1v-35.4h7.4l9.1,15.2c2.4,3.9,4.4,8,6,11.9h0.1c-0.4-4.7-0.6-9.3-0.6-14.7v-12.3h6v35.4h-6.7
			l-9.2-15.5c-2.3-3.9-4.6-8.2-6.4-12.2l-0.2,0.1c0.3,4.6,0.3,9.2,0.3,15.1v12.7H649z"/>
		<path class="st4" d="M691.3,348.1h-10.1v-5.4h26.7v5.4h-10.2v30h-6.5V348.1z"/>
		<path class="st4" d="M742,360c0,11.9-7.2,18.6-17,18.6c-10,0-16.3-7.6-16.3-18c0-10.9,6.8-18.5,16.8-18.5
			C735.9,342.1,742,349.9,742,360z M715.6,360.5c0,7.2,3.6,12.9,9.8,12.9c6.3,0,9.8-5.8,9.8-13.2c0-6.7-3.3-13-9.8-13
			C719,347.3,715.6,353.2,715.6,360.5z"/>
	</g>
</g>
</svg>
