<svg width="214" height="59" viewBox="0 0 214 59" fill="none" xmlns="http://www.w3.org/2000/svg">
<path opacity="0.99" fill-rule="evenodd" clip-rule="evenodd" d="M43.1661 1.91365C43.2661 1.92636 43.4837 1.99404 43.6501 2.06458C43.8161 2.13512 44.0611 2.25939 44.1941 2.34142C44.3271 2.42304 44.5628 2.58545 44.7179 2.70193C44.8731 2.81841 45.1342 3.0407 45.2978 3.19655C45.4618 3.35199 45.7322 3.6641 45.8986 3.88968C46.0654 4.11525 46.2891 4.48437 46.3954 4.70994C46.5022 4.93552 46.634 5.27716 46.688 5.46869C46.742 5.66023 46.8065 6.01089 46.8306 6.24795C46.8625 6.55924 46.8625 6.79794 46.8306 7.10923C46.8069 7.34629 46.7452 7.70598 46.6944 7.90899C46.6437 8.11201 46.5518 8.40731 46.4901 8.56521C46.4289 8.72311 46.2995 9.01389 46.2032 9.21117C46.0779 9.4675 46.0421 9.5766 46.0779 9.593C46.1057 9.60531 46.4003 9.57004 46.7327 9.51426C47.0652 9.45848 47.5004 9.38835 47.6998 9.35882C47.9098 9.32765 48.4276 9.30509 48.9289 9.30468C49.5595 9.30427 49.9213 9.32396 50.2586 9.37727C50.5137 9.41706 50.9034 9.4958 51.125 9.5524C51.3466 9.60859 51.7185 9.72015 51.951 9.80053C52.1836 9.88092 52.5458 10.0327 52.7558 10.1377C52.9883 10.2541 53.1696 10.3743 53.2192 10.4453C53.2711 10.5191 53.3066 10.6466 53.3159 10.7939C53.3243 10.9214 53.309 11.1273 53.2816 11.2516C53.2546 11.3759 53.1656 11.6248 53.0834 11.8053C53.0016 11.9857 52.8287 12.2995 52.6989 12.5025C52.5696 12.7055 52.3528 13.0102 52.2174 13.1792C52.082 13.3486 51.8354 13.632 51.669 13.81C51.503 13.9876 51.2036 14.2722 51.0041 14.4428C50.8046 14.613 50.4782 14.862 50.2788 14.9953C50.0793 15.129 49.6348 15.3804 49.2915 15.5543C48.9482 15.7282 48.5037 15.9308 48.3043 16.0046C48.1048 16.0785 47.7784 16.183 47.5789 16.2368C47.3795 16.2909 47.0257 16.3651 46.7932 16.4021C46.4785 16.4517 46.1376 16.4664 45.4634 16.4603C44.9645 16.4554 44.4931 16.4488 44.4157 16.4455C44.2936 16.4406 44.2731 16.4533 44.2626 16.5423C44.2561 16.5985 44.3794 17.0509 44.5366 17.5471C44.6937 18.0434 44.9021 18.7817 44.9992 19.1877C45.0963 19.5937 45.2055 20.092 45.2422 20.295C45.2788 20.4981 45.3336 20.8208 45.3639 21.0128C45.3941 21.2047 45.4549 21.6846 45.4993 22.0791C45.5436 22.4737 45.6016 23.1566 45.6278 23.5966C45.6576 24.0929 45.6657 24.77 45.6496 25.3807C45.6351 25.9221 45.5964 26.6603 45.5629 27.0213C45.5295 27.3822 45.4743 27.8895 45.4404 28.1491C45.407 28.4087 45.3336 28.8701 45.2776 29.1745C45.2216 29.4788 45.1213 29.959 45.054 30.2408C44.9871 30.5226 44.861 30.9704 44.7747 31.2354C44.6881 31.5003 44.5628 31.828 44.4963 31.9634C44.4298 32.0987 44.3391 32.2464 44.2948 32.2915C44.2239 32.3637 44.1606 32.3735 43.771 32.3735C43.5272 32.3735 43.3007 32.3641 43.2673 32.353C43.2338 32.3419 43.2072 32.3095 43.2076 32.2812C43.208 32.2529 43.3068 31.9716 43.4264 31.6558C43.5465 31.34 43.7258 30.7953 43.8254 30.4459C43.9249 30.0964 44.0607 29.5428 44.1276 29.2155C44.1945 28.8882 44.2872 28.3439 44.3339 28.0056C44.3871 27.6188 44.4334 26.9712 44.4584 26.2625C44.485 25.5054 44.4846 24.7434 44.4564 23.9452C44.4338 23.2911 44.3964 22.5434 44.3742 22.2842C44.3516 22.025 44.3057 21.5726 44.2719 21.2794C44.238 20.9861 44.1836 20.5711 44.1506 20.3566C44.1179 20.1421 44.0539 19.7729 44.0083 19.5363C43.9628 19.2997 43.8713 18.8842 43.8048 18.6135C43.7387 18.3428 43.6199 17.9183 43.5413 17.6702C43.4631 17.4221 43.312 16.9976 43.2056 16.7269C43.0996 16.4562 42.8841 15.9673 42.7269 15.64C42.5698 15.3127 42.4404 15.0084 42.4392 14.9633C42.4376 14.8919 42.4601 14.9006 42.6105 15.0293C42.706 15.1105 42.8837 15.2287 43.0054 15.291C43.127 15.3538 43.3902 15.4469 43.5896 15.4977C43.7891 15.549 44.1699 15.6138 44.4359 15.6417C44.7244 15.672 45.1225 15.6827 45.4231 15.6679C45.6999 15.654 46.1444 15.6048 46.4104 15.5584C46.6763 15.5117 47.0845 15.4177 47.317 15.3492C47.5495 15.2812 47.9033 15.1593 48.1028 15.0786C48.3022 14.9978 48.5831 14.8718 48.7274 14.7988C48.8716 14.7254 49.1614 14.5593 49.3721 14.4297C49.5829 14.3001 49.8907 14.0909 50.0571 13.9654C50.2232 13.8395 50.606 13.4868 50.9074 13.1813C51.2088 12.8757 51.569 12.4689 51.7077 12.2769C51.8467 12.085 52.0075 11.8451 52.0651 11.7437C52.1231 11.6424 52.194 11.4854 52.2234 11.3951C52.2625 11.2741 52.2654 11.1962 52.2347 11.0978C52.2118 11.0244 52.1429 10.93 52.082 10.8882C52.0212 10.8464 51.7899 10.7438 51.5682 10.661C51.3466 10.5781 51.0202 10.4723 50.8429 10.426C50.6656 10.3796 50.3211 10.3058 50.0773 10.2619C49.8254 10.2164 49.3383 10.1713 48.949 10.1578C48.5259 10.1426 48.0714 10.1524 47.7603 10.1832C47.483 10.2107 47.0752 10.2669 46.8536 10.3083C46.632 10.3497 46.2693 10.4301 46.0477 10.4871C45.8261 10.5441 45.1914 10.7488 44.6373 10.9415C43.796 11.2348 43.5735 11.2967 43.2874 11.318C43.0992 11.332 42.7543 11.3225 42.5218 11.2967C42.2893 11.2713 42.008 11.2274 41.8972 11.1995C41.7864 11.172 41.6998 11.1306 41.7046 11.108C41.7094 11.0855 41.8634 11.0457 42.0471 11.019C42.2305 10.9928 42.4984 10.9407 42.6427 10.903C42.7869 10.8652 43.0589 10.7697 43.2471 10.6905C43.4353 10.6118 43.6984 10.4805 43.8314 10.3997C43.9644 10.3185 44.1731 10.175 44.2948 10.0802C44.4165 9.9855 44.6168 9.80914 44.7393 9.68774C44.8622 9.56676 45.0399 9.34733 45.1346 9.20092C45.2293 9.0545 45.3623 8.78668 45.43 8.60622C45.4981 8.42576 45.6004 8.09355 45.6576 7.86798C45.7499 7.50501 45.762 7.37541 45.7636 6.74011C45.7652 6.16469 45.7503 5.96126 45.6891 5.71477C45.6467 5.54539 45.5678 5.28741 45.5138 5.14059C45.4598 4.99376 45.3788 4.80017 45.3336 4.70994C45.2885 4.61972 45.1543 4.39373 45.0351 4.20753C44.9162 4.02133 44.6917 3.73998 44.5366 3.58208C44.3815 3.42417 44.1776 3.2552 43.912 3.1178L43.9422 3.36019C43.9592 3.49349 43.9841 3.9069 43.9982 4.2793C44.0188 4.82806 44.0107 5.02206 43.9555 5.30464C43.9181 5.49617 43.8508 5.75456 43.806 5.87883C43.7609 6.0031 43.6622 6.22416 43.586 6.37099C43.5099 6.51782 43.3438 6.76062 43.2165 6.91114C43.0892 7.06166 42.8853 7.2659 42.7636 7.36474C42.6419 7.464 42.4331 7.61165 42.3002 7.69326C42.1672 7.77447 41.9222 7.89669 41.7562 7.96436C41.5898 8.03203 41.2996 8.12103 41.1114 8.16246C40.8286 8.22398 40.59 8.23669 39.7414 8.23464C38.898 8.233 38.5297 8.21167 37.6863 8.11734C36.9662 8.03695 36.3634 7.99635 35.6715 7.98241C34.9123 7.96682 34.5726 7.97707 34.2007 8.0267C33.9347 8.06197 33.5451 8.13662 33.3343 8.19198C33.1236 8.24776 32.7702 8.36834 32.5486 8.46062C32.3269 8.5529 31.9824 8.72844 31.7829 8.85025C31.5835 8.97247 31.2752 9.19066 31.0979 9.33585C30.9206 9.48104 30.6321 9.75419 30.4572 9.94367C30.2819 10.1327 30.0083 10.4633 29.8491 10.6774C29.6896 10.8915 29.4611 11.2331 29.3406 11.4361C29.2201 11.6392 29.0638 11.9529 28.9932 12.1334C28.9227 12.3138 28.8325 12.5817 28.7926 12.7281C28.7297 12.9602 28.7204 13.1784 28.7192 14.4096C28.7184 15.4165 28.7031 15.8836 28.6664 16.0297C28.6386 16.1424 28.5766 16.3639 28.529 16.5218C28.4815 16.6797 28.33 17.0394 28.1926 17.3216C28.0548 17.6033 27.7977 18.0557 27.6208 18.3264C27.4439 18.5971 27.1284 19.0216 26.9196 19.2697C26.7109 19.5178 26.3156 19.9333 26.0416 20.1925C25.7673 20.452 25.4245 20.7787 25.0132 21.1727L25.1946 21.3598C25.2941 21.4623 25.4573 21.5907 25.5572 21.6452C25.6567 21.6998 25.8562 21.7748 26.0005 21.8125C26.1814 21.8593 26.4308 21.8806 26.8064 21.8806C27.138 21.8806 27.5785 21.8478 27.9347 21.7966C28.2558 21.7502 28.6822 21.6928 28.8816 21.669C29.156 21.6362 29.3031 21.6378 29.4861 21.6764C29.6199 21.7047 29.8358 21.7945 29.9696 21.8773C30.1026 21.9598 30.2884 22.1218 30.3827 22.2379C30.4769 22.3535 30.5644 22.4991 30.5773 22.561C30.5902 22.623 30.595 22.6783 30.5874 22.6841C30.5801 22.6898 30.3927 22.5996 30.1711 22.4839C29.8419 22.3117 29.7202 22.2694 29.5062 22.2534C29.362 22.2424 29.1081 22.2559 28.9421 22.2834C28.7757 22.3109 28.386 22.3949 28.0757 22.4704C27.7654 22.5455 27.3572 22.6291 27.1691 22.6562C26.9696 22.6849 26.6327 22.6968 26.3631 22.6841C26.0206 22.6681 25.8159 22.6349 25.5774 22.5569C25.4001 22.4987 25.1462 22.3843 25.0132 22.3027C24.8802 22.2206 24.6401 22.0357 24.4793 21.8909C24.3185 21.7461 24.1509 21.628 24.1066 21.628C24.0622 21.628 23.9893 21.6694 23.9446 21.7203C23.8994 21.7711 23.8426 21.8769 23.818 21.9561C23.7902 22.0447 23.7814 22.2571 23.7951 22.5098C23.808 22.7493 23.8785 23.2013 23.9639 23.5966C24.0574 24.0277 24.1251 24.4743 24.1497 24.827C24.1714 25.1314 24.2234 25.5005 24.2657 25.6473C24.308 25.7941 24.4048 26.0062 24.4801 26.119C24.58 26.2682 24.6816 26.3577 24.8528 26.4471C25.0559 26.5533 25.1305 26.5697 25.3932 26.5672C25.5782 26.5656 25.8328 26.527 26.0408 26.4692C26.2842 26.4019 26.4941 26.3741 26.7661 26.3732C27.0369 26.3724 27.2549 26.3999 27.5116 26.4668C27.711 26.5188 28.0918 26.6427 28.3578 26.7424C28.6237 26.842 29.0045 26.9733 29.204 27.034C29.5223 27.1308 29.6356 27.1443 30.1308 27.1443C30.5644 27.1443 30.751 27.1267 30.9367 27.0684C31.0697 27.027 31.3054 26.9286 31.4606 26.8498C31.6157 26.7707 31.8514 26.6308 31.9844 26.5389C32.1174 26.4467 32.3531 26.26 32.5083 26.1243C32.6634 25.9885 33.0349 25.6219 33.3343 25.3094C33.6973 24.9304 33.892 24.7547 33.9186 24.7823C33.9455 24.8097 33.8414 25.0428 33.6063 25.4816C33.4125 25.8433 33.2537 26.1579 33.2537 26.1805C33.2537 26.203 33.3444 26.2399 33.4552 26.2625C33.566 26.2851 33.8288 26.3035 34.0395 26.3035C34.2503 26.3035 34.6355 26.2748 34.8958 26.2404C35.1561 26.2055 35.5143 26.1399 35.6916 26.0948C35.8689 26.0492 36.1953 25.9475 36.417 25.868C36.6386 25.7888 36.965 25.6543 37.1423 25.569C37.3196 25.4841 37.5916 25.3356 37.7467 25.2384C37.9019 25.1416 38.1739 24.9472 38.3512 24.8065C38.5285 24.6654 38.8375 24.3771 39.0378 24.1659C39.2381 23.9543 39.5347 23.5782 39.6971 23.33C39.8599 23.0819 40.0795 22.6943 40.1854 22.4688C40.2914 22.2432 40.451 21.8372 40.54 21.5665C40.6291 21.2958 40.7476 20.8344 40.804 20.5411C40.86 20.2479 40.9168 19.9341 40.9301 19.8439C40.945 19.7389 40.9676 19.6946 40.9918 19.7209C41.0127 19.7434 41.0502 19.928 41.0756 20.131C41.1018 20.3418 41.1106 20.6937 41.0969 20.9513C41.0832 21.1994 41.0441 21.5685 41.0095 21.7715C40.9752 21.9745 40.8918 22.3346 40.8249 22.5713C40.7576 22.8079 40.6077 23.205 40.4917 23.4531C40.3756 23.7012 40.1883 24.0424 40.0754 24.2118C39.9622 24.3808 39.7728 24.6351 39.6543 24.7762C39.5359 24.9177 39.276 25.1818 39.0765 25.3639C38.877 25.5456 38.5232 25.8245 38.2907 25.9836C38.0582 26.1427 37.6907 26.3626 37.4747 26.4725C37.2587 26.5828 36.8687 26.7452 36.6084 26.8338C36.3481 26.9224 35.9536 27.0323 35.7319 27.0783C35.5103 27.1242 35.1658 27.1808 34.9663 27.2042C34.7668 27.2271 34.1278 27.2464 32.4881 27.2468L32.1557 27.5368C31.9727 27.6963 31.7144 27.9006 31.5815 27.9908C31.4485 28.0806 31.1402 28.2533 30.8964 28.3739C30.6526 28.494 30.3081 28.6388 30.1308 28.6954C29.9535 28.7516 29.6678 28.8271 29.4961 28.8632C29.3245 28.8988 28.9981 28.9485 28.7708 28.9731C28.5435 28.9973 28.1946 29.0055 27.9951 28.9911C27.7957 28.9768 27.4693 28.9366 27.2698 28.9021C27.0703 28.8673 26.7439 28.7832 26.5445 28.7151C26.345 28.6466 26.0456 28.5215 25.8796 28.4366C25.7132 28.3521 25.4279 28.1787 25.2449 28.0519C25.0596 27.9231 24.8678 27.821 24.8117 27.821C24.7561 27.821 24.362 27.9715 23.9353 28.1557C23.5086 28.3398 23.0689 28.515 22.9581 28.5449C22.7591 28.5982 22.7482 28.5958 22.0611 28.3636C21.6787 28.2344 21.3721 28.1102 21.3793 28.0876C21.387 28.065 21.4914 28.0121 21.6114 27.9699C21.7315 27.9272 22.0744 27.7948 22.3738 27.675C22.6728 27.5552 23.108 27.3678 23.3409 27.2579C23.5734 27.148 23.7777 27.036 23.7943 27.0089C23.8112 26.9815 23.7826 26.8917 23.7298 26.8059C23.6774 26.7214 23.5867 26.5553 23.5283 26.4368C23.4695 26.3183 23.3857 26.0878 23.3413 25.9241C23.2974 25.7605 23.2253 25.313 23.1806 24.9296C23.1362 24.5461 23.0556 23.9555 23.0012 23.6171C22.9468 23.2788 22.8828 22.8174 22.8582 22.5918C22.8264 22.2986 22.826 22.1001 22.857 21.8946C22.8804 21.7367 22.9521 21.4967 23.0158 21.3614C23.1 21.1826 23.191 21.069 23.3474 20.9459C23.4659 20.8524 23.7165 20.7081 23.9051 20.6248C24.0933 20.5411 24.3383 20.4201 24.4491 20.3558C24.5599 20.2914 24.7501 20.1634 24.8722 20.0711C24.9939 19.9792 25.2534 19.7426 25.4488 19.5457C25.6439 19.3489 25.9158 19.0437 26.0533 18.8682C26.1903 18.6922 26.4256 18.3506 26.5755 18.1094C26.7254 17.8679 26.9551 17.4577 27.0852 17.1985C27.2154 16.9393 27.3854 16.5608 27.4628 16.3578C27.5402 16.1547 27.628 15.8754 27.6582 15.7372C27.7062 15.5178 27.7054 15.4764 27.6526 15.4145C27.599 15.3513 27.5293 15.3451 27.0482 15.362C26.7488 15.3726 26.2592 15.3648 25.9602 15.3451C25.6608 15.325 25.1986 15.2643 24.9326 15.2102C24.6667 15.1557 24.2859 15.0527 24.0864 14.9818C23.8869 14.9104 23.5332 14.7537 23.3006 14.6327C23.0677 14.5117 22.7506 14.3272 22.5955 14.2218C22.4403 14.1164 22.1873 13.9265 22.0333 13.7998C21.8794 13.6726 21.5917 13.4027 21.3938 13.1997C21.196 12.9967 20.8845 12.6276 20.7016 12.3795C20.5186 12.1313 20.2801 11.7716 20.1717 11.5797C20.0633 11.3878 19.9496 11.1388 19.9194 11.026C19.8763 10.8657 19.8743 10.7873 19.9101 10.6671C19.9355 10.5827 20.0149 10.4494 20.087 10.3706C20.1592 10.2923 20.3268 10.1627 20.4598 10.0827C20.5928 10.0027 20.8192 9.89281 20.9635 9.83826C21.1073 9.78372 21.3523 9.70169 21.5075 9.65575C21.6626 9.61023 21.9709 9.53435 22.1925 9.48801C22.4141 9.44125 22.7949 9.37317 23.0387 9.33626C23.3313 9.29197 23.7628 9.26818 24.308 9.26654C24.9125 9.2649 25.2582 9.28376 25.5975 9.33749C25.8522 9.37809 26.3055 9.46545 26.6049 9.53189C26.9039 9.59834 27.1578 9.64345 27.1691 9.63197C27.1799 9.62007 27.0578 9.34774 26.8975 9.02661C26.7371 8.70506 26.5614 8.30395 26.5066 8.13457C26.4522 7.96559 26.378 7.68875 26.3422 7.51936C26.3063 7.35039 26.2668 7.00875 26.2539 6.76062C26.2374 6.43743 26.2495 6.1934 26.297 5.89933C26.3333 5.67376 26.4183 5.3231 26.4852 5.12008C26.5525 4.91706 26.6811 4.61274 26.7709 4.44336C26.8608 4.27438 27.0369 3.98975 27.1626 3.81175C27.2879 3.63334 27.5265 3.34707 27.6929 3.17522C27.8589 3.00338 28.1084 2.77534 28.247 2.66871C28.4541 2.50916 28.5294 2.4743 28.6701 2.47348C28.7842 2.47239 28.8631 2.49631 28.9066 2.54526C28.9425 2.58545 28.9824 2.67363 28.9957 2.7413C29.0086 2.80897 28.9989 3.15964 28.9743 3.52056C28.9405 4.01559 28.9409 4.27766 28.9767 4.5869C29.0029 4.81248 29.0609 5.1168 29.1061 5.26363C29.1516 5.41045 29.2435 5.64095 29.3108 5.77629C29.3781 5.91164 29.5086 6.12163 29.6005 6.24344C29.6928 6.36484 29.8773 6.56785 30.0103 6.69458C30.1437 6.82091 30.3794 7.00957 30.5342 7.11374C30.6893 7.21792 30.9835 7.38853 31.1886 7.49312C31.3937 7.5977 31.6294 7.69449 31.7124 7.70762C31.8124 7.72361 31.9385 7.70516 32.0852 7.65225C32.2068 7.60836 32.4881 7.49763 32.7097 7.40576C32.9314 7.31389 33.321 7.19167 33.5761 7.13384C33.8344 7.0756 34.2801 7.01367 34.5835 6.99357C34.8825 6.97389 35.4265 6.97225 35.7924 6.98988C36.1579 7.00711 36.6837 7.05099 36.961 7.08749C37.2378 7.12359 37.6823 7.19126 37.9482 7.23801C38.2142 7.28436 38.7219 7.3955 39.0765 7.48491C39.604 7.6178 39.7946 7.64733 40.1242 7.64897C40.4325 7.6502 40.5932 7.62928 40.8092 7.55997C40.9644 7.50993 41.2001 7.41314 41.3331 7.34506C41.466 7.27698 41.6748 7.15147 41.7965 7.06617C41.9182 6.98127 42.1213 6.80368 42.2474 6.67203C42.3735 6.54037 42.5415 6.32177 42.6209 6.18643C42.7003 6.05108 42.8087 5.82059 42.8615 5.67376C42.9147 5.52693 42.9824 5.30587 43.0118 5.1816C43.046 5.03928 43.065 4.71405 43.0638 4.29981C43.0626 3.82241 43.0368 3.48159 42.9695 3.0489C42.9183 2.72161 42.874 2.36029 42.8704 2.24504C42.8667 2.11133 42.8861 2.01003 42.9244 1.96369C42.9715 1.90668 43.0235 1.89601 43.1661 1.91365ZM27.8742 4.34452C27.7743 4.52292 27.6212 4.84447 27.5337 5.05856C27.4463 5.27265 27.3343 5.61429 27.2847 5.81731C27.2126 6.11301 27.1944 6.30455 27.1936 6.78112C27.1932 7.27123 27.2085 7.43365 27.2823 7.70393C27.3314 7.88438 27.4366 8.17025 27.5156 8.33963C27.5946 8.50861 27.7441 8.77438 27.8476 8.92982C27.9508 9.08526 28.1942 9.36702 28.388 9.55527C28.5818 9.74393 28.8176 9.9367 28.9119 9.98427L29.0831 10.07C29.5767 9.5077 29.9261 9.14145 30.1779 8.89331C30.4298 8.64518 30.6353 8.40977 30.6353 8.37039C30.6349 8.32651 30.5604 8.26007 30.4431 8.19937C30.3379 8.14441 30.1336 8.0144 29.9898 7.91022C29.8455 7.80605 29.6009 7.60508 29.4458 7.46359C29.2906 7.32209 29.0485 7.05058 28.9074 6.86069C28.7664 6.67039 28.5806 6.36689 28.4948 6.18643C28.409 6.00597 28.2937 5.67376 28.2385 5.44819C28.1833 5.22261 28.1196 4.8092 28.0971 4.52908L28.056 4.0201L27.8742 4.34452ZM22.8372 10.2652C22.6821 10.2911 22.392 10.3501 22.1925 10.3969C21.993 10.4436 21.7029 10.5404 21.5478 10.6114C21.3926 10.6827 21.2157 10.7914 21.1549 10.8529C21.094 10.9145 21.0441 11.0014 21.0441 11.0465C21.0441 11.0916 21.1114 11.2348 21.1936 11.3644C21.2758 11.494 21.4817 11.7757 21.6509 11.9898C21.8206 12.2043 22.1566 12.5702 22.398 12.8031C22.6398 13.0361 22.9912 13.3404 23.1798 13.479C23.3679 13.6177 23.7036 13.8268 23.9252 13.9437C24.1469 14.0602 24.5051 14.2132 24.7211 14.2829C24.9371 14.3526 25.2816 14.4363 25.4867 14.4691C25.6918 14.5015 26.0408 14.54 26.2624 14.554C26.484 14.5683 26.8648 14.5601 27.1086 14.5351C27.3524 14.5105 27.57 14.4711 27.5922 14.4478C27.6143 14.424 27.628 14.2628 27.6224 14.0893C27.6167 13.9158 27.6321 13.5803 27.6562 13.3433C27.6804 13.1066 27.7501 12.7375 27.8114 12.523C27.8722 12.3089 27.9822 11.9952 28.0556 11.8258C28.1285 11.6568 28.2357 11.4485 28.2933 11.3627C28.3852 11.2262 28.392 11.195 28.3477 11.1064C28.3171 11.0453 28.1982 10.9592 28.0455 10.8878C27.9069 10.8226 27.6486 10.7205 27.4713 10.6602C27.294 10.5999 27.0127 10.5154 26.8467 10.4719C26.6803 10.4289 26.3357 10.3571 26.0811 10.3128C25.826 10.2689 25.4452 10.2217 25.2348 10.2082C25.0241 10.1947 24.7158 10.177 24.5498 10.1692C24.3834 10.1615 23.9937 10.1692 23.6835 10.1869C23.3732 10.2045 22.9924 10.2398 22.8372 10.2652ZM26.0388 27.1172C25.9823 27.1422 25.9324 27.1771 25.9275 27.1947C25.9231 27.212 26.1234 27.3407 26.3728 27.481C26.6222 27.6209 26.9623 27.7833 27.1288 27.8419C27.3367 27.9149 27.5942 27.9633 27.9548 27.9961C28.4754 28.0433 28.4827 28.0429 29.1436 27.908C29.509 27.8333 29.8717 27.7435 29.9495 27.7082L30.0905 27.6434C29.6219 27.5909 29.4405 27.5577 29.3853 27.5356C29.3297 27.5138 29.1758 27.4687 29.0428 27.4355C28.9098 27.4027 28.6741 27.3387 28.519 27.2936C28.3638 27.2485 28.0556 27.1451 27.8339 27.0643C27.468 26.9306 27.3939 26.9175 27.028 26.9208C26.7681 26.9232 26.5392 26.9507 26.3833 26.9979C26.2503 27.0381 26.0952 27.0918 26.0388 27.1172Z" fill="url(#paint0_linear_2623_3679)"/>
<path d="M2.0647 26.2476C1.88849 28.8447 1.97345 30.2189 2.64061 32.7668C10.5631 32.3434 16.0125 32.5255 26.316 35.4897L32.23 33.8058C20.9557 27.5272 9.20796 25.0462 2.0647 26.2476Z" fill="#2DAD56"/>
<path d="M24.6657 35.9772C16.0902 33.9934 11.245 33.2749 2.84387 33.7664C3.8173 38.0657 5.03703 40.2905 7.71252 43.9145C14.6284 39.991 18.3615 38.3107 24.6657 35.9772Z" fill="#B6D438"/>
<path d="M48.8879 41.9449C50.6731 38.917 51.5123 37.0725 52.2902 33.8599C39.0877 31.6442 25.3868 35.3075 8.4917 44.6728C23.872 40.7189 33.99 40.2539 48.8879 41.9449Z" fill="#B6D438"/>
<path d="M9.20796 45.5837C25.4642 41.3442 33.8295 41.5456 48.191 42.8854C39.5426 55.6974 19.8268 57.5179 9.20796 45.5837Z" fill="#FAE54E"/>
<path d="M28.1958 0.0109823C28.2605 0.0126273 28.2605 0.0126273 28.3267 0.0142723C28.937 0.0307222 29.5419 0.0718469 30.1489 0.136413C30.2782 0.149984 30.4071 0.162733 30.5361 0.175892C30.9976 0.222775 31.4542 0.281172 31.9105 0.365477C31.9949 0.381105 32.0794 0.396321 32.1639 0.411537C33.0157 0.563287 33.8579 0.727375 34.6896 0.970834C34.7817 0.997565 34.8739 1.02306 34.9664 1.04856C37.3055 1.69874 39.5823 2.67258 41.653 3.95896C41.6118 4.38871 41.434 4.61284 41.1276 4.90483C41.1014 4.89002 41.0751 4.87563 41.048 4.86041C40.9264 4.79297 40.8048 4.72552 40.6831 4.65808C40.6431 4.63587 40.6035 4.61366 40.5623 4.59104C39.122 3.79322 37.6627 3.11425 36.1166 2.56072C36.0899 2.55126 36.0636 2.5418 36.0361 2.53193C34.7551 2.07503 33.434 1.7485 32.0968 1.51615C31.9638 1.49312 31.8309 1.46885 31.6979 1.44459C31.1439 1.34548 30.5886 1.28873 30.0281 1.24267C29.9998 1.2402 29.9711 1.23814 29.9416 1.23568C29.8636 1.2291 29.7856 1.22293 29.7076 1.21717C29.5698 1.2036 29.5698 1.2036 29.4554 1.18304C29.2809 1.15507 29.1071 1.14767 28.9305 1.14027C28.8917 1.13862 28.8525 1.13657 28.8125 1.13492C26.3045 1.03211 23.8515 1.25418 21.4066 1.82047C21.3359 1.83692 21.3359 1.83692 21.2639 1.85337C19.3007 2.31273 17.3831 3.05791 15.5937 3.99556C15.4947 4.04737 15.3953 4.09837 15.2959 4.14936C13.7933 4.92786 12.3486 5.88812 11.0506 6.98409C10.952 7.06716 10.8526 7.149 10.7532 7.23084C10.2238 7.67293 9.70527 8.129 9.22477 8.62579C9.12657 8.72655 9.02554 8.82072 8.92006 8.91284C8.7568 9.05596 8.6105 9.211 8.46462 9.37179C8.42542 9.41497 8.42542 9.41497 8.38581 9.45857C8.33287 9.51655 8.27993 9.57495 8.22699 9.63335C8.15748 9.70984 8.08757 9.78592 8.01726 9.862C7.80065 10.0976 7.59253 10.337 7.3941 10.5887C7.31287 10.6907 7.23003 10.7902 7.14597 10.8897C6.50908 11.6443 5.93401 12.4594 5.4034 13.2943C5.37592 13.337 5.37592 13.337 5.34804 13.381C4.1676 15.2395 3.22681 17.2167 2.49374 19.2985C2.48283 19.3297 2.47191 19.3606 2.4606 19.3927C2.30865 19.8265 2.19267 20.2707 2.07668 20.7156C2.05284 20.8057 2.029 20.8962 2.00515 20.9862C1.96515 21.1363 1.92635 21.2864 1.88756 21.437C1.88028 21.4649 1.8726 21.4929 1.86493 21.5217C1.52385 22.8093 1.34644 24.1323 1.21308 25.4569C1.20823 25.5046 1.20338 25.5527 1.19853 25.6021C1.127 26.3489 1.11165 27.092 1.11205 27.8421C1.11205 27.8903 1.11205 27.9388 1.11205 27.9885C1.11326 28.7284 1.13226 29.4596 1.20055 30.1965C1.20621 30.2603 1.21146 30.324 1.21712 30.3878C1.53597 34.1067 2.64205 37.6722 5.64588 43.0686C5.67457 43.1109 5.67457 43.1109 5.70407 43.1541C5.96028 43.5288 6.22134 43.8993 6.49453 44.2612C6.51959 44.2945 6.51959 44.2945 6.54545 44.3286C6.78954 44.6515 7.04252 44.9644 7.30479 45.272C7.38117 45.3617 7.45634 45.4518 7.53069 45.5431C7.91905 46.0201 8.3357 46.4692 8.77094 46.9018C8.81539 46.9462 8.85985 46.9911 8.9047 47.0355C8.9924 47.1231 9.0805 47.2098 9.1694 47.2962C9.21022 47.3369 9.25103 47.3772 9.29145 47.4179C9.346 47.4714 9.346 47.4714 9.40177 47.5261C9.50361 47.6577 9.52584 47.712 9.52543 47.8802C9.49108 48.0393 9.44138 48.1919 9.39086 48.3465C9.37591 48.3938 9.36096 48.4407 9.3456 48.4896C9.30357 48.6204 9.26154 48.7512 9.21871 48.882C9.18274 48.9938 9.14677 49.1057 9.1108 49.2175C8.56767 50.9107 8.00149 52.5964 7.43815 54.2829C7.39855 54.4001 7.35935 54.5173 7.32015 54.6349C7.31085 54.6629 7.30156 54.6908 7.29186 54.7196C7.27367 54.7751 7.25508 54.8302 7.23649 54.8858C7.19244 55.0178 7.1484 55.1498 7.10394 55.2822C7.05585 55.4249 7.00817 55.568 6.96008 55.7111C6.94634 55.7527 6.93219 55.7942 6.91764 55.837C6.90511 55.8752 6.89218 55.9131 6.87925 55.9525C6.86268 56.0015 6.86268 56.0015 6.84611 56.0517C6.81661 56.1508 6.796 56.2499 6.77741 56.3519C7.12253 56.1767 7.46765 56.0015 7.81237 55.8263C7.9728 55.7449 8.13324 55.6634 8.29327 55.582C9.15364 55.1469 9.15364 55.1469 10.0055 54.6962C10.2977 54.5383 10.5935 54.3882 10.8893 54.2376C10.916 54.2245 10.9423 54.2109 10.9698 54.1969C11.1896 54.0855 11.4094 53.974 11.6293 53.8626C12.2508 53.5484 12.8707 53.233 13.4834 52.9011C13.622 52.8267 13.761 52.7539 13.9 52.6807C13.9263 52.6671 13.9526 52.6535 13.9796 52.6391C14.0839 52.5844 14.1882 52.5301 14.2928 52.4754C14.3458 52.4479 14.3983 52.4203 14.4513 52.3924C14.5026 52.3656 14.5535 52.3389 14.6048 52.3122C14.76 52.2312 14.9111 52.1444 15.0619 52.0552C15.2324 51.9606 15.3496 51.9157 15.5468 51.9515C15.6466 51.9931 15.7339 52.035 15.8273 52.0876C15.8847 52.1185 15.9421 52.1489 15.9994 52.1789C16.0306 52.1954 16.0617 52.2118 16.0936 52.2287C17.3003 52.8538 18.5991 53.3629 19.9085 53.7154C20.0431 53.752 20.1756 53.7935 20.3078 53.8379C20.6969 53.9675 21.0922 54.0583 21.4922 54.1463C21.607 54.1718 21.7218 54.1986 21.8366 54.2253C22.6274 54.4075 23.4248 54.5288 24.2285 54.637C24.2932 54.6456 24.3583 54.6542 24.4233 54.6633C25.4369 54.8023 26.4516 54.8459 27.4736 54.8434C27.5609 54.843 27.6482 54.843 27.7355 54.843C28.6739 54.8414 29.6066 54.8146 30.5397 54.7069C30.5894 54.7011 30.6395 54.6954 30.6908 54.6896C31.0194 54.6497 31.3451 54.5991 31.6712 54.5424C31.6995 54.5374 31.7278 54.5325 31.7569 54.5276C32.9656 54.3199 34.1634 54.0723 35.3265 53.6722C35.4441 53.6327 35.5625 53.5965 35.6809 53.5599C37.4211 53.0179 39.1119 52.2242 40.6831 51.2935C40.7381 51.261 40.7381 51.261 40.7942 51.2281C41.3241 50.9152 41.8349 50.5763 42.34 50.2243C42.3699 50.2037 42.3998 50.1827 42.4305 50.1614C43.0715 49.7131 43.6979 49.2389 44.2863 48.7208C44.3978 48.6233 44.5114 48.5291 44.6257 48.4354C44.8274 48.2684 45.0185 48.092 45.2085 47.9118C45.2966 47.8288 45.3871 47.7482 45.478 47.6684C45.6591 47.5076 45.8296 47.3377 45.9997 47.165C46.0317 47.1325 46.0636 47.1004 46.0963 47.0671C46.1634 46.9993 46.2301 46.931 46.2972 46.8632C46.3982 46.7603 46.4996 46.6575 46.6015 46.5551C46.924 46.2278 47.2323 45.9017 47.5128 45.5361C47.5774 45.4604 47.6445 45.388 47.7124 45.3148C47.9108 45.0952 48.089 44.8628 48.2652 44.6243C48.325 44.5437 48.3852 44.4639 48.4463 44.3842C49.2739 43.2956 50.0042 42.1416 50.6572 40.9363C50.7089 40.8417 50.7615 40.7475 50.8144 40.6537C51.3616 39.6688 51.7976 38.6259 52.1909 37.5686C52.2402 37.4365 52.2903 37.3054 52.3404 37.1738C52.5158 36.7127 52.6685 36.2517 52.795 35.7743C52.8282 35.6505 52.8645 35.5292 52.9057 35.4079C53.6966 33.0374 53.9173 30.3738 53.9132 27.8886C53.9128 27.8602 53.9128 27.8319 53.9128 27.8027C53.9124 26.7704 53.8671 25.7514 53.7362 24.7269C53.7289 24.6698 53.7289 24.6698 53.7217 24.6114C53.577 23.4689 53.3745 22.3462 53.0896 21.2313C53.0819 21.2009 53.0739 21.1701 53.0662 21.1388C52.5942 19.3009 51.9371 17.5083 51.0735 15.823C51.0286 15.7206 51.0286 15.7206 51.0286 15.5973C51.0569 15.5829 51.0852 15.5685 51.1143 15.5533C51.3487 15.4295 51.5422 15.3032 51.7293 15.1128C51.7516 15.0964 51.7738 15.0799 51.7964 15.0626C51.9177 15.1038 51.9177 15.1038 51.9847 15.2185C52.0098 15.2707 52.0349 15.3234 52.0591 15.376C52.0728 15.4056 52.087 15.4348 52.1011 15.4652C52.1318 15.5298 52.1626 15.5948 52.1929 15.6598C52.2406 15.7613 52.2899 15.8617 52.3396 15.9624C52.8629 17.0337 53.2941 18.1606 53.6554 19.2985C53.6703 19.3458 53.6857 19.3931 53.701 19.4416C53.9274 20.1551 54.1302 20.8723 54.302 21.6015C54.3133 21.6488 54.3246 21.6956 54.3363 21.7442C54.5242 22.5375 54.6467 23.3382 54.759 24.1463C54.7659 24.1952 54.7728 24.2441 54.7801 24.2947C54.9381 25.4248 55.0027 26.541 54.9995 27.6809C54.9991 27.8389 54.9995 27.9964 54.9999 28.1539C55.0019 28.9344 54.9756 29.7063 54.9082 30.4844C54.9025 30.5547 54.8968 30.6255 54.8908 30.6958C54.8758 30.8784 54.8585 31.0606 54.8399 31.2427C54.8366 31.2748 54.8334 31.3065 54.8302 31.3398C54.7554 32.064 54.6241 32.7751 54.4798 33.4877C54.4559 33.6066 54.4333 33.7254 54.4103 33.8443C54.2466 34.6874 54.0401 35.5193 53.7617 36.3307C53.7257 36.438 53.6942 36.547 53.6631 36.6556C52.8952 39.2094 51.661 41.718 50.1395 43.8911C50.1064 43.9392 50.0729 43.9873 50.0397 44.0358C49.6413 44.6099 49.2234 45.1668 48.7841 45.7096C48.7312 45.775 48.679 45.8412 48.6269 45.9074C48.4362 46.1484 48.2361 46.3779 48.0288 46.6045C47.9444 46.6974 47.8619 46.7924 47.7803 46.8878C47.6364 47.0556 47.4885 47.2193 47.3386 47.3817C47.3119 47.4101 47.2856 47.4385 47.2586 47.4681C46.9761 47.7732 46.6916 48.0722 46.378 48.3449C46.2968 48.4181 46.2216 48.495 46.1464 48.5744C45.9904 48.7356 45.8215 48.8754 45.6481 49.0169C45.5309 49.1151 45.4194 49.2175 45.3079 49.322C45.1066 49.5095 44.8989 49.6835 44.6839 49.8542C44.6298 49.8978 44.5752 49.9413 44.521 49.9853C44.1375 50.2925 43.7476 50.5866 43.3463 50.8691C43.2776 50.9176 43.2093 50.967 43.141 51.0159C42.0777 51.7792 40.947 52.4319 39.7852 53.0253C39.7152 53.0607 39.6453 53.0964 39.5758 53.1326C38.4443 53.71 37.2719 54.1657 36.0761 54.5835C36.0038 54.609 35.9311 54.6349 35.8587 54.6608C35.531 54.7756 35.2024 54.8722 34.8654 54.954C34.724 54.9886 34.5849 55.0281 34.4455 55.0688C33.0517 55.4763 31.5957 55.6885 30.1554 55.8432C30.0798 55.8514 30.0042 55.8596 29.9287 55.8687C29.1661 55.9587 28.3962 55.9488 27.63 55.9484C27.6025 55.9484 27.5751 55.9484 27.5468 55.9484C26.3865 55.948 25.2336 55.9328 24.0851 55.749C23.942 55.7272 23.7982 55.712 23.6543 55.6963C22.6109 55.5758 21.5706 55.3599 20.5624 55.0605C20.4427 55.026 20.3219 54.9947 20.2011 54.9631C18.7406 54.5814 17.314 54.0505 15.9586 53.3769C15.9303 53.3629 15.902 53.3489 15.8725 53.3345C15.8018 53.2996 15.7311 53.2634 15.6608 53.2268C15.3916 53.1285 15.1112 53.3276 14.8699 53.4423C14.8453 53.4538 14.821 53.4653 14.7956 53.4772C14.2811 53.7219 13.7764 53.986 13.272 54.2512C12.817 54.4902 12.3599 54.7254 11.9017 54.9586C11.8734 54.973 11.8447 54.9873 11.8156 55.0022C11.5291 55.1481 11.2421 55.2933 10.9556 55.4385C10.8469 55.4936 10.7382 55.5487 10.6299 55.6038C10.5563 55.6412 10.4828 55.6782 10.4088 55.7153C10.1365 55.8538 9.86611 55.9957 9.59696 56.1405C9.21466 56.3461 8.82873 56.5447 8.44199 56.7413C8.37248 56.7767 8.30337 56.8121 8.23386 56.8474C8.09081 56.9202 7.94734 56.993 7.80428 57.0658C7.62041 57.1591 7.43694 57.2529 7.25306 57.3463C7.11081 57.4186 6.96856 57.491 6.82631 57.5634C6.75883 57.5979 6.69093 57.6325 6.62304 57.667C6.52928 57.7147 6.43512 57.7624 6.34096 57.8106C6.31308 57.8245 6.28519 57.8389 6.2565 57.8533C6.04111 57.9623 5.88875 58.0137 5.64588 57.9969C5.46281 57.9278 5.39573 57.8114 5.30641 57.6444C5.23044 57.3323 5.3832 57.0058 5.48221 56.7134C5.51333 56.6208 5.54404 56.5283 5.57475 56.4358C5.61031 56.3284 5.64588 56.2215 5.68144 56.1146C5.79459 55.7745 5.90653 55.434 6.01767 55.093C6.03626 55.0355 6.05525 54.9783 6.07384 54.9211C6.08314 54.8923 6.09243 54.8636 6.10213 54.834C6.11627 54.7908 6.11627 54.7908 6.13082 54.7464C6.14012 54.7176 6.14982 54.6884 6.15951 54.6583C6.42745 53.8383 6.69578 53.0183 6.9718 52.2007C7.24134 51.4037 7.50321 50.6043 7.76508 49.8044C7.80024 49.6979 7.8354 49.591 7.87016 49.4844C7.92552 49.3154 7.98088 49.1464 8.03625 48.9774C8.05686 48.914 8.07787 48.8507 8.09848 48.7874C8.12718 48.7002 8.15587 48.6126 8.18416 48.5254C8.2084 48.4514 8.2084 48.4514 8.23306 48.3757C8.27953 48.2326 8.27953 48.2326 8.31307 48.0858C8.27145 48.0105 8.27145 48.0105 8.20194 47.9419C8.17567 47.9131 8.149 47.8843 8.12192 47.8547C8.09161 47.8222 8.0613 47.7901 8.03019 47.7568C7.96189 47.6807 7.89359 47.6042 7.8257 47.5281C7.70123 47.39 7.57596 47.2526 7.44987 47.1161C7.12213 46.7616 6.80328 46.4013 6.49453 46.0296C6.4719 46.0024 6.44967 45.9757 6.42623 45.9477C6.03989 45.4818 5.67699 44.9994 5.32258 44.5079C5.30399 44.482 5.285 44.4561 5.266 44.4294C4.50949 43.3803 3.8334 42.2675 3.2357 41.118C3.18195 41.0148 3.12699 40.912 3.07203 40.8092C2.30501 39.3653 1.74854 37.8334 1.25107 36.276C1.20581 36.1349 1.15933 35.9943 1.11286 35.8541C0.902312 35.2117 0.76491 34.5488 0.627105 33.8875C0.617002 33.839 0.617001 33.839 0.606494 33.7892C0.51193 33.3364 0.433532 32.8828 0.36564 32.4251C0.346646 32.3001 0.325632 32.1755 0.304618 32.0504C-0.0938451 29.6636 -0.0671738 27.1681 0.187826 24.7681C0.191059 24.7376 0.194292 24.7072 0.197525 24.676C0.237533 24.3021 0.292494 23.9353 0.363216 23.5664C0.398374 23.3789 0.426258 23.1909 0.454143 23.0022C0.644079 21.7429 0.967374 20.5059 1.3622 19.2985C1.37109 19.2709 1.37998 19.2438 1.38928 19.2154C1.67418 18.3456 1.99707 17.5001 2.3725 16.6665C2.38543 16.6377 2.39836 16.6089 2.4117 16.5793C2.99969 15.2748 3.63376 13.9975 4.41937 12.802C4.47716 12.7136 4.53454 12.6248 4.59193 12.5359C5.14315 11.6855 5.73115 10.8687 6.37329 10.0865C6.39027 10.066 6.40724 10.045 6.42462 10.024C6.66022 9.73534 6.90188 9.45445 7.15325 9.17974C7.23488 9.09009 7.31368 8.99838 7.39208 8.90585C7.53676 8.73724 7.68871 8.57768 7.84429 8.41934C7.87177 8.39138 7.89966 8.36341 7.92794 8.33463C7.98573 8.27582 8.04352 8.21701 8.10131 8.1582C8.18901 8.06896 8.2767 7.97972 8.36399 7.89048C8.42057 7.83291 8.47714 7.77533 8.53372 7.71776C8.55958 7.69144 8.58545 7.66512 8.61172 7.63839C8.7669 7.4817 8.92612 7.33242 9.09141 7.18725C9.18112 7.10829 9.26882 7.02686 9.35611 6.94543C9.52867 6.78752 9.70527 6.63659 9.8855 6.48813C9.97643 6.41328 10.0665 6.33802 10.1567 6.26194C10.5268 5.95063 10.9083 5.65946 11.3003 5.37694C11.3763 5.32183 11.4523 5.2659 11.5278 5.20997C12.4666 4.51373 13.4717 3.8985 14.4961 3.34209C14.5377 3.31947 14.5794 3.29685 14.6222 3.27341C16.4812 2.26585 18.4605 1.44048 20.5094 0.928886C20.6707 0.888173 20.8299 0.842113 20.9895 0.794408C21.2926 0.70599 21.5981 0.634433 21.9069 0.568634C21.9356 0.562465 21.9643 0.556296 21.9938 0.550128C22.6298 0.415238 23.2675 0.3005 23.9121 0.216606C23.9477 0.212082 23.9832 0.207147 24.02 0.202624C25.4134 0.023731 26.7923 -0.0247962 28.1958 0.0109823Z" fill="url(#paint1_linear_2623_3679)"/>
<path d="M213.054 36.1548H209.165V16.3188H213.054V36.1548Z" fill="#226309"/>
<path d="M199.26 21.6169C201.174 21.6169 202.635 22.0345 203.645 22.8697C204.671 23.6875 205.185 24.949 205.185 26.6542V36.1546H202.47L201.713 34.2232H201.609C201.209 34.7278 200.791 35.1454 200.356 35.476C199.938 35.8066 199.451 36.0415 198.894 36.1807C198.355 36.3373 197.685 36.4156 196.885 36.4156C196.05 36.4156 195.293 36.259 194.614 35.9458C193.953 35.6152 193.431 35.1193 193.048 34.4581C192.665 33.7795 192.474 32.9269 192.474 31.9003C192.474 30.3865 193.005 29.2729 194.066 28.5595C195.127 27.8287 196.719 27.4285 198.842 27.3589L201.322 27.2806V26.6542C201.322 25.906 201.122 25.3579 200.721 25.0099C200.339 24.6619 199.799 24.4879 199.103 24.4879C198.407 24.4879 197.729 24.5923 197.067 24.8011C196.406 24.9925 195.745 25.2361 195.084 25.5319L193.805 22.8958C194.571 22.4956 195.414 22.1824 196.337 21.9562C197.276 21.73 198.251 21.6169 199.26 21.6169ZM199.808 29.6035C198.555 29.6383 197.685 29.8645 197.198 30.2821C196.711 30.6997 196.467 31.2478 196.467 31.9264C196.467 32.518 196.641 32.9443 196.989 33.2053C197.337 33.4489 197.79 33.5707 198.346 33.5707C199.182 33.5707 199.886 33.3271 200.46 32.8399C201.035 32.3353 201.322 31.6306 201.322 30.7258V29.5513L199.808 29.6035Z" fill="#226309"/>
<path d="M181.517 21.6431C182.387 21.6431 183.17 21.8171 183.866 22.1651C184.562 22.5131 185.153 23.0351 185.64 23.7311H185.745L186.058 21.9041H189.347V36.1808C189.347 37.538 189.077 38.6777 188.538 39.5999C188.016 40.5221 187.224 41.2181 186.162 41.6879C185.101 42.1751 183.787 42.4187 182.221 42.4187C181.212 42.4187 180.273 42.3578 179.403 42.236C178.55 42.1142 177.715 41.8967 176.897 41.5835V38.4776C177.489 38.7212 178.08 38.9213 178.672 39.0779C179.281 39.2519 179.898 39.3737 180.525 39.4433C181.169 39.5303 181.812 39.5738 182.456 39.5738C183.465 39.5738 184.214 39.3041 184.701 38.7647C185.205 38.2253 185.458 37.4162 185.458 36.3374V36.0503C185.458 35.7545 185.466 35.45 185.484 35.1368C185.519 34.8236 185.545 34.5452 185.562 34.3016H185.458C184.971 35.0498 184.388 35.5892 183.709 35.9198C183.03 36.2504 182.265 36.4157 181.412 36.4157C179.724 36.4157 178.402 35.7719 177.445 34.4843C176.505 33.1793 176.036 31.3697 176.036 29.0555C176.036 27.4895 176.253 26.1584 176.688 25.0622C177.123 23.9486 177.75 23.1047 178.567 22.5305C179.403 21.9389 180.386 21.6431 181.517 21.6431ZM182.743 24.8012C182.134 24.8012 181.621 24.9665 181.203 25.2971C180.803 25.6103 180.499 26.0888 180.29 26.7326C180.099 27.359 180.003 28.1507 180.003 29.1077C180.003 30.5345 180.229 31.6046 180.681 32.318C181.134 33.014 181.839 33.362 182.796 33.362C183.3 33.362 183.735 33.3011 184.101 33.1793C184.466 33.0401 184.762 32.8226 184.988 32.5268C185.232 32.2136 185.414 31.8134 185.536 31.3262C185.658 30.839 185.719 30.2474 185.719 29.5514V29.0816C185.719 28.055 185.614 27.2285 185.406 26.6021C185.197 25.9757 184.875 25.5233 184.44 25.2449C184.005 24.9491 183.439 24.8012 182.743 24.8012Z" fill="#226309"/>
<path d="M167.349 21.6431C168.671 21.6431 169.802 21.8954 170.742 22.4C171.699 22.9046 172.439 23.6354 172.961 24.5924C173.483 25.5494 173.744 26.7239 173.744 28.1159V29.9951H164.556C164.591 31.0913 164.913 31.9526 165.522 32.579C166.148 33.2054 167.01 33.5186 168.106 33.5186C169.028 33.5186 169.863 33.4316 170.612 33.2576C171.36 33.0662 172.134 32.7791 172.934 32.3963V35.3978C172.238 35.7458 171.499 35.9981 170.716 36.1547C169.95 36.3287 169.019 36.4157 167.923 36.4157C166.496 36.4157 165.235 36.1547 164.139 35.6327C163.043 35.0933 162.181 34.2842 161.555 33.2054C160.928 32.1266 160.615 30.7694 160.615 29.1338C160.615 27.4634 160.894 26.0801 161.45 24.9839C162.025 23.8703 162.816 23.0351 163.826 22.4783C164.835 21.9215 166.009 21.6431 167.349 21.6431ZM167.375 24.4097C166.627 24.4097 166.001 24.6533 165.496 25.1405C165.009 25.6277 164.722 26.3846 164.635 27.4112H170.09C170.09 26.837 169.985 26.3237 169.776 25.8713C169.585 25.4189 169.289 25.0622 168.889 24.8012C168.489 24.5402 167.984 24.4097 167.375 24.4097Z" fill="#226309"/>
<path d="M147.032 36.1547V17.5193H150.973V32.8922H158.542V36.1547H147.032Z" fill="#226309"/>
<path d="M136.725 29.0033C136.725 30.1865 136.56 31.2392 136.229 32.1614C135.916 33.0836 135.455 33.8666 134.846 34.5104C134.254 35.1368 133.532 35.6153 132.679 35.9459C131.827 36.2591 130.861 36.4157 129.782 36.4157C128.79 36.4157 127.868 36.2591 127.016 35.9459C126.18 35.6153 125.458 35.1368 124.849 34.5104C124.24 33.8666 123.762 33.0836 123.414 32.1614C123.083 31.2392 122.918 30.1865 122.918 29.0033C122.918 27.4199 123.196 26.0888 123.753 25.01C124.31 23.9138 125.11 23.0786 126.154 22.5044C127.198 21.9302 128.434 21.6431 129.861 21.6431C131.2 21.6431 132.384 21.9302 133.41 22.5044C134.437 23.0786 135.246 23.9138 135.837 25.01C136.429 26.0888 136.725 27.4199 136.725 29.0033ZM126.885 29.0033C126.885 29.9429 126.981 30.7346 127.172 31.3784C127.381 32.0048 127.703 32.4833 128.138 32.8139C128.573 33.1271 129.138 33.2837 129.834 33.2837C130.53 33.2837 131.087 33.1271 131.505 32.8139C131.94 32.4833 132.253 32.0048 132.444 31.3784C132.653 30.7346 132.758 29.9429 132.758 29.0033C132.758 28.0637 132.653 27.2807 132.444 26.6543C132.253 26.0279 131.94 25.5581 131.505 25.2449C131.07 24.9317 130.504 24.7751 129.808 24.7751C128.782 24.7751 128.034 25.1318 127.564 25.8452C127.111 26.5412 126.885 27.5939 126.885 29.0033Z" fill="#226309"/>
<path d="M118.466 33.3099C118.901 33.3099 119.318 33.2664 119.718 33.1794C120.119 33.0924 120.519 32.988 120.919 32.8662V35.7633C120.501 35.9373 119.979 36.0852 119.353 36.207C118.744 36.3462 118.074 36.4158 117.343 36.4158C116.491 36.4158 115.725 36.2766 115.047 35.9982C114.385 35.7198 113.855 35.2413 113.454 34.5627C113.072 33.8667 112.88 32.9097 112.88 31.6917V24.8274H111.027V23.1831L113.167 21.8781L114.29 18.8766H116.769V21.9042H120.762V24.8274H116.769V31.6917C116.769 32.2311 116.926 32.64 117.239 32.9184C117.552 33.1794 117.961 33.3099 118.466 33.3099Z" fill="#226309"/>
<path d="M109.433 31.9265C109.433 32.8835 109.207 33.7013 108.754 34.3799C108.302 35.0411 107.623 35.5457 106.719 35.8937C105.814 36.2417 104.692 36.4157 103.352 36.4157C102.36 36.4157 101.507 36.3461 100.794 36.2069C100.081 36.0851 99.3672 35.8763 98.6538 35.5805V32.3702C99.4194 32.7182 100.246 33.0053 101.133 33.2315C102.021 33.4577 102.804 33.5708 103.482 33.5708C104.248 33.5708 104.787 33.4577 105.1 33.2315C105.431 33.0053 105.596 32.7095 105.596 32.3441C105.596 32.1005 105.527 31.883 105.388 31.6916C105.266 31.5002 104.987 31.2827 104.552 31.0391C104.117 30.7955 103.439 30.4823 102.517 30.0995C101.629 29.7167 100.898 29.3426 100.324 28.9772C99.75 28.5944 99.3237 28.142 99.0453 27.62C98.7669 27.0806 98.6277 26.4107 98.6277 25.6103C98.6277 24.2879 99.141 23.2961 100.168 22.6349C101.194 21.9737 102.56 21.6431 104.265 21.6431C105.153 21.6431 105.997 21.7301 106.797 21.9041C107.597 22.0781 108.424 22.3652 109.276 22.7654L108.102 25.5581C107.632 25.3493 107.18 25.1666 106.745 25.01C106.31 24.8534 105.883 24.7316 105.466 24.6446C105.066 24.5576 104.648 24.5141 104.213 24.5141C103.639 24.5141 103.204 24.5924 102.908 24.749C102.63 24.9056 102.49 25.1405 102.49 25.4537C102.49 25.6799 102.56 25.8887 102.699 26.0801C102.856 26.2541 103.143 26.4455 103.561 26.6543C103.996 26.8631 104.631 27.1415 105.466 27.4895C106.284 27.8201 106.988 28.1681 107.58 28.5335C108.172 28.8815 108.624 29.3252 108.937 29.8646C109.268 30.3866 109.433 31.0739 109.433 31.9265Z" fill="#226309"/>
<path d="M89.5839 21.6169C91.4979 21.6169 92.9595 22.0345 93.9687 22.8697C94.9953 23.6875 95.5086 24.949 95.5086 26.6542V36.1546H92.7942L92.0373 34.2232H91.9329C91.5327 34.7278 91.1151 35.1454 90.6801 35.476C90.2625 35.8066 89.7753 36.0415 89.2185 36.1807C88.6791 36.3373 88.0092 36.4156 87.2088 36.4156C86.3736 36.4156 85.6167 36.259 84.9381 35.9458C84.2769 35.6152 83.7549 35.1193 83.3721 34.4581C82.9893 33.7795 82.7979 32.9269 82.7979 31.9003C82.7979 30.3865 83.3286 29.2729 84.39 28.5595C85.4514 27.8287 87.0435 27.4285 89.1663 27.3589L91.6458 27.2806V26.6542C91.6458 25.906 91.4457 25.3579 91.0455 25.0099C90.6627 24.6619 90.1233 24.4879 89.4272 24.4879C88.7312 24.4879 88.0527 24.5923 87.3915 24.8011C86.7303 24.9925 86.0691 25.2361 85.4079 25.5319L84.129 22.8958C84.8946 22.4956 85.7385 22.1824 86.6607 21.9562C87.6003 21.73 88.5747 21.6169 89.5839 21.6169ZM90.132 29.6035C88.8792 29.6383 88.0092 29.8645 87.522 30.2821C87.0348 30.6997 86.7912 31.2478 86.7912 31.9264C86.7912 32.518 86.9652 32.9443 87.3132 33.2053C87.6612 33.4489 88.1136 33.5707 88.6704 33.5707C89.5056 33.5707 90.2103 33.3271 90.7845 32.8399C91.3587 32.3353 91.6458 31.6306 91.6458 30.7258V29.5513L90.132 29.6035Z" fill="#226309"/>
<path d="M73.6124 17.5193C76.0136 17.5193 77.7623 18.0413 78.8585 19.0853C79.9721 20.1119 80.5289 21.53 80.5289 23.3396C80.5289 24.1574 80.4071 24.9404 80.1635 25.6886C79.9199 26.4194 79.511 27.0806 78.9368 27.6722C78.38 28.2464 77.6405 28.6988 76.7183 29.0294C75.7961 29.36 74.6564 29.5253 73.2992 29.5253H71.6027V36.1547H67.6616V17.5193H73.6124ZM73.4036 20.7557H71.6027V26.2889H72.9077C73.6559 26.2889 74.2997 26.1932 74.8391 26.0018C75.3785 25.8104 75.7961 25.5059 76.0919 25.0883C76.3877 24.6707 76.5356 24.1313 76.5356 23.4701C76.5356 22.5479 76.2833 21.8693 75.7787 21.4343C75.2741 20.9819 74.4824 20.7557 73.4036 20.7557Z" fill="#226309"/>
<defs>
<linearGradient id="paint0_linear_2623_3679" x1="36.6016" y1="1.90588" x2="36.6016" y2="32.3735" gradientUnits="userSpaceOnUse">
<stop stop-color="#69AB26"/>
<stop offset="1" stop-color="#175803"/>
</linearGradient>
<linearGradient id="paint1_linear_2623_3679" x1="27.5" y1="0" x2="27.5" y2="58" gradientUnits="userSpaceOnUse">
<stop stop-color="#69AB25"/>
<stop offset="1" stop-color="#155602"/>
</linearGradient>
</defs>
</svg>
