<svg width="3533" height="3641" viewBox="0 0 3533 3641" fill="none" xmlns="http://www.w3.org/2000/svg">
<path opacity="0.99" fill-rule="evenodd" clip-rule="evenodd" d="M2739.88 119.377C2746.22 120.17 2760.03 124.391 2770.6 128.792C2781.13 133.192 2796.68 140.944 2805.13 146.061C2813.57 151.152 2828.53 161.283 2838.38 168.549C2848.22 175.815 2864.8 189.681 2875.18 199.403C2885.59 209.1 2902.75 228.569 2913.32 242.64C2923.9 256.711 2938.1 279.737 2944.85 293.808C2951.63 307.879 2959.99 329.19 2963.42 341.138C2966.85 353.086 2970.94 374.96 2972.47 389.748C2974.5 409.166 2974.5 424.056 2972.47 443.474C2970.97 458.261 2967.05 480.698 2963.83 493.362C2960.61 506.026 2954.78 524.447 2950.86 534.297C2946.97 544.146 2938.76 562.285 2932.65 574.591C2924.7 590.581 2922.42 597.386 2924.7 598.41C2926.46 599.177 2945.16 596.977 2966.26 593.498C2987.36 590.018 3014.98 585.643 3027.64 583.801C3040.97 581.857 3073.84 580.45 3105.65 580.424C3145.68 580.399 3168.65 581.627 3190.06 584.953C3206.25 587.434 3230.98 592.346 3245.05 595.877C3259.12 599.382 3282.72 606.341 3297.48 611.355C3312.24 616.37 3335.23 625.836 3348.56 632.385C3363.32 639.651 3374.83 647.147 3377.97 651.573C3381.27 656.178 3383.52 664.135 3384.11 673.319C3384.65 681.276 3383.68 694.119 3381.94 701.871C3380.22 709.623 3374.57 725.152 3369.35 736.409C3364.16 747.666 3353.19 767.238 3344.95 779.902C3336.74 792.566 3322.98 811.575 3314.39 822.115C3305.79 832.681 3290.14 850.36 3279.58 861.463C3269.04 872.541 3250.04 890.296 3237.38 900.939C3224.71 911.557 3204 927.086 3191.34 935.401C3178.68 943.741 3150.46 959.424 3128.67 970.272C3106.88 981.119 3078.67 993.758 3066.01 998.363C3053.35 1002.97 3032.63 1009.49 3019.97 1012.84C3007.31 1016.22 2984.85 1020.85 2970.1 1023.15C2950.12 1026.25 2928.48 1027.17 2885.69 1026.79C2854.03 1026.48 2824.1 1026.07 2819.19 1025.87C2811.44 1025.56 2810.14 1026.35 2809.47 1031.9C2809.06 1035.41 2816.89 1063.63 2826.87 1094.58C2836.84 1125.54 2850.06 1171.59 2856.23 1196.92C2862.39 1222.25 2869.32 1253.33 2871.65 1266C2873.98 1278.66 2877.46 1298.79 2879.37 1310.77C2881.29 1322.74 2885.16 1352.67 2887.97 1377.29C2890.78 1401.9 2894.47 1444.49 2896.13 1471.95C2898.02 1502.9 2898.53 1545.14 2897.51 1583.24C2896.59 1617.01 2894.13 1663.06 2892.01 1685.57C2889.89 1708.09 2886.38 1739.73 2884.23 1755.93C2882.11 1772.12 2877.46 1800.9 2873.9 1819.89C2870.35 1838.87 2863.98 1868.83 2859.71 1886.41C2855.46 1903.98 2847.45 1931.92 2841.98 1948.45C2836.48 1964.97 2828.53 1985.42 2824.31 1993.86C2820.09 2002.3 2814.33 2011.51 2811.52 2014.32C2807.02 2018.83 2803 2019.44 2778.27 2019.44C2762.8 2019.44 2748.42 2018.85 2746.3 2018.16C2744.18 2017.47 2742.49 2015.45 2742.51 2013.69C2742.54 2011.92 2748.8 1994.37 2756.4 1974.67C2764.02 1954.97 2775.4 1920.99 2781.72 1899.2C2788.04 1877.4 2796.66 1842.86 2800.9 1822.45C2805.15 1802.03 2811.03 1768.08 2814 1746.97C2817.38 1722.85 2820.32 1682.45 2821.9 1638.24C2823.59 1591.01 2823.57 1543.48 2821.78 1493.69C2820.34 1452.89 2817.96 1406.25 2816.56 1390.08C2815.13 1373.91 2812.21 1345.69 2810.06 1327.4C2807.91 1309.1 2804.46 1283.21 2802.36 1269.83C2800.29 1256.45 2796.22 1233.43 2793.33 1218.67C2790.44 1203.9 2784.64 1177.99 2780.42 1161.1C2776.22 1144.22 2768.68 1117.74 2763.69 1102.26C2758.73 1086.78 2749.14 1060.3 2742.38 1043.42C2735.66 1026.53 2721.97 996.035 2712 975.619C2702.02 955.203 2693.81 936.22 2693.74 933.405C2693.64 928.954 2695.07 929.491 2704.61 937.524C2710.67 942.59 2721.95 949.958 2729.67 953.847C2737.4 957.761 2754.1 963.569 2766.76 966.741C2779.42 969.939 2803.59 973.981 2820.47 975.721C2838.78 977.614 2864.05 978.279 2883.13 977.358C2900.71 976.489 2928.92 973.419 2945.8 970.528C2962.68 967.611 2988.59 961.752 3003.35 957.48C3018.1 953.233 3040.56 945.634 3053.22 940.594C3065.88 935.554 3083.71 927.7 3092.87 923.146C3102.02 918.567 3120.41 908.205 3133.79 900.121C3147.17 892.036 3166.71 878.988 3177.27 871.16C3187.81 863.305 3212.11 841.303 3231.24 822.243C3250.37 803.183 3273.23 777.804 3282.03 765.831C3290.86 753.858 3301.06 738.891 3304.72 732.572C3308.4 726.252 3312.9 716.454 3314.77 710.825C3317.25 703.278 3317.43 698.417 3315.49 692.277C3314.03 687.698 3309.66 681.813 3305.79 679.204C3301.93 676.594 3287.25 670.198 3273.18 665.03C3259.12 659.862 3238.4 653.262 3227.14 650.371C3215.89 647.48 3194.02 642.875 3178.55 640.137C3162.56 637.297 3131.64 634.483 3106.93 633.639C3080.08 632.692 3051.23 633.306 3031.48 635.225C3013.88 636.939 2988 640.444 2973.93 643.028C2959.87 645.612 2936.85 650.627 2922.78 654.183C2908.71 657.739 2868.43 670.505 2833.26 682.53C2779.86 700.822 2765.74 704.685 2747.58 706.016C2735.63 706.885 2713.74 706.297 2698.98 704.685C2684.22 703.099 2666.37 700.362 2659.34 698.622C2652.3 696.908 2646.8 694.324 2647.11 692.917C2647.42 691.51 2657.19 689.028 2668.85 687.365C2680.49 685.728 2697.5 682.478 2706.65 680.125C2715.81 677.771 2733.07 671.81 2745.02 666.872C2756.96 661.96 2773.67 653.773 2782.11 648.733C2790.55 643.668 2803.8 634.713 2811.52 628.803C2819.24 622.894 2831.96 611.892 2839.73 604.32C2847.53 596.772 2858.81 583.085 2864.82 573.952C2870.83 564.818 2879.27 548.112 2883.57 536.855C2887.89 525.598 2894.39 504.875 2898.02 490.804C2903.88 468.162 2904.64 460.078 2904.75 420.448C2904.85 384.554 2903.9 371.864 2900.02 356.488C2897.33 345.922 2892.32 329.83 2888.89 320.671C2885.46 311.512 2880.32 299.436 2877.46 293.808C2874.59 288.179 2866.07 274.083 2858.5 262.468C2850.96 250.853 2836.71 233.302 2826.87 223.452C2817.02 213.602 2804.08 203.062 2787.22 194.491L2789.14 209.611C2790.21 217.926 2791.8 243.715 2792.69 266.945C2794 301.176 2793.49 313.277 2789.98 330.905C2787.6 342.852 2783.33 358.97 2780.49 366.722C2777.63 374.474 2771.36 388.264 2766.53 397.423C2761.7 406.582 2751.16 421.727 2743.08 431.117C2734.99 440.506 2722.05 453.247 2714.33 459.412C2706.6 465.604 2693.35 474.814 2684.91 479.905C2676.47 484.971 2660.92 492.595 2650.38 496.816C2639.82 501.037 2621.41 506.589 2609.46 509.173C2591.51 513.011 2576.37 513.804 2522.5 513.676C2468.97 513.574 2445.59 512.243 2392.06 506.359C2346.35 501.344 2308.09 498.812 2264.17 497.942C2215.99 496.97 2194.42 497.609 2170.82 500.705C2153.94 502.905 2129.2 507.561 2115.83 511.015C2102.45 514.495 2080.02 522.016 2065.95 527.773C2051.88 533.529 2030.02 544.479 2017.36 552.077C2004.7 559.701 1985.13 573.312 1973.88 582.369C1962.62 591.425 1944.31 608.464 1933.21 620.284C1922.08 632.078 1904.72 652.699 1894.61 666.054C1884.48 679.408 1869.98 700.72 1862.33 713.384C1854.69 726.048 1844.76 745.62 1840.29 756.876C1835.81 768.133 1830.08 784.84 1827.55 793.973C1823.56 808.454 1822.97 822.064 1822.89 898.867C1822.84 961.675 1821.87 990.816 1819.54 999.923C1817.78 1006.96 1813.84 1020.77 1810.82 1030.62C1807.8 1040.47 1798.19 1062.91 1789.47 1080.51C1780.72 1098.09 1764.4 1126.31 1753.17 1143.19C1741.94 1160.08 1721.92 1186.56 1708.67 1202.04C1695.42 1217.51 1670.33 1243.43 1652.94 1259.6C1635.53 1275.79 1613.77 1296.17 1587.66 1320.75L1599.17 1332.41C1605.49 1338.81 1615.85 1346.82 1622.19 1350.22C1628.51 1353.62 1641.17 1358.3 1650.33 1360.66C1661.81 1363.57 1677.64 1364.9 1701.48 1364.9C1722.53 1364.9 1750.49 1362.86 1773.1 1359.66C1793.48 1356.77 1820.54 1353.19 1833.2 1351.7C1850.62 1349.66 1859.96 1349.76 1871.57 1352.16C1880.06 1353.93 1893.77 1359.53 1902.26 1364.7C1910.7 1369.84 1922.49 1379.95 1928.48 1387.19C1934.46 1394.4 1940.01 1403.48 1940.83 1407.35C1941.65 1411.21 1941.96 1414.66 1941.47 1415.02C1941.01 1415.38 1929.12 1409.75 1915.05 1402.54C1894.15 1391.79 1886.43 1389.16 1872.85 1388.16C1863.69 1387.47 1847.58 1388.31 1837.04 1390.03C1826.48 1391.74 1801.74 1396.99 1782.05 1401.69C1762.35 1406.37 1736.44 1411.59 1724.5 1413.28C1711.84 1415.07 1690.46 1415.82 1673.35 1415.02C1651.61 1414.02 1638.61 1411.95 1623.47 1407.09C1612.22 1403.46 1596.1 1396.32 1587.66 1391.23C1579.22 1386.11 1563.98 1374.57 1553.77 1365.54C1543.57 1356.51 1532.93 1349.14 1530.12 1349.14C1527.3 1349.14 1522.67 1351.73 1519.83 1354.9C1516.97 1358.07 1513.36 1364.67 1511.8 1369.61C1510.04 1375.14 1509.47 1388.39 1510.34 1404.15C1511.16 1419.09 1515.64 1447.28 1521.06 1471.95C1527 1498.83 1531.29 1526.7 1532.85 1548.7C1534.23 1567.68 1537.53 1590.71 1540.22 1599.87C1542.9 1609.02 1549.04 1622.25 1553.83 1629.29C1560.17 1638.6 1566.61 1644.18 1577.48 1649.75C1590.37 1656.38 1595.11 1657.4 1611.78 1657.25C1623.52 1657.15 1639.69 1654.74 1652.88 1651.14C1668.33 1646.94 1681.66 1645.2 1698.92 1645.15C1716.11 1645.1 1729.95 1646.81 1746.24 1650.98C1758.9 1654.23 1783.07 1661.96 1799.95 1668.17C1816.83 1674.39 1841 1682.58 1853.66 1686.36C1873.87 1692.4 1881.06 1693.25 1912.49 1693.25C1940.01 1693.25 1951.85 1692.15 1963.64 1688.51C1972.08 1685.93 1987.05 1679.79 1996.89 1674.88C2006.74 1669.94 2021.7 1661.22 2030.14 1655.49C2038.58 1649.73 2053.55 1638.09 2063.39 1629.62C2073.24 1621.15 2096.82 1598.28 2115.83 1578.78C2138.86 1555.15 2151.23 1544.19 2152.91 1545.91C2154.62 1547.61 2148.01 1562.16 2133.09 1589.53C2120.79 1612.09 2110.71 1631.72 2110.71 1633.12C2110.71 1634.53 2116.47 1636.83 2123.5 1638.24C2130.53 1639.65 2147.21 1640.8 2160.59 1640.8C2173.96 1640.8 2198.41 1639.01 2214.94 1636.86C2231.46 1634.69 2254.2 1630.59 2265.45 1627.78C2276.71 1624.94 2297.42 1618.59 2311.49 1613.63C2325.56 1608.69 2346.28 1600.3 2357.53 1594.98C2368.78 1589.68 2386.05 1580.42 2395.89 1574.36C2405.74 1568.32 2423.01 1556.19 2434.26 1547.42C2445.51 1538.62 2465.13 1520.63 2477.84 1507.46C2490.55 1494.26 2509.38 1470.79 2519.69 1455.32C2530.02 1439.84 2543.96 1415.66 2550.69 1401.59C2557.41 1387.52 2567.54 1362.19 2573.19 1345.31C2578.85 1328.42 2586.37 1299.64 2589.95 1281.35C2593.5 1263.05 2597.11 1243.48 2597.95 1237.85C2598.9 1231.3 2600.33 1228.54 2601.87 1230.18C2603.2 1231.59 2605.57 1243.1 2607.19 1255.76C2608.85 1268.91 2609.41 1290.86 2608.54 1306.93C2607.67 1322.41 2605.19 1345.43 2602.99 1358.1C2600.82 1370.76 2595.52 1393.22 2591.28 1407.99C2587.01 1422.75 2577.49 1447.51 2570.12 1462.99C2562.76 1478.47 2550.87 1499.76 2543.7 1510.32C2536.52 1520.86 2524.5 1536.72 2516.98 1545.53C2509.46 1554.35 2492.96 1570.83 2480.3 1582.19C2467.64 1593.52 2445.18 1610.92 2430.42 1620.84C2415.67 1630.77 2392.34 1644.48 2378.63 1651.34C2364.92 1658.22 2340.16 1668.35 2323.64 1673.88C2307.12 1679.41 2282.08 1686.26 2268.01 1689.13C2253.94 1691.99 2232.07 1695.52 2219.41 1696.98C2206.75 1698.41 2166.19 1699.62 2062.12 1699.64L2041.01 1717.73C2029.4 1727.68 2013.01 1740.42 2004.57 1746.05C1996.13 1751.66 1976.56 1762.43 1961.09 1769.95C1945.61 1777.44 1923.74 1786.47 1912.49 1790.01C1901.24 1793.51 1883.1 1798.22 1872.21 1800.47C1861.31 1802.69 1840.59 1805.79 1826.17 1807.33C1811.74 1808.84 1789.59 1809.35 1776.93 1808.45C1764.27 1807.56 1743.55 1805.05 1730.89 1802.9C1718.23 1800.72 1697.52 1795.48 1684.86 1791.23C1672.2 1786.96 1653.19 1779.16 1642.65 1773.86C1632.09 1768.59 1613.98 1757.77 1602.37 1749.86C1590.6 1741.83 1578.43 1735.46 1574.88 1735.46C1571.35 1735.46 1546.33 1744.85 1519.25 1756.34C1492.16 1767.82 1464.25 1778.75 1457.22 1780.62C1444.59 1783.94 1443.9 1783.79 1400.29 1769.31C1376.01 1761.25 1356.55 1753.5 1357.01 1752.09C1357.5 1750.68 1364.12 1747.38 1371.74 1744.75C1379.37 1742.09 1401.13 1733.82 1420.13 1726.35C1439.11 1718.88 1466.74 1707.19 1481.52 1700.33C1496.28 1693.48 1509.24 1686.49 1510.29 1684.8C1511.37 1683.09 1509.55 1677.49 1506.2 1672.14C1502.88 1666.87 1497.12 1656.51 1493.41 1649.11C1489.68 1641.72 1484.36 1627.34 1481.54 1617.13C1478.76 1606.93 1474.18 1579.01 1471.34 1555.09C1468.53 1531.17 1463.41 1494.33 1459.96 1473.23C1456.51 1452.12 1452.44 1423.34 1450.88 1409.27C1448.86 1390.97 1448.83 1378.59 1450.8 1365.77C1452.28 1355.92 1456.84 1340.96 1460.88 1332.51C1466.22 1321.36 1472 1314.27 1481.93 1306.6C1489.45 1300.76 1505.36 1291.76 1517.33 1286.57C1529.27 1281.35 1544.82 1273.8 1551.86 1269.78C1558.89 1265.77 1570.96 1257.78 1578.71 1252.03C1586.44 1246.3 1602.91 1231.53 1615.31 1219.25C1627.69 1206.97 1644.96 1187.94 1653.68 1176.99C1662.37 1166.01 1677.31 1144.7 1686.83 1129.66C1696.34 1114.59 1710.92 1089.01 1719.18 1072.84C1727.44 1056.67 1738.23 1033.05 1743.15 1020.39C1748.06 1007.73 1753.63 990.304 1755.55 981.682C1758.59 967.995 1758.54 965.411 1755.19 961.548C1751.79 957.608 1747.37 957.224 1716.83 958.273C1697.82 958.938 1666.75 958.452 1647.77 957.224C1628.77 955.97 1599.43 952.184 1582.55 948.807C1565.67 945.404 1541.5 938.983 1528.84 934.557C1516.18 930.105 1493.72 920.332 1478.96 912.785C1464.18 905.237 1444.05 893.725 1434.2 887.15C1424.35 880.575 1408.29 868.729 1398.52 860.824C1388.75 852.893 1370.49 836.059 1357.93 823.395C1345.37 810.731 1325.6 787.705 1313.99 772.227C1302.38 756.748 1287.24 734.311 1280.36 722.338C1273.48 710.365 1266.26 694.835 1264.35 687.8C1261.61 677.797 1261.48 672.91 1263.76 665.414C1265.37 660.144 1270.41 651.829 1274.99 646.917C1279.56 642.03 1290.2 633.946 1298.64 628.957C1307.08 623.968 1321.46 617.112 1330.62 613.709C1339.75 610.306 1355.3 605.19 1365.14 602.324C1374.99 599.484 1394.56 594.751 1408.63 591.86C1422.69 588.944 1446.86 584.697 1462.34 582.394C1480.91 579.631 1508.3 578.147 1542.9 578.045C1581.27 577.943 1603.21 579.12 1624.75 582.471C1640.91 585.004 1669.69 590.453 1688.69 594.598C1707.67 598.742 1723.78 601.557 1724.5 600.84C1725.19 600.098 1717.44 583.111 1707.26 563.078C1697.08 543.021 1685.93 518 1682.45 507.433C1679 496.893 1674.29 479.624 1672.02 469.058C1669.74 458.517 1667.23 437.206 1666.41 421.727C1665.37 401.567 1666.13 386.345 1669.15 368.001C1671.45 353.93 1676.85 332.056 1681.1 319.392C1685.37 306.728 1693.53 287.745 1699.23 277.178C1704.93 266.638 1716.11 248.883 1724.09 237.779C1732.05 226.65 1747.19 208.793 1757.75 198.073C1768.29 187.353 1784.12 173.129 1792.92 166.477C1806.06 156.525 1810.85 154.35 1819.77 154.299C1827.02 154.231 1832.03 155.723 1834.79 158.776C1837.06 161.283 1839.6 166.784 1840.44 171.005C1841.26 175.227 1840.64 197.101 1839.08 219.615C1836.94 250.494 1836.96 266.843 1839.24 286.133C1840.9 300.204 1844.58 319.187 1847.45 328.346C1850.34 337.505 1856.17 351.883 1860.44 360.326C1864.71 368.769 1873 381.868 1878.83 389.466C1884.69 397.039 1896.4 409.703 1904.84 417.608C1913.31 425.488 1928.27 437.257 1938.09 443.755C1947.94 450.253 1966.61 460.896 1979.63 467.42C1992.65 473.944 2007.61 479.982 2012.88 480.801C2019.22 481.798 2027.23 480.647 2036.54 477.347C2044.26 474.609 2062.12 467.702 2076.18 461.971C2090.25 456.24 2114.98 448.616 2131.17 445.009C2147.57 441.376 2175.86 437.513 2195.12 436.259C2214.09 435.031 2248.62 434.929 2271.85 436.029C2295.04 437.103 2328.42 439.841 2346.02 442.118C2363.59 444.369 2391.8 448.59 2408.68 451.507C2425.56 454.398 2457.79 461.331 2480.3 466.909C2513.78 475.198 2525.88 477.04 2546.8 477.142C2566.36 477.219 2576.57 475.914 2590.28 471.59C2600.13 468.469 2615.09 462.431 2623.53 458.184C2631.97 453.938 2645.22 446.109 2652.94 440.787C2660.67 435.492 2673.56 424.414 2681.56 416.201C2689.57 407.989 2700.23 394.353 2705.27 385.91C2710.31 377.467 2717.19 363.089 2720.54 353.93C2723.92 344.771 2728.22 330.981 2730.08 323.229C2732.26 314.352 2733.46 294.064 2733.38 268.224C2733.31 238.444 2731.67 217.184 2727.4 190.193C2724.15 169.777 2721.34 147.238 2721.1 140.049C2720.87 131.708 2722.1 125.389 2724.53 122.498C2727.52 118.942 2730.82 118.277 2739.88 119.377ZM1769.26 271.013C1762.92 282.142 1753.2 302.199 1747.65 315.554C1742.1 328.909 1734.99 350.22 1731.84 362.884C1727.26 381.33 1726.11 393.278 1726.06 423.007C1726.03 453.579 1727.01 463.711 1731.69 480.57C1734.81 491.827 1741.48 509.659 1746.5 520.225C1751.51 530.766 1761 547.344 1767.57 557.041C1774.12 566.737 1789.57 584.313 1801.87 596.056C1814.17 607.825 1829.14 619.849 1835.12 622.817L1845.99 628.164C1877.32 593.088 1899.5 570.242 1915.48 554.764C1931.47 539.285 1944.51 524.6 1944.51 522.144C1944.49 519.407 1939.76 515.262 1932.31 511.476C1925.64 508.047 1912.67 499.937 1903.54 493.439C1894.38 486.941 1878.86 474.405 1869.01 465.578C1859.16 456.752 1843.79 439.815 1834.84 427.97C1825.89 416.099 1814.1 397.167 1808.65 385.91C1803.2 374.653 1795.89 353.93 1792.38 339.859C1788.88 325.788 1784.84 299.999 1783.4 282.525L1780.79 250.776L1769.26 271.013ZM1449.55 640.342C1439.7 641.954 1421.29 645.638 1408.63 648.554C1395.96 651.471 1377.55 657.509 1367.7 661.935C1357.85 666.386 1346.63 673.166 1342.76 677.003C1338.9 680.841 1335.73 686.265 1335.73 689.079C1335.73 691.893 1340 700.822 1345.22 708.907C1350.44 716.991 1363.51 734.567 1374.25 747.922C1385.02 761.302 1406.35 784.123 1421.67 798.655C1437.02 813.187 1459.32 832.17 1471.29 840.817C1483.23 849.465 1504.54 862.512 1518.61 869.804C1532.67 877.07 1555.41 886.612 1569.12 890.962C1582.83 895.311 1604.7 900.53 1617.72 902.577C1630.74 904.598 1652.88 907.003 1666.95 907.873C1681.02 908.768 1705.19 908.256 1720.66 906.696C1736.14 905.161 1749.95 902.705 1751.36 901.246C1752.76 899.762 1753.63 889.708 1753.27 878.886C1752.92 868.064 1753.89 847.136 1755.42 832.349C1756.96 817.587 1761.38 794.561 1765.27 781.181C1769.13 767.826 1776.11 748.255 1780.77 737.688C1785.4 727.148 1792.2 714.151 1795.86 708.804C1801.69 700.285 1802.13 698.34 1799.31 692.814C1797.37 689.002 1789.82 683.63 1780.13 679.178C1771.33 675.11 1754.94 668.74 1743.68 664.979C1732.43 661.218 1714.58 655.948 1704.04 653.236C1693.48 650.55 1671.61 646.073 1655.44 643.31C1639.25 640.572 1615.08 637.63 1601.73 636.786C1588.35 635.941 1568.79 634.841 1558.25 634.355C1547.69 633.869 1522.95 634.355 1503.26 635.455C1483.57 636.555 1459.4 638.756 1449.55 640.342ZM1652.76 1691.56C1649.18 1693.12 1646 1695.29 1645.7 1696.39C1645.42 1697.47 1658.13 1705.5 1673.96 1714.25C1689.79 1722.98 1711.38 1733.11 1721.94 1736.77C1735.14 1741.32 1751.48 1744.34 1774.38 1746.38C1807.42 1749.33 1807.88 1749.3 1849.83 1740.88C1873.03 1736.23 1896.04 1730.63 1900.98 1728.42L1909.93 1724.38C1880.19 1721.11 1868.68 1719.04 1865.17 1717.65C1861.64 1716.3 1851.87 1713.48 1843.43 1711.41C1834.99 1709.36 1820.03 1705.37 1810.18 1702.56C1800.34 1699.75 1780.77 1693.3 1766.7 1688.26C1743.48 1679.92 1738.77 1679.1 1715.55 1679.3C1699.05 1679.46 1684.52 1681.17 1674.63 1684.11C1666.18 1686.62 1656.34 1689.97 1652.76 1691.56Z" fill="url(#paint0_linear_2524_9555)"/>
<path d="M131.052 1637.31C119.867 1799.32 125.26 1885.03 167.607 2043.97C670.466 2017.56 1016.35 2028.92 1670.35 2213.83L2045.72 2108.78C1330.11 1717.13 584.454 1562.36 131.052 1637.31Z" fill="#2DAD56"/>
<path d="M1565.6 2244.23C1021.29 2120.48 713.748 2075.67 180.508 2106.32C242.294 2374.51 319.714 2513.3 489.535 2739.36C928.504 2494.61 1165.45 2389.8 1565.6 2244.23Z" fill="#B6D438"/>
<path d="M3103.05 2616.5C3216.36 2427.62 3269.63 2312.56 3319 2112.16C2481 1973.94 1611.37 2202.46 538.991 2786.66C1515.22 2540.02 2157.44 2511.01 3103.05 2616.5Z" fill="#B6D438"/>
<path d="M584.454 2843.48C1616.28 2579.03 2147.25 2591.59 3058.82 2675.16C2509.88 3474.36 1258.46 3587.93 584.454 2843.48Z" fill="#FAE54E"/>
<path d="M1789.66 0.685069C1793.77 0.787683 1793.77 0.787683 1797.97 0.890296C1836.71 1.91643 1875.11 4.48176 1913.63 8.50933C1921.84 9.35589 1930.02 10.1511 1938.21 10.9721C1967.5 13.8965 1996.48 17.5393 2025.44 22.7982C2030.81 23.7731 2036.17 24.7222 2041.53 25.6714C2095.6 35.1375 2149.05 45.3732 2201.84 60.5599C2207.69 62.2274 2213.54 63.8179 2219.41 65.4084C2367.88 105.966 2512.4 166.713 2643.83 246.957C2641.21 273.765 2629.93 287.746 2610.48 305.96C2608.82 305.036 2607.15 304.138 2605.43 303.189C2597.71 298.982 2589.99 294.775 2582.27 290.568C2579.73 289.182 2577.22 287.797 2574.6 286.386C2483.18 236.619 2390.56 194.265 2292.42 159.736C2290.72 159.146 2289.06 158.556 2287.31 157.94C2206 129.439 2122.15 109.07 2037.27 94.5762C2028.83 93.1396 2020.39 91.6261 2011.95 90.1126C1976.79 83.9301 1941.54 80.39 1905.96 77.5168C1904.17 77.3629 1902.35 77.2346 1900.47 77.0807C1895.52 76.6702 1890.57 76.2854 1885.62 75.9263C1876.88 75.0797 1876.88 75.0797 1869.62 73.797C1858.54 72.0526 1847.51 71.5909 1836.3 71.1291C1833.83 71.0265 1831.35 70.8982 1828.81 70.7956C1669.62 64.3823 1513.92 78.2351 1358.73 113.56C1354.24 114.586 1354.24 114.586 1349.68 115.612C1225.07 144.267 1103.36 190.751 989.775 249.24C983.491 252.472 977.181 255.653 970.87 258.834C875.501 307.396 783.8 367.297 701.411 435.663C695.152 440.845 688.842 445.95 682.532 451.055C648.929 478.632 616.02 507.082 585.521 538.071C579.288 544.356 572.875 550.231 566.181 555.977C555.818 564.904 546.532 574.576 537.272 584.606C534.784 587.3 534.784 587.3 532.27 590.019C528.91 593.636 525.55 597.279 522.19 600.922C517.778 605.693 513.34 610.439 508.877 615.185C495.128 629.884 481.918 644.814 469.324 660.514C464.168 666.876 458.91 673.084 453.574 679.292C413.149 726.366 376.648 777.211 342.969 829.287C341.225 831.955 341.225 831.955 339.455 834.7C264.529 950.628 204.815 1073.97 158.284 1203.83C157.592 1205.78 156.899 1207.7 156.181 1209.7C146.536 1236.76 139.175 1264.47 131.813 1292.23C130.299 1297.85 128.786 1303.49 127.273 1309.11C124.733 1318.47 122.271 1327.83 119.808 1337.22C119.347 1338.97 118.859 1340.71 118.372 1342.51C96.7228 1422.83 85.4622 1505.36 76.9975 1587.98C76.6897 1590.96 76.3819 1593.96 76.0741 1597.04C71.5339 1643.63 70.5592 1689.98 70.5848 1736.77C70.5848 1739.78 70.5848 1742.8 70.5848 1745.91C70.6618 1792.06 71.8673 1837.67 76.2023 1883.64C76.5614 1887.62 76.8948 1891.59 77.2539 1895.57C97.4923 2127.55 167.698 2349.97 358.359 2686.59C360.18 2689.23 360.18 2689.23 362.053 2691.92C378.315 2715.29 394.886 2738.41 412.226 2760.98C413.816 2763.06 413.816 2763.06 415.458 2765.19C430.95 2785.33 447.008 2804.85 463.655 2824.04C468.503 2829.63 473.274 2835.25 477.994 2840.94C502.644 2870.7 529.09 2898.72 556.715 2925.7C559.537 2928.47 562.359 2931.27 565.206 2934.04C570.772 2939.5 576.364 2944.92 582.007 2950.3C584.598 2952.84 587.188 2955.36 589.753 2957.9C593.216 2961.23 593.216 2961.23 596.756 2964.64C603.22 2972.85 604.631 2976.24 604.605 2986.73C602.425 2996.66 599.27 3006.18 596.064 3015.82C595.114 3018.77 594.165 3021.7 593.191 3024.75C590.523 3032.91 587.855 3041.07 585.136 3049.22C582.853 3056.2 580.571 3063.18 578.288 3070.16C543.813 3175.77 507.877 3280.92 472.12 3386.13C469.606 3393.44 467.118 3400.75 464.63 3408.09C464.04 3409.83 463.45 3411.58 462.834 3413.37C461.68 3416.84 460.5 3420.27 459.32 3423.74C456.524 3431.97 453.728 3440.21 450.907 3448.47C447.854 3457.37 444.827 3466.3 441.775 3475.22C440.903 3477.81 440.005 3480.4 439.082 3483.07C438.286 3485.46 437.466 3487.82 436.645 3490.28C435.593 3493.33 435.593 3493.33 434.542 3496.46C432.669 3502.65 431.361 3508.83 430.181 3515.19C452.087 3504.26 473.992 3493.33 495.872 3482.41C506.055 3477.33 516.239 3472.25 526.396 3467.17C581.007 3440.03 581.007 3440.03 635.078 3411.91C653.624 3402.06 672.4 3392.7 691.176 3383.31C692.869 3382.49 694.536 3381.64 696.28 3380.77C710.234 3373.82 724.188 3366.86 738.142 3359.91C777.593 3340.31 816.941 3320.64 855.827 3299.93C864.626 3295.29 873.449 3290.75 882.273 3286.18C883.94 3285.34 885.608 3284.49 887.326 3283.59C893.944 3280.18 900.562 3276.79 907.206 3273.38C910.566 3271.66 913.9 3269.94 917.261 3268.2C920.518 3266.53 923.75 3264.87 927.008 3263.2C936.858 3258.14 946.451 3252.73 956.019 3247.16C966.843 3241.26 974.282 3238.47 986.799 3240.7C993.135 3243.29 998.676 3245.91 1004.6 3249.19C1008.24 3251.12 1011.89 3253.01 1015.53 3254.89C1017.5 3255.91 1019.48 3256.94 1021.5 3257.99C1098.1 3296.98 1180.54 3328.74 1263.65 3350.73C1272.19 3353.01 1280.6 3355.6 1288.99 3358.37C1313.69 3366.45 1338.78 3372.12 1364.17 3377.61C1371.46 3379.2 1378.74 3380.87 1386.03 3382.54C1436.22 3393.9 1486.83 3401.47 1537.85 3408.22C1541.96 3408.76 1546.09 3409.29 1550.22 3409.86C1614.55 3418.53 1678.96 3421.25 1743.83 3421.09C1749.37 3421.07 1754.91 3421.07 1760.45 3421.07C1820.01 3420.97 1879.21 3419.3 1938.44 3412.58C1941.59 3412.22 1944.77 3411.86 1948.03 3411.5C1968.88 3409.01 1989.56 3405.86 2010.26 3402.32C2012.05 3402.01 2013.85 3401.7 2015.7 3401.39C2092.42 3388.44 2168.45 3372.99 2242.27 3348.03C2249.73 3345.57 2257.25 3343.31 2264.76 3341.03C2375.22 3307.22 2482.54 3257.71 2582.27 3199.65C2585.76 3197.63 2585.76 3197.63 2589.32 3195.58C2622.95 3176.05 2655.37 3154.92 2687.44 3132.96C2689.33 3131.67 2691.23 3130.36 2693.18 3129.03C2733.86 3101.07 2773.62 3071.49 2810.97 3039.17C2818.05 3033.09 2825.26 3027.21 2832.52 3021.36C2845.32 3010.95 2857.45 2999.94 2869.5 2988.71C2875.1 2983.53 2880.84 2978.5 2886.61 2973.52C2898.1 2963.49 2908.93 2952.9 2919.73 2942.12C2921.75 2940.09 2923.78 2938.09 2925.86 2936.02C2930.12 2931.78 2934.35 2927.52 2938.61 2923.29C2945.02 2916.88 2951.46 2910.46 2957.92 2904.08C2978.39 2883.66 2997.96 2863.31 3015.76 2840.51C3019.87 2835.79 3024.13 2831.27 3028.44 2826.71C3041.03 2813.01 3052.34 2798.51 3063.53 2783.63C3067.32 2778.61 3071.14 2773.63 3075.02 2768.65C3127.55 2700.75 3173.9 2628.77 3215.35 2553.58C3218.63 2547.68 3221.97 2541.8 3225.33 2535.95C3260.06 2474.51 3287.74 2409.46 3312.7 2343.5C3315.82 2335.27 3319.01 2327.08 3322.19 2318.87C3333.32 2290.12 3343.01 2261.36 3351.04 2231.58C3353.15 2223.85 3355.46 2216.29 3358.07 2208.72C3408.27 2060.85 3422.28 1894.7 3422.02 1739.67C3421.99 1737.9 3421.99 1736.13 3421.99 1734.31C3421.97 1669.92 3419.09 1606.35 3410.78 1542.45C3410.32 1538.88 3410.32 1538.88 3409.86 1535.24C3400.68 1463.98 3387.83 1393.94 3369.74 1324.4C3369.26 1322.5 3368.74 1320.57 3368.25 1318.62C3338.29 1203.98 3296.59 1092.16 3241.77 987.03C3238.92 980.642 3238.92 980.642 3238.92 972.946C3240.72 972.048 3242.52 971.15 3244.36 970.201C3259.24 962.48 3271.53 954.604 3283.4 942.726C3284.81 941.7 3286.22 940.674 3287.66 939.597C3295.36 942.162 3295.36 942.162 3299.61 949.319C3301.2 952.577 3302.79 955.861 3304.33 959.145C3305.21 960.992 3306.1 962.813 3307 964.711C3308.95 968.739 3310.9 972.792 3312.82 976.845C3315.85 983.182 3318.98 989.441 3322.14 995.726C3355.35 1062.55 3382.72 1132.84 3405.65 1203.83C3406.6 1206.78 3407.58 1209.73 3408.55 1212.75C3422.92 1257.26 3435.79 1302 3446.69 1347.48C3447.41 1350.43 3448.13 1353.36 3448.87 1356.39C3460.8 1405.87 3468.57 1455.82 3475.71 1506.23C3476.14 1509.28 3476.58 1512.33 3477.04 1515.49C3487.07 1585.98 3491.17 1655.61 3490.97 1726.72C3490.94 1736.57 3490.97 1746.39 3490.99 1756.22C3491.12 1804.91 3489.45 1853.06 3485.17 1901.6C3484.81 1905.98 3484.45 1910.4 3484.07 1914.78C3483.12 1926.17 3482.02 1937.54 3480.84 1948.9C3480.63 1950.9 3480.43 1952.88 3480.22 1954.96C3475.47 2000.13 3467.14 2044.49 3457.98 2088.94C3456.47 2096.36 3455.03 2103.77 3453.57 2111.18C3443.18 2163.77 3430.07 2215.67 3412.4 2266.28C3410.12 2272.98 3408.12 2279.78 3406.14 2286.55C3357.4 2445.86 3279.07 2602.34 3182.49 2737.89C3180.39 2740.9 3178.26 2743.9 3176.16 2746.92C3150.87 2782.74 3124.34 2817.47 3096.46 2851.33C3093.1 2855.41 3089.79 2859.54 3086.48 2863.67C3074.38 2878.71 3061.68 2893.02 3048.52 2907.16C3043.16 2912.95 3037.93 2918.88 3032.74 2924.83C3023.61 2935.3 3014.23 2945.51 3004.71 2955.64C3003.02 2957.41 3001.35 2959.18 2999.63 2961.03C2981.7 2980.06 2963.64 2998.71 2943.74 3015.72C2938.58 3020.29 2933.81 3025.08 2929.04 3030.03C2919.14 3040.09 2908.42 3048.81 2897.41 3057.64C2889.97 3063.77 2882.89 3070.16 2875.81 3076.67C2863.04 3088.37 2849.86 3099.22 2836.21 3109.87C2832.77 3112.59 2829.31 3115.31 2825.87 3118.05C2801.53 3137.21 2776.78 3155.56 2751.31 3173.18C2746.95 3176.21 2742.61 3179.29 2738.28 3182.34C2670.79 3229.95 2599.02 3270.66 2525.27 3307.68C2520.84 3309.89 2516.4 3312.12 2511.99 3314.38C2440.16 3350.39 2365.75 3378.82 2289.85 3404.88C2285.26 3406.47 2280.64 3408.09 2276.05 3409.7C2255.25 3416.86 2234.39 3422.89 2213 3427.99C2204.02 3430.15 2195.2 3432.61 2186.35 3435.15C2097.88 3460.57 2005.46 3473.81 1914.04 3483.46C1909.25 3483.97 1904.45 3484.48 1899.65 3485.05C1851.25 3490.67 1802.39 3490.05 1753.75 3490.02C1752.01 3490.02 1750.26 3490.02 1748.47 3490.02C1674.83 3490 1601.65 3489.05 1528.75 3477.58C1519.67 3476.22 1510.53 3475.27 1501.4 3474.3C1435.17 3466.78 1369.15 3453.31 1305.15 3434.64C1297.56 3432.48 1289.89 3430.53 1282.22 3428.56C1189.52 3404.75 1098.97 3371.63 1012.94 3329.61C1011.14 3328.74 1009.35 3327.87 1007.47 3326.97C1002.99 3324.79 998.496 3322.53 994.033 3320.25C976.95 3314.12 959.148 3326.54 943.835 3333.69C942.27 3334.41 940.731 3335.13 939.115 3335.87C906.462 3351.14 874.424 3367.61 842.412 3384.15C813.529 3399.06 784.519 3413.73 755.431 3428.28C753.635 3429.17 751.814 3430.07 749.967 3431C731.781 3440.1 713.569 3449.16 695.383 3458.21C688.483 3461.65 681.583 3465.09 674.708 3468.53C670.04 3470.86 665.371 3473.17 660.677 3475.48C643.389 3484.12 626.229 3492.97 609.145 3502C584.88 3514.83 560.384 3527.22 535.836 3539.48C531.424 3541.69 527.038 3543.9 522.626 3546.1C513.545 3550.64 504.44 3555.18 495.359 3559.72C483.688 3565.55 472.043 3571.4 460.372 3577.22C451.343 3581.74 442.314 3586.25 433.285 3590.77C429.001 3592.92 424.692 3595.07 420.382 3597.23C414.431 3600.21 408.455 3603.18 402.478 3606.18C400.708 3607.06 398.938 3607.95 397.117 3608.85C383.445 3615.65 373.775 3618.86 358.359 3617.8C346.739 3613.49 342.481 3606.23 336.813 3595.82C331.99 3576.35 341.686 3555.98 347.971 3537.74C349.946 3531.97 351.895 3526.2 353.845 3520.42C356.102 3513.73 358.359 3507.06 360.616 3500.39C367.799 3479.17 374.904 3457.93 381.958 3436.67C383.138 3433.07 384.343 3429.51 385.523 3425.94C386.113 3424.15 386.703 3422.35 387.319 3420.5C388.216 3417.81 388.217 3417.81 389.14 3415.04C389.73 3413.24 390.346 3411.42 390.961 3409.55C407.968 3358.4 425 3307.24 442.519 3256.25C459.628 3206.53 476.249 3156.66 492.871 3106.76C495.103 3100.12 497.334 3093.45 499.54 3086.81C503.054 3076.26 506.568 3065.72 510.083 3055.18C511.391 3051.22 512.725 3047.27 514.033 3043.32C515.854 3037.88 517.675 3032.42 519.471 3026.98C521.01 3022.36 521.01 3022.36 522.574 3017.64C525.524 3008.72 525.524 3008.72 527.653 2999.56C525.011 2994.86 525.011 2994.86 520.599 2990.58C518.932 2988.78 517.239 2986.99 515.521 2985.14C513.597 2983.11 511.673 2981.11 509.698 2979.04C505.363 2974.29 501.028 2969.52 496.719 2964.77C488.818 2956.15 480.867 2947.59 472.864 2939.07C452.061 2916.96 431.823 2894.48 412.226 2871.29C410.789 2869.6 409.378 2867.93 407.891 2866.19C383.369 2837.12 360.334 2807.03 337.839 2776.37C336.659 2774.76 335.453 2773.14 334.248 2771.47C286.23 2706.03 243.316 2636.62 205.379 2564.91C201.967 2558.48 198.479 2552.06 194.99 2545.65C146.305 2455.58 110.985 2360.02 79.4086 2262.87C76.5358 2254.07 73.586 2245.3 70.6362 2236.55C57.2722 2196.48 48.5509 2155.13 39.8041 2113.88C39.1628 2110.85 39.1628 2110.85 38.4959 2107.75C32.4936 2079.5 27.5175 2051.21 23.2082 2022.65C22.0026 2014.86 20.6687 2007.08 19.3349 1999.28C-5.95661 1850.39 -4.2637 1694.73 11.9218 1545.02C12.127 1543.12 12.3322 1541.22 12.5374 1539.27C15.0768 1515.95 18.5654 1493.07 23.0543 1470.06C25.2859 1458.36 27.0558 1446.63 28.8257 1434.86C40.8815 1356.31 61.4019 1279.14 86.4626 1203.83C87.0269 1202.11 87.5911 1200.41 88.1811 1198.64C106.265 1144.39 126.76 1091.64 150.589 1039.64C151.41 1037.85 152.231 1036.05 153.077 1034.21C190.399 952.834 230.645 873.155 280.51 798.58C284.178 793.065 287.82 787.524 291.462 781.983C326.45 728.932 363.771 677.984 404.53 629.191C405.608 627.909 406.685 626.601 407.788 625.292C422.742 607.284 438.081 589.762 454.036 572.626C459.217 567.033 464.219 561.313 469.196 555.541C478.379 545.023 488.023 535.069 497.899 525.193C499.643 523.449 501.413 521.704 503.208 519.908C506.876 516.24 510.544 512.571 514.212 508.903C519.779 503.336 525.345 497.77 530.885 492.203C534.476 488.611 538.067 485.02 541.659 481.428C543.3 479.787 544.942 478.145 546.609 476.477C556.459 466.703 566.565 457.391 577.056 448.336C582.751 443.41 588.317 438.331 593.858 433.251C604.81 423.401 616.02 413.986 627.46 404.725C633.231 400.056 638.951 395.361 644.671 390.616C668.167 371.196 692.382 353.033 717.263 335.41C722.085 331.972 726.907 328.483 731.704 324.994C791.29 281.563 855.084 243.186 920.108 208.477C922.75 207.066 925.392 205.655 928.111 204.193C1046.1 141.342 1171.74 89.856 1301.79 57.9433C1312.02 55.4036 1322.13 52.5304 1332.26 49.5547C1351.5 44.0392 1370.89 39.5755 1390.49 35.471C1392.31 35.0862 1394.13 34.7014 1396 34.3166C1436.38 25.9023 1476.85 18.745 1517.77 13.5117C1520.02 13.2295 1522.28 12.9217 1524.62 12.6395C1613.06 1.48032 1700.58 -1.54677 1789.66 0.685069Z" fill="url(#paint1_linear_2524_9555)"/>
<defs>
<linearGradient id="paint0_linear_2524_9555" x1="2323.21" y1="118.893" x2="2323.21" y2="2019.44" gradientUnits="userSpaceOnUse">
<stop stop-color="#69AB26"/>
<stop offset="1" stop-color="#175803"/>
</linearGradient>
<linearGradient id="paint1_linear_2524_9555" x1="1745.5" y1="0" x2="1745.5" y2="3618" gradientUnits="userSpaceOnUse">
<stop stop-color="#69AB25"/>
<stop offset="1" stop-color="#155602"/>
</linearGradient>
</defs>
</svg>
