<svg width="214" height="59" viewBox="0 0 214 59" fill="none" xmlns="http://www.w3.org/2000/svg">
<path opacity="0.99" fill-rule="evenodd" clip-rule="evenodd" d="M43.1661 1.91377C43.2661 1.92649 43.4837 1.99416 43.6501 2.0647C43.8161 2.13524 44.0611 2.25951 44.1941 2.34154C44.3271 2.42316 44.5628 2.58557 44.7179 2.70205C44.8731 2.81853 45.1342 3.04082 45.2978 3.19667C45.4618 3.35211 45.7322 3.66422 45.8986 3.8898C46.0654 4.11537 46.2891 4.48449 46.3954 4.71007C46.5022 4.93564 46.634 5.27728 46.688 5.46882C46.742 5.66035 46.8065 6.01101 46.8306 6.24807C46.8625 6.55936 46.8625 6.79806 46.8306 7.10935C46.8069 7.34641 46.7452 7.7061 46.6944 7.90911C46.6437 8.11213 46.5518 8.40743 46.4901 8.56533C46.4289 8.72323 46.2995 9.01402 46.2032 9.21129C46.0779 9.46763 46.0421 9.57672 46.0779 9.59313C46.1057 9.60543 46.4003 9.57016 46.7327 9.51438C47.0652 9.4586 47.5004 9.38847 47.6998 9.35894C47.9098 9.32777 48.4276 9.30521 48.9289 9.3048C49.5595 9.30439 49.9213 9.32408 50.2586 9.3774C50.5137 9.41718 50.9034 9.49592 51.125 9.55252C51.3466 9.60871 51.7185 9.72027 51.951 9.80065C52.1836 9.88104 52.5458 10.0328 52.7558 10.1378C52.9883 10.2543 53.1696 10.3744 53.2192 10.4454C53.2711 10.5192 53.3066 10.6468 53.3159 10.794C53.3243 10.9216 53.309 11.1274 53.2816 11.2517C53.2546 11.376 53.1656 11.6249 53.0834 11.8054C53.0016 11.9858 52.8287 12.2996 52.6989 12.5026C52.5696 12.7056 52.3528 13.0104 52.2174 13.1793C52.082 13.3487 51.8354 13.6321 51.669 13.8101C51.503 13.9877 51.2036 14.2723 51.0041 14.443C50.8046 14.6132 50.4782 14.8621 50.2788 14.9954C50.0793 15.1291 49.6348 15.3805 49.2915 15.5544C48.9482 15.7283 48.5037 15.9309 48.3043 16.0048C48.1048 16.0786 47.7784 16.1832 47.5789 16.2369C47.3795 16.291 47.0257 16.3653 46.7932 16.4022C46.4785 16.4518 46.1376 16.4666 45.4634 16.4604C44.9645 16.4555 44.4931 16.4489 44.4157 16.4457C44.2936 16.4407 44.2731 16.4534 44.2626 16.5424C44.2561 16.5986 44.3794 17.051 44.5366 17.5473C44.6937 18.0435 44.9021 18.7818 44.9992 19.1878C45.0963 19.5938 45.2055 20.0922 45.2422 20.2952C45.2788 20.4982 45.3336 20.821 45.3639 21.0129C45.3941 21.2048 45.4549 21.6847 45.4993 22.0793C45.5436 22.4738 45.6016 23.1567 45.6278 23.5968C45.6576 24.093 45.6657 24.7701 45.6496 25.3808C45.6351 25.9222 45.5964 26.6605 45.5629 27.0214C45.5295 27.3823 45.4743 27.8896 45.4404 28.1492C45.407 28.4089 45.3336 28.8703 45.2776 29.1746C45.2216 29.4789 45.1213 29.9592 45.054 30.2409C44.9871 30.5227 44.861 30.9706 44.7747 31.2355C44.6881 31.5005 44.5628 31.8281 44.4963 31.9635C44.4298 32.0988 44.3391 32.2465 44.2948 32.2916C44.2239 32.3638 44.1606 32.3736 43.771 32.3736C43.5272 32.3736 43.3007 32.3642 43.2673 32.3531C43.2338 32.342 43.2072 32.3096 43.2076 32.2813C43.208 32.253 43.3068 31.9717 43.4264 31.6559C43.5465 31.3401 43.7258 30.7954 43.8254 30.446C43.9249 30.0966 44.0607 29.5429 44.1276 29.2156C44.1945 28.8883 44.2872 28.3441 44.3339 28.0057C44.3871 27.6189 44.4334 26.9713 44.4584 26.2626C44.485 25.5055 44.4846 24.7435 44.4564 23.9454C44.4338 23.2912 44.3964 22.5435 44.3742 22.2843C44.3516 22.0251 44.3057 21.5727 44.2719 21.2795C44.238 20.9862 44.1836 20.5712 44.1506 20.3567C44.1179 20.1422 44.0539 19.7731 44.0083 19.5364C43.9628 19.2998 43.8713 18.8843 43.8048 18.6136C43.7387 18.3429 43.6199 17.9184 43.5413 17.6703C43.4631 17.4222 43.312 16.9977 43.2056 16.727C43.0996 16.4563 42.8841 15.9674 42.7269 15.6401C42.5698 15.3129 42.4404 15.0085 42.4392 14.9634C42.4376 14.8921 42.4601 14.9007 42.6105 15.0295C42.706 15.1107 42.8837 15.2288 43.0054 15.2911C43.127 15.3539 43.3902 15.447 43.5896 15.4978C43.7891 15.5491 44.1699 15.6139 44.4359 15.6418C44.7244 15.6721 45.1225 15.6828 45.4231 15.668C45.6999 15.6541 46.1444 15.6049 46.4104 15.5585C46.6763 15.5118 47.0845 15.4179 47.317 15.3494C47.5495 15.2813 47.9033 15.1595 48.1028 15.0787C48.3022 14.9979 48.5831 14.872 48.7274 14.799C48.8716 14.7255 49.1614 14.5594 49.3721 14.4298C49.5829 14.3002 49.8907 14.0911 50.0571 13.9656C50.2232 13.8397 50.606 13.4869 50.9074 13.1814C51.2088 12.8758 51.569 12.469 51.7077 12.277C51.8467 12.0851 52.0075 11.8452 52.0651 11.7439C52.1231 11.6426 52.194 11.4855 52.2234 11.3953C52.2625 11.2743 52.2654 11.1963 52.2347 11.0979C52.2118 11.0245 52.1429 10.9302 52.082 10.8883C52.0212 10.8465 51.7899 10.744 51.5682 10.6611C51.3466 10.5783 51.0202 10.4725 50.8429 10.4261C50.6656 10.3798 50.3211 10.3059 50.0773 10.2621C49.8254 10.2165 49.3383 10.1714 48.949 10.1579C48.5259 10.1427 48.0714 10.1525 47.7603 10.1833C47.483 10.2108 47.0752 10.267 46.8536 10.3084C46.632 10.3498 46.2693 10.4302 46.0477 10.4872C45.8261 10.5442 45.1914 10.7489 44.6373 10.9416C43.796 11.2349 43.5735 11.2968 43.2874 11.3182C43.0992 11.3321 42.7543 11.3227 42.5218 11.2968C42.2893 11.2714 42.008 11.2275 41.8972 11.1996C41.7864 11.1721 41.6998 11.1307 41.7046 11.1082C41.7094 11.0856 41.8634 11.0458 42.0471 11.0192C42.2305 10.9929 42.4984 10.9408 42.6427 10.9031C42.7869 10.8654 43.0589 10.7698 43.2471 10.6906C43.4353 10.6119 43.6984 10.4807 43.8314 10.3999C43.9644 10.3187 44.1731 10.1751 44.2948 10.0804C44.4165 9.98562 44.6168 9.80927 44.7393 9.68787C44.8622 9.56688 45.0399 9.34746 45.1346 9.20104C45.2293 9.05462 45.3623 8.7868 45.43 8.60634C45.4981 8.42588 45.6004 8.09367 45.6576 7.8681C45.7499 7.50513 45.762 7.37553 45.7636 6.74023C45.7652 6.16481 45.7503 5.96139 45.6891 5.7149C45.6467 5.54551 45.5678 5.28754 45.5138 5.14071C45.4598 4.99388 45.3788 4.8003 45.3336 4.71007C45.2885 4.61984 45.1543 4.39385 45.0351 4.20765C44.9162 4.02145 44.6917 3.7401 44.5366 3.5822C44.3815 3.4243 44.1776 3.25532 43.912 3.11793L43.9422 3.36031C43.9592 3.49361 43.9841 3.90702 43.9982 4.27943C44.0188 4.82819 44.0107 5.02218 43.9555 5.30476C43.9181 5.49629 43.8508 5.75468 43.806 5.87895C43.7609 6.00322 43.6622 6.22428 43.586 6.37111C43.5099 6.51794 43.3438 6.76074 43.2165 6.91126C43.0892 7.06178 42.8853 7.26602 42.7636 7.36487C42.6419 7.46412 42.4331 7.61177 42.3002 7.69338C42.1672 7.77459 41.9222 7.89681 41.7562 7.96448C41.5898 8.03216 41.2996 8.12115 41.1114 8.16258C40.8286 8.2241 40.59 8.23681 39.7414 8.23476C38.898 8.23312 38.5297 8.21179 37.6863 8.11746C36.9662 8.03708 36.3634 7.99647 35.6715 7.98253C34.9123 7.96694 34.5726 7.9772 34.2007 8.02682C33.9347 8.06209 33.5451 8.13674 33.3343 8.19211C33.1236 8.24789 32.7702 8.36846 32.5486 8.46075C32.3269 8.55303 31.9824 8.72856 31.7829 8.85037C31.5835 8.97259 31.2752 9.19078 31.0979 9.33597C30.9206 9.48116 30.6321 9.75431 30.4572 9.94379C30.2819 10.1329 30.0083 10.4634 29.8491 10.6775C29.6896 10.8916 29.4611 11.2333 29.3406 11.4363C29.2201 11.6393 29.0638 11.953 28.9932 12.1335C28.9227 12.314 28.8325 12.5818 28.7926 12.7282C28.7297 12.9603 28.7204 13.1785 28.7192 14.4097C28.7184 15.4166 28.7031 15.8838 28.6664 16.0298C28.6386 16.1426 28.5766 16.364 28.529 16.5219C28.4815 16.6798 28.33 17.0395 28.1926 17.3217C28.0548 17.6035 27.7977 18.0558 27.6208 18.3265C27.4439 18.5972 27.1284 19.0217 26.9196 19.2698C26.7109 19.518 26.3156 19.9334 26.0416 20.1926C25.7673 20.4521 25.4245 20.7789 25.0132 21.1729L25.1946 21.3599C25.2941 21.4624 25.4573 21.5908 25.5572 21.6453C25.6567 21.6999 25.8562 21.7749 26.0005 21.8127C26.1814 21.8594 26.4308 21.8808 26.8064 21.8808C27.138 21.8808 27.5785 21.8479 27.9347 21.7967C28.2558 21.7503 28.6822 21.6929 28.8816 21.6691C29.156 21.6363 29.3031 21.638 29.4861 21.6765C29.6199 21.7048 29.8358 21.7946 29.9696 21.8775C30.1026 21.9599 30.2884 22.1219 30.3827 22.238C30.4769 22.3536 30.5644 22.4992 30.5773 22.5612C30.5902 22.6231 30.595 22.6785 30.5874 22.6842C30.5801 22.6899 30.3927 22.5997 30.1711 22.4841C29.8419 22.3118 29.7202 22.2696 29.5062 22.2536C29.362 22.2425 29.1081 22.256 28.9421 22.2835C28.7757 22.311 28.386 22.3951 28.0757 22.4705C27.7654 22.5456 27.3572 22.6292 27.1691 22.6563C26.9696 22.685 26.6327 22.6969 26.3631 22.6842C26.0206 22.6682 25.8159 22.635 25.5774 22.5571C25.4001 22.4988 25.1462 22.3844 25.0132 22.3028C24.8802 22.2208 24.6401 22.0358 24.4793 21.891C24.3185 21.7462 24.1509 21.6281 24.1066 21.6281C24.0622 21.6281 23.9893 21.6695 23.9446 21.7204C23.8994 21.7712 23.8426 21.8771 23.818 21.9562C23.7902 22.0448 23.7814 22.2573 23.7951 22.5099C23.808 22.7494 23.8785 23.2014 23.9639 23.5968C24.0574 24.0278 24.1251 24.4744 24.1497 24.8272C24.1714 25.1315 24.2234 25.5006 24.2657 25.6474C24.308 25.7943 24.4048 26.0063 24.4801 26.1191C24.58 26.2684 24.6816 26.3578 24.8528 26.4472C25.0559 26.5534 25.1305 26.5698 25.3932 26.5674C25.5782 26.5657 25.8328 26.5272 26.0408 26.4693C26.2842 26.4021 26.4941 26.3742 26.7661 26.3734C27.0369 26.3725 27.2549 26.4 27.5116 26.4669C27.711 26.519 28.0918 26.6428 28.3578 26.7425C28.6237 26.8421 29.0045 26.9734 29.204 27.0341C29.5223 27.1309 29.6356 27.1444 30.1308 27.1444C30.5644 27.1444 30.751 27.1268 30.9367 27.0685C31.0697 27.0271 31.3054 26.9287 31.4606 26.8499C31.6157 26.7708 31.8514 26.6309 31.9844 26.5391C32.1174 26.4468 32.3531 26.2602 32.5083 26.1244C32.6634 25.9887 33.0349 25.622 33.3343 25.3095C33.6973 24.9305 33.892 24.7548 33.9186 24.7825C33.9455 24.8098 33.8414 25.0429 33.6063 25.4817C33.4125 25.8435 33.2537 26.158 33.2537 26.1806C33.2537 26.2032 33.3444 26.2401 33.4552 26.2626C33.566 26.2852 33.8288 26.3036 34.0395 26.3036C34.2503 26.3036 34.6355 26.2749 34.8958 26.2405C35.1561 26.2056 35.5143 26.14 35.6916 26.0949C35.8689 26.0494 36.1953 25.9476 36.417 25.8681C36.6386 25.7889 36.965 25.6544 37.1423 25.5691C37.3196 25.4842 37.5916 25.3357 37.7467 25.2385C37.9019 25.1417 38.1739 24.9473 38.3512 24.8066C38.5285 24.6656 38.8375 24.3772 39.0378 24.166C39.2381 23.9544 39.5347 23.5783 39.6971 23.3302C39.8599 23.082 40.0795 22.6945 40.1854 22.4689C40.2914 22.2433 40.451 21.8373 40.54 21.5666C40.6291 21.2959 40.7476 20.8345 40.804 20.5413C40.86 20.248 40.9168 19.9343 40.9301 19.844C40.945 19.739 40.9676 19.6947 40.9918 19.721C41.0127 19.7435 41.0502 19.9281 41.0756 20.1311C41.1018 20.3419 41.1106 20.6938 41.0969 20.9514C41.0832 21.1995 41.0441 21.5686 41.0095 21.7717C40.9752 21.9747 40.8918 22.3348 40.8249 22.5714C40.7576 22.8081 40.6077 23.2051 40.4917 23.4532C40.3756 23.7013 40.1883 24.0426 40.0754 24.212C39.9622 24.3809 39.7728 24.6352 39.6543 24.7763C39.5359 24.9178 39.276 25.1819 39.0765 25.364C38.877 25.5457 38.5232 25.8246 38.2907 25.9837C38.0582 26.1429 37.6907 26.3627 37.4747 26.4726C37.2587 26.5829 36.8687 26.7454 36.6084 26.8339C36.3481 26.9225 35.9536 27.0324 35.7319 27.0784C35.5103 27.1243 35.1658 27.1809 34.9663 27.2043C34.7668 27.2273 34.1278 27.2465 32.4881 27.2469L32.1557 27.5369C31.9727 27.6965 31.7144 27.9007 31.5815 27.9909C31.4485 28.0808 31.1402 28.2534 30.8964 28.374C30.6526 28.4942 30.3081 28.6389 30.1308 28.6955C29.9535 28.7517 29.6678 28.8272 29.4961 28.8633C29.3245 28.899 28.9981 28.9486 28.7708 28.9732C28.5435 28.9974 28.1946 29.0056 27.9951 28.9913C27.7957 28.9769 27.4693 28.9367 27.2698 28.9023C27.0703 28.8674 26.7439 28.7833 26.5445 28.7152C26.345 28.6467 26.0456 28.5216 25.8796 28.4367C25.7132 28.3523 25.4279 28.1788 25.2449 28.052C25.0596 27.9233 24.8678 27.8211 24.8117 27.8211C24.7561 27.8211 24.362 27.9717 23.9353 28.1558C23.5086 28.34 23.0689 28.5151 22.9581 28.545C22.7591 28.5983 22.7482 28.5959 22.0611 28.3637C21.6787 28.2346 21.3721 28.1103 21.3793 28.0877C21.387 28.0652 21.4914 28.0123 21.6114 27.97C21.7315 27.9274 22.0744 27.7949 22.3738 27.6751C22.6728 27.5554 23.108 27.3679 23.3409 27.258C23.5734 27.1481 23.7777 27.0361 23.7943 27.0091C23.8112 26.9816 23.7826 26.8918 23.7298 26.8061C23.6774 26.7216 23.5867 26.5555 23.5283 26.4369C23.4695 26.3184 23.3857 26.0879 23.3413 25.9243C23.2974 25.7606 23.2253 25.3132 23.1806 24.9297C23.1362 24.5462 23.0556 23.9556 23.0012 23.6173C22.9468 23.2789 22.8828 22.8175 22.8582 22.5919C22.8264 22.2987 22.826 22.1002 22.857 21.8947C22.8804 21.7368 22.9521 21.4969 23.0158 21.3615C23.1 21.1827 23.191 21.0691 23.3474 20.9461C23.4659 20.8525 23.7165 20.7082 23.9051 20.6249C24.0933 20.5413 24.3383 20.4203 24.4491 20.3559C24.5599 20.2915 24.7501 20.1635 24.8722 20.0712C24.9939 19.9794 25.2534 19.7427 25.4488 19.5459C25.6439 19.349 25.9158 19.0439 26.0533 18.8683C26.1903 18.6924 26.4256 18.3507 26.5755 18.1096C26.7254 17.868 26.9551 17.4579 27.0852 17.1987C27.2154 16.9395 27.3854 16.5609 27.4628 16.3579C27.5402 16.1549 27.628 15.8756 27.6582 15.7373C27.7062 15.5179 27.7054 15.4765 27.6526 15.4146C27.599 15.3514 27.5293 15.3453 27.0482 15.3621C26.7488 15.3727 26.2592 15.3649 25.9602 15.3453C25.6608 15.3252 25.1986 15.2645 24.9326 15.2103C24.6667 15.1558 24.2859 15.0528 24.0864 14.9819C23.8869 14.9105 23.5332 14.7538 23.3006 14.6329C23.0677 14.5119 22.7506 14.3273 22.5955 14.2219C22.4403 14.1165 22.1873 13.9266 22.0333 13.7999C21.8794 13.6727 21.5917 13.4029 21.3938 13.1998C21.196 12.9968 20.8845 12.6277 20.7016 12.3796C20.5186 12.1314 20.2801 11.7718 20.1717 11.5798C20.0633 11.3879 19.9496 11.1389 19.9194 11.0261C19.8763 10.8658 19.8743 10.7874 19.9101 10.6673C19.9355 10.5828 20.0149 10.4495 20.087 10.3707C20.1592 10.2924 20.3268 10.1628 20.4598 10.0828C20.5928 10.0029 20.8192 9.89293 20.9635 9.83839C21.1073 9.78384 21.3523 9.70181 21.5075 9.65588C21.6626 9.61035 21.9709 9.53448 22.1925 9.48813C22.4141 9.44138 22.7949 9.37329 23.0387 9.33638C23.3313 9.29209 23.7628 9.2683 24.308 9.26666C24.9125 9.26502 25.2582 9.28388 25.5975 9.33761C25.8522 9.37822 26.3055 9.46557 26.6049 9.53202C26.9039 9.59846 27.1578 9.64357 27.1691 9.63209C27.1799 9.62019 27.0578 9.34787 26.8975 9.02673C26.7371 8.70519 26.5614 8.30407 26.5066 8.13469C26.4522 7.96571 26.378 7.68887 26.3422 7.51949C26.3063 7.35051 26.2668 7.00887 26.2539 6.76074C26.2374 6.43755 26.2495 6.19352 26.297 5.89946C26.3333 5.67388 26.4183 5.32322 26.4852 5.1202C26.5525 4.91718 26.6811 4.61286 26.7709 4.44348C26.8608 4.2745 27.0369 3.98987 27.1626 3.81187C27.2879 3.63346 27.5265 3.34719 27.6929 3.17534C27.8589 3.0035 28.1084 2.77546 28.247 2.66883C28.4541 2.50929 28.5294 2.47442 28.6701 2.4736C28.7842 2.47251 28.8631 2.49644 28.9066 2.54538C28.9425 2.58557 28.9824 2.67375 28.9957 2.74142C29.0086 2.80909 28.9989 3.15976 28.9743 3.52068C28.9405 4.01571 28.9409 4.27779 28.9767 4.58703C29.0029 4.8126 29.0609 5.11692 29.1061 5.26375C29.1516 5.41058 29.2435 5.64107 29.3108 5.77642C29.3781 5.91176 29.5086 6.12175 29.6005 6.24356C29.6928 6.36496 29.8773 6.56798 30.0103 6.69471C30.1437 6.82103 30.3794 7.00969 30.5342 7.11386C30.6893 7.21804 30.9835 7.38865 31.1886 7.49324C31.3937 7.59782 31.6294 7.69461 31.7124 7.70774C31.8124 7.72373 31.9385 7.70528 32.0852 7.65237C32.2068 7.60849 32.4881 7.49775 32.7097 7.40588C32.9314 7.31401 33.321 7.19179 33.5761 7.13396C33.8344 7.07572 34.2801 7.01379 34.5835 6.9937C34.8825 6.97401 35.4265 6.97237 35.7924 6.99C36.1579 7.00723 36.6837 7.05111 36.961 7.08762C37.2378 7.12371 37.6823 7.19138 37.9482 7.23813C38.2142 7.28448 38.7219 7.39563 39.0765 7.48504C39.604 7.61792 39.7946 7.64745 40.1242 7.64909C40.4325 7.65032 40.5932 7.6294 40.8092 7.56009C40.9644 7.51005 41.2001 7.41326 41.3331 7.34518C41.466 7.2771 41.6748 7.1516 41.7965 7.06629C41.9182 6.98139 42.1213 6.8038 42.2474 6.67215C42.3735 6.5405 42.5415 6.32189 42.6209 6.18655C42.7003 6.05121 42.8087 5.82071 42.8615 5.67388C42.9147 5.52705 42.9824 5.30599 43.0118 5.18172C43.046 5.0394 43.065 4.71417 43.0638 4.29993C43.0626 3.82254 43.0368 3.48171 42.9695 3.04902C42.9183 2.72174 42.874 2.36041 42.8704 2.24516C42.8667 2.11146 42.8861 2.01015 42.9244 1.96381C42.9715 1.9068 43.0235 1.89614 43.1661 1.91377ZM27.8742 4.34464C27.7743 4.52305 27.6212 4.84459 27.5337 5.05868C27.4463 5.27277 27.3343 5.61441 27.2847 5.81743C27.2126 6.11314 27.1944 6.30467 27.1936 6.78125C27.1932 7.27136 27.2085 7.43377 27.2823 7.70405C27.3314 7.88451 27.4366 8.17037 27.5156 8.33976C27.5946 8.50873 27.7441 8.7745 27.8476 8.92994C27.9508 9.08538 28.1942 9.36714 28.388 9.55539C28.5818 9.74406 28.8176 9.93682 28.9119 9.98439L29.0831 10.0701C29.5767 9.50782 29.9261 9.14157 30.1779 8.89344C30.4298 8.64531 30.6353 8.40989 30.6353 8.37052C30.6349 8.32663 30.5604 8.26019 30.4431 8.19949C30.3379 8.14453 30.1336 8.01452 29.9898 7.91034C29.8455 7.80617 29.6009 7.6052 29.4458 7.46371C29.2906 7.32221 29.0485 7.0507 28.9074 6.86081C28.7664 6.67051 28.5806 6.36701 28.4948 6.18655C28.409 6.00609 28.2937 5.67388 28.2385 5.44831C28.1833 5.22273 28.1196 4.80932 28.0971 4.5292L28.056 4.02022L27.8742 4.34464ZM22.8372 10.2653C22.6821 10.2912 22.392 10.3502 22.1925 10.397C21.993 10.4437 21.7029 10.5405 21.5478 10.6115C21.3926 10.6829 21.2157 10.7915 21.1549 10.8531C21.094 10.9146 21.0441 11.0015 21.0441 11.0466C21.0441 11.0918 21.1114 11.2349 21.1936 11.3645C21.2758 11.4941 21.4817 11.7759 21.6509 11.99C21.8206 12.2045 22.1566 12.5703 22.398 12.8032C22.6398 13.0362 22.9912 13.3405 23.1798 13.4791C23.3679 13.6178 23.7036 13.8269 23.9252 13.9438C24.1469 14.0603 24.5051 14.2133 24.7211 14.283C24.9371 14.3527 25.2816 14.4364 25.4867 14.4692C25.6918 14.5016 26.0408 14.5402 26.2624 14.5541C26.484 14.5685 26.8648 14.5603 27.1086 14.5352C27.3524 14.5106 27.57 14.4713 27.5922 14.4479C27.6143 14.4241 27.628 14.2629 27.6224 14.0894C27.6167 13.9159 27.6321 13.5805 27.6562 13.3434C27.6804 13.1067 27.7501 12.7376 27.8114 12.5231C27.8722 12.309 27.9822 11.9953 28.0556 11.8259C28.1285 11.6569 28.2357 11.4486 28.2933 11.3629C28.3852 11.2263 28.392 11.1951 28.3477 11.1065C28.3171 11.0454 28.1982 10.9593 28.0455 10.8879C27.9069 10.8227 27.6486 10.7206 27.4713 10.6603C27.294 10.6 27.0127 10.5155 26.8467 10.472C26.6803 10.429 26.3357 10.3572 26.0811 10.3129C25.826 10.269 25.4452 10.2219 25.2348 10.2083C25.0241 10.1948 24.7158 10.1772 24.5498 10.1694C24.3834 10.1616 23.9937 10.1694 23.6835 10.187C23.3732 10.2046 22.9924 10.2399 22.8372 10.2653ZM26.0388 27.1173C25.9823 27.1424 25.9324 27.1772 25.9275 27.1949C25.9231 27.2121 26.1234 27.3409 26.3728 27.4811C26.6222 27.621 26.9623 27.7834 27.1288 27.8421C27.3367 27.9151 27.5942 27.9635 27.9548 27.9963C28.4754 28.0434 28.4827 28.043 29.1436 27.9081C29.509 27.8334 29.8717 27.7436 29.9495 27.7084L30.0905 27.6435C29.6219 27.5911 29.4405 27.5578 29.3853 27.5357C29.3297 27.5139 29.1758 27.4688 29.0428 27.4356C28.9098 27.4028 28.6741 27.3388 28.519 27.2937C28.3638 27.2486 28.0556 27.1452 27.8339 27.0644C27.468 26.9307 27.3939 26.9176 27.028 26.9209C26.7681 26.9234 26.5392 26.9508 26.3833 26.998C26.2503 27.0382 26.0952 27.0919 26.0388 27.1173Z" fill="white"/>
<path d="M2.0647 26.2476C1.88849 28.8447 1.97345 30.2189 2.64061 32.7668C10.5631 32.3434 16.0125 32.5255 26.316 35.4897L32.23 33.8058C20.9557 27.5272 9.20796 25.0462 2.0647 26.2476Z" fill="#2DAD56"/>
<path d="M24.6657 35.9772C16.0902 33.9934 11.245 33.2749 2.84387 33.7664C3.8173 38.0657 5.03703 40.2905 7.71252 43.9145C14.6284 39.991 18.3615 38.3107 24.6657 35.9772Z" fill="#B6D438"/>
<path d="M48.8879 41.9449C50.6731 38.917 51.5123 37.0725 52.2902 33.8599C39.0877 31.6442 25.3868 35.3075 8.4917 44.6728C23.872 40.7189 33.99 40.2539 48.8879 41.9449Z" fill="#B6D438"/>
<path d="M9.20796 45.5837C25.4642 41.3442 33.8295 41.5456 48.191 42.8854C39.5426 55.6974 19.8268 57.5179 9.20796 45.5837Z" fill="#FAE54E"/>
<path d="M28.1958 0.0109823C28.2605 0.0126273 28.2605 0.0126273 28.3267 0.0142723C28.937 0.0307222 29.5419 0.0718469 30.1489 0.136413C30.2782 0.149984 30.4071 0.162733 30.5361 0.175892C30.9976 0.222775 31.4542 0.281172 31.9105 0.365477C31.9949 0.381105 32.0794 0.396321 32.1639 0.411537C33.0157 0.563287 33.8579 0.727375 34.6896 0.970834C34.7817 0.997565 34.8739 1.02306 34.9664 1.04856C37.3055 1.69874 39.5823 2.67258 41.653 3.95896C41.6118 4.38871 41.434 4.61284 41.1276 4.90483C41.1014 4.89002 41.0751 4.87563 41.048 4.86041C40.9264 4.79297 40.8048 4.72552 40.6831 4.65808C40.6431 4.63587 40.6035 4.61366 40.5623 4.59104C39.122 3.79322 37.6627 3.11425 36.1166 2.56072C36.0899 2.55126 36.0636 2.5418 36.0361 2.53193C34.7551 2.07503 33.434 1.7485 32.0968 1.51615C31.9638 1.49312 31.8309 1.46885 31.6979 1.44459C31.1439 1.34548 30.5886 1.28873 30.0281 1.24267C29.9998 1.2402 29.9711 1.23814 29.9416 1.23568C29.8636 1.2291 29.7856 1.22293 29.7076 1.21717C29.5698 1.2036 29.5698 1.2036 29.4554 1.18304C29.2809 1.15507 29.1071 1.14767 28.9305 1.14027C28.8917 1.13862 28.8525 1.13657 28.8125 1.13492C26.3045 1.03211 23.8515 1.25418 21.4066 1.82047C21.3359 1.83692 21.3359 1.83692 21.2639 1.85337C19.3007 2.31273 17.3831 3.05791 15.5937 3.99556C15.4947 4.04737 15.3953 4.09837 15.2959 4.14936C13.7933 4.92786 12.3486 5.88812 11.0506 6.98409C10.952 7.06716 10.8526 7.149 10.7532 7.23084C10.2238 7.67293 9.70527 8.129 9.22477 8.62579C9.12657 8.72655 9.02554 8.82072 8.92006 8.91284C8.7568 9.05596 8.6105 9.211 8.46462 9.37179C8.42542 9.41497 8.42542 9.41497 8.38581 9.45857C8.33287 9.51655 8.27993 9.57495 8.22699 9.63335C8.15748 9.70984 8.08757 9.78592 8.01726 9.862C7.80065 10.0976 7.59253 10.337 7.3941 10.5887C7.31287 10.6907 7.23003 10.7902 7.14597 10.8897C6.50908 11.6443 5.93401 12.4594 5.4034 13.2943C5.37592 13.337 5.37592 13.337 5.34804 13.381C4.1676 15.2395 3.22681 17.2167 2.49374 19.2985C2.48283 19.3297 2.47191 19.3606 2.4606 19.3927C2.30865 19.8265 2.19267 20.2707 2.07668 20.7156C2.05284 20.8057 2.029 20.8962 2.00515 20.9862C1.96515 21.1363 1.92635 21.2864 1.88756 21.437C1.88028 21.4649 1.8726 21.4929 1.86493 21.5217C1.52385 22.8093 1.34644 24.1323 1.21308 25.4569C1.20823 25.5046 1.20338 25.5527 1.19853 25.6021C1.127 26.3489 1.11165 27.092 1.11205 27.8421C1.11205 27.8903 1.11205 27.9388 1.11205 27.9885C1.11326 28.7284 1.13226 29.4596 1.20055 30.1965C1.20621 30.2603 1.21146 30.324 1.21712 30.3878C1.53597 34.1067 2.64205 37.6722 5.64588 43.0686C5.67457 43.1109 5.67457 43.1109 5.70407 43.1541C5.96028 43.5288 6.22134 43.8993 6.49453 44.2612C6.51959 44.2945 6.51959 44.2945 6.54545 44.3286C6.78954 44.6515 7.04252 44.9644 7.30479 45.272C7.38117 45.3617 7.45634 45.4518 7.53069 45.5431C7.91905 46.0201 8.3357 46.4692 8.77094 46.9018C8.81539 46.9462 8.85985 46.9911 8.9047 47.0355C8.9924 47.1231 9.0805 47.2098 9.1694 47.2962C9.21022 47.3369 9.25103 47.3772 9.29145 47.4179C9.346 47.4714 9.346 47.4714 9.40177 47.5261C9.50361 47.6577 9.52584 47.712 9.52543 47.8802C9.49108 48.0393 9.44138 48.1919 9.39086 48.3465C9.37591 48.3938 9.36096 48.4407 9.3456 48.4896C9.30357 48.6204 9.26154 48.7512 9.21871 48.882C9.18274 48.9938 9.14677 49.1057 9.1108 49.2175C8.56767 50.9107 8.00149 52.5964 7.43815 54.2829C7.39855 54.4001 7.35935 54.5173 7.32015 54.6349C7.31085 54.6629 7.30156 54.6908 7.29186 54.7196C7.27367 54.7751 7.25508 54.8302 7.23649 54.8858C7.19244 55.0178 7.1484 55.1498 7.10394 55.2822C7.05585 55.4249 7.00817 55.568 6.96008 55.7111C6.94634 55.7527 6.93219 55.7942 6.91764 55.837C6.90511 55.8752 6.89218 55.9131 6.87925 55.9525C6.86268 56.0015 6.86268 56.0015 6.84611 56.0517C6.81661 56.1508 6.796 56.2499 6.77741 56.3519C7.12253 56.1767 7.46765 56.0015 7.81237 55.8263C7.9728 55.7449 8.13324 55.6634 8.29327 55.582C9.15364 55.1469 9.15364 55.1469 10.0055 54.6962C10.2977 54.5383 10.5935 54.3882 10.8893 54.2376C10.916 54.2245 10.9423 54.2109 10.9698 54.1969C11.1896 54.0855 11.4094 53.974 11.6293 53.8626C12.2508 53.5484 12.8707 53.233 13.4834 52.9011C13.622 52.8267 13.761 52.7539 13.9 52.6807C13.9263 52.6671 13.9526 52.6535 13.9796 52.6391C14.0839 52.5844 14.1882 52.5301 14.2928 52.4754C14.3458 52.4479 14.3983 52.4203 14.4513 52.3924C14.5026 52.3656 14.5535 52.3389 14.6048 52.3122C14.76 52.2312 14.9111 52.1444 15.0619 52.0552C15.2324 51.9606 15.3496 51.9157 15.5468 51.9515C15.6466 51.9931 15.7339 52.035 15.8273 52.0876C15.8847 52.1185 15.9421 52.1489 15.9994 52.1789C16.0306 52.1954 16.0617 52.2118 16.0936 52.2287C17.3003 52.8538 18.5991 53.3629 19.9085 53.7154C20.0431 53.752 20.1756 53.7935 20.3078 53.8379C20.6969 53.9675 21.0922 54.0583 21.4922 54.1463C21.607 54.1718 21.7218 54.1986 21.8366 54.2253C22.6274 54.4075 23.4248 54.5288 24.2285 54.637C24.2932 54.6456 24.3583 54.6542 24.4233 54.6633C25.4369 54.8023 26.4516 54.8459 27.4736 54.8434C27.5609 54.843 27.6482 54.843 27.7355 54.843C28.6739 54.8414 29.6066 54.8146 30.5397 54.7069C30.5894 54.7011 30.6395 54.6954 30.6908 54.6896C31.0194 54.6497 31.3451 54.5991 31.6712 54.5424C31.6995 54.5374 31.7278 54.5325 31.7569 54.5276C32.9656 54.3199 34.1634 54.0723 35.3265 53.6722C35.4441 53.6327 35.5625 53.5965 35.6809 53.5599C37.4211 53.0179 39.1119 52.2242 40.6831 51.2935C40.7381 51.261 40.7381 51.261 40.7942 51.2281C41.3241 50.9152 41.8349 50.5763 42.34 50.2243C42.3699 50.2037 42.3998 50.1827 42.4305 50.1614C43.0715 49.7131 43.6979 49.2389 44.2863 48.7208C44.3978 48.6233 44.5114 48.5291 44.6257 48.4354C44.8274 48.2684 45.0185 48.092 45.2085 47.9118C45.2966 47.8288 45.3871 47.7482 45.478 47.6684C45.6591 47.5076 45.8296 47.3377 45.9997 47.165C46.0317 47.1325 46.0636 47.1004 46.0963 47.0671C46.1634 46.9993 46.2301 46.931 46.2972 46.8632C46.3982 46.7603 46.4996 46.6575 46.6015 46.5551C46.924 46.2278 47.2323 45.9017 47.5128 45.5361C47.5774 45.4604 47.6445 45.388 47.7124 45.3148C47.9108 45.0952 48.089 44.8628 48.2652 44.6243C48.325 44.5437 48.3852 44.4639 48.4463 44.3842C49.2739 43.2956 50.0042 42.1416 50.6572 40.9363C50.7089 40.8417 50.7615 40.7475 50.8144 40.6537C51.3616 39.6688 51.7976 38.6259 52.1909 37.5686C52.2402 37.4365 52.2903 37.3054 52.3404 37.1738C52.5158 36.7127 52.6685 36.2517 52.795 35.7743C52.8282 35.6505 52.8645 35.5292 52.9057 35.4079C53.6966 33.0374 53.9173 30.3738 53.9132 27.8886C53.9128 27.8602 53.9128 27.8319 53.9128 27.8027C53.9124 26.7704 53.8671 25.7514 53.7362 24.7269C53.7289 24.6698 53.7289 24.6698 53.7217 24.6114C53.577 23.4689 53.3745 22.3462 53.0896 21.2313C53.0819 21.2009 53.0739 21.1701 53.0662 21.1388C52.5942 19.3009 51.9371 17.5083 51.0735 15.823C51.0286 15.7206 51.0286 15.7206 51.0286 15.5973C51.0569 15.5829 51.0852 15.5685 51.1143 15.5533C51.3487 15.4295 51.5422 15.3032 51.7293 15.1128C51.7516 15.0964 51.7738 15.0799 51.7964 15.0626C51.9177 15.1038 51.9177 15.1038 51.9847 15.2185C52.0098 15.2707 52.0349 15.3234 52.0591 15.376C52.0728 15.4056 52.087 15.4348 52.1011 15.4652C52.1318 15.5298 52.1626 15.5948 52.1929 15.6598C52.2406 15.7613 52.2899 15.8617 52.3396 15.9624C52.8629 17.0337 53.2941 18.1606 53.6554 19.2985C53.6703 19.3458 53.6857 19.3931 53.701 19.4416C53.9274 20.1551 54.1302 20.8723 54.302 21.6015C54.3133 21.6488 54.3246 21.6956 54.3363 21.7442C54.5242 22.5375 54.6467 23.3382 54.759 24.1463C54.7659 24.1952 54.7728 24.2441 54.7801 24.2947C54.9381 25.4248 55.0027 26.541 54.9995 27.6809C54.9991 27.8389 54.9995 27.9964 54.9999 28.1539C55.0019 28.9344 54.9756 29.7063 54.9082 30.4844C54.9025 30.5547 54.8968 30.6255 54.8908 30.6958C54.8758 30.8784 54.8585 31.0606 54.8399 31.2427C54.8366 31.2748 54.8334 31.3065 54.8302 31.3398C54.7554 32.064 54.6241 32.7751 54.4798 33.4877C54.4559 33.6066 54.4333 33.7254 54.4103 33.8443C54.2466 34.6874 54.0401 35.5193 53.7617 36.3307C53.7257 36.438 53.6942 36.547 53.6631 36.6556C52.8952 39.2094 51.661 41.718 50.1395 43.8911C50.1064 43.9392 50.0729 43.9873 50.0397 44.0358C49.6413 44.6099 49.2234 45.1668 48.7841 45.7096C48.7312 45.775 48.679 45.8412 48.6269 45.9074C48.4362 46.1484 48.2361 46.3779 48.0288 46.6045C47.9444 46.6974 47.8619 46.7924 47.7803 46.8878C47.6364 47.0556 47.4885 47.2193 47.3386 47.3817C47.3119 47.4101 47.2856 47.4385 47.2586 47.4681C46.9761 47.7732 46.6916 48.0722 46.378 48.3449C46.2968 48.4181 46.2216 48.495 46.1464 48.5744C45.9904 48.7356 45.8215 48.8754 45.6481 49.0169C45.5309 49.1151 45.4194 49.2175 45.3079 49.322C45.1066 49.5095 44.8989 49.6835 44.6839 49.8542C44.6298 49.8978 44.5752 49.9413 44.521 49.9853C44.1375 50.2925 43.7476 50.5866 43.3463 50.8691C43.2776 50.9176 43.2093 50.967 43.141 51.0159C42.0777 51.7792 40.947 52.4319 39.7852 53.0253C39.7152 53.0607 39.6453 53.0964 39.5758 53.1326C38.4443 53.71 37.2719 54.1657 36.0761 54.5835C36.0038 54.609 35.9311 54.6349 35.8587 54.6608C35.531 54.7756 35.2024 54.8722 34.8654 54.954C34.724 54.9886 34.5849 55.0281 34.4455 55.0688C33.0517 55.4763 31.5957 55.6885 30.1554 55.8432C30.0798 55.8514 30.0042 55.8596 29.9287 55.8687C29.1661 55.9587 28.3962 55.9488 27.63 55.9484C27.6025 55.9484 27.5751 55.9484 27.5468 55.9484C26.3865 55.948 25.2336 55.9328 24.0851 55.749C23.942 55.7272 23.7982 55.712 23.6543 55.6963C22.6109 55.5758 21.5706 55.3599 20.5624 55.0605C20.4427 55.026 20.3219 54.9947 20.2011 54.9631C18.7406 54.5814 17.314 54.0505 15.9586 53.3769C15.9303 53.3629 15.902 53.3489 15.8725 53.3345C15.8018 53.2996 15.7311 53.2634 15.6608 53.2268C15.3916 53.1285 15.1112 53.3276 14.8699 53.4423C14.8453 53.4538 14.821 53.4653 14.7956 53.4772C14.2811 53.7219 13.7764 53.986 13.272 54.2512C12.817 54.4902 12.3599 54.7254 11.9017 54.9586C11.8734 54.973 11.8447 54.9873 11.8156 55.0022C11.5291 55.1481 11.2421 55.2933 10.9556 55.4385C10.8469 55.4936 10.7382 55.5487 10.6299 55.6038C10.5563 55.6412 10.4828 55.6782 10.4088 55.7153C10.1365 55.8538 9.86611 55.9957 9.59696 56.1405C9.21466 56.3461 8.82873 56.5447 8.44199 56.7413C8.37248 56.7767 8.30337 56.8121 8.23386 56.8474C8.09081 56.9202 7.94734 56.993 7.80428 57.0658C7.62041 57.1591 7.43694 57.2529 7.25306 57.3463C7.11081 57.4186 6.96856 57.491 6.82631 57.5634C6.75883 57.5979 6.69093 57.6325 6.62304 57.667C6.52928 57.7147 6.43512 57.7624 6.34096 57.8106C6.31308 57.8245 6.28519 57.8389 6.2565 57.8533C6.04111 57.9623 5.88875 58.0137 5.64588 57.9969C5.46281 57.9278 5.39573 57.8114 5.30641 57.6444C5.23044 57.3323 5.3832 57.0058 5.48221 56.7134C5.51333 56.6208 5.54404 56.5283 5.57475 56.4358C5.61031 56.3284 5.64588 56.2215 5.68144 56.1146C5.79459 55.7745 5.90653 55.434 6.01767 55.093C6.03626 55.0355 6.05525 54.9783 6.07384 54.9211C6.08314 54.8923 6.09243 54.8636 6.10213 54.834C6.11627 54.7908 6.11627 54.7908 6.13082 54.7464C6.14012 54.7176 6.14982 54.6884 6.15951 54.6583C6.42745 53.8383 6.69578 53.0183 6.9718 52.2007C7.24134 51.4037 7.50321 50.6043 7.76508 49.8044C7.80024 49.6979 7.8354 49.591 7.87016 49.4844C7.92552 49.3154 7.98088 49.1464 8.03625 48.9774C8.05686 48.914 8.07787 48.8507 8.09848 48.7874C8.12718 48.7002 8.15587 48.6126 8.18416 48.5254C8.2084 48.4514 8.2084 48.4514 8.23306 48.3757C8.27953 48.2326 8.27953 48.2326 8.31307 48.0858C8.27145 48.0105 8.27145 48.0105 8.20194 47.9419C8.17567 47.9131 8.149 47.8843 8.12192 47.8547C8.09161 47.8222 8.0613 47.7901 8.03019 47.7568C7.96189 47.6807 7.89359 47.6042 7.8257 47.5281C7.70123 47.39 7.57596 47.2526 7.44987 47.1161C7.12213 46.7616 6.80328 46.4013 6.49453 46.0296C6.4719 46.0024 6.44967 45.9757 6.42623 45.9477C6.03989 45.4818 5.67699 44.9994 5.32258 44.5079C5.30399 44.482 5.285 44.4561 5.266 44.4294C4.50949 43.3803 3.8334 42.2675 3.2357 41.118C3.18195 41.0148 3.12699 40.912 3.07203 40.8092C2.30501 39.3653 1.74854 37.8334 1.25107 36.276C1.20581 36.1349 1.15933 35.9943 1.11286 35.8541C0.902312 35.2117 0.76491 34.5488 0.627105 33.8875C0.617002 33.839 0.617001 33.839 0.606494 33.7892C0.51193 33.3364 0.433532 32.8828 0.36564 32.4251C0.346646 32.3001 0.325632 32.1755 0.304618 32.0504C-0.0938451 29.6636 -0.0671738 27.1681 0.187826 24.7681C0.191059 24.7376 0.194292 24.7072 0.197525 24.676C0.237533 24.3021 0.292494 23.9353 0.363216 23.5664C0.398374 23.3789 0.426258 23.1909 0.454143 23.0022C0.644079 21.7429 0.967374 20.5059 1.3622 19.2985C1.37109 19.2709 1.37998 19.2438 1.38928 19.2154C1.67418 18.3456 1.99707 17.5001 2.3725 16.6665C2.38543 16.6377 2.39836 16.6089 2.4117 16.5793C2.99969 15.2748 3.63376 13.9975 4.41937 12.802C4.47716 12.7136 4.53454 12.6248 4.59193 12.5359C5.14315 11.6855 5.73115 10.8687 6.37329 10.0865C6.39027 10.066 6.40724 10.045 6.42462 10.024C6.66022 9.73534 6.90188 9.45445 7.15325 9.17974C7.23488 9.09009 7.31368 8.99838 7.39208 8.90585C7.53676 8.73724 7.68871 8.57768 7.84429 8.41934C7.87177 8.39138 7.89966 8.36341 7.92794 8.33463C7.98573 8.27582 8.04352 8.21701 8.10131 8.1582C8.18901 8.06896 8.2767 7.97972 8.36399 7.89048C8.42057 7.83291 8.47714 7.77533 8.53372 7.71776C8.55958 7.69144 8.58545 7.66512 8.61172 7.63839C8.7669 7.4817 8.92612 7.33242 9.09141 7.18725C9.18112 7.10829 9.26882 7.02686 9.35611 6.94543C9.52867 6.78752 9.70527 6.63659 9.8855 6.48813C9.97643 6.41328 10.0665 6.33802 10.1567 6.26194C10.5268 5.95063 10.9083 5.65946 11.3003 5.37694C11.3763 5.32183 11.4523 5.2659 11.5278 5.20997C12.4666 4.51373 13.4717 3.8985 14.4961 3.34209C14.5377 3.31947 14.5794 3.29685 14.6222 3.27341C16.4812 2.26585 18.4605 1.44048 20.5094 0.928886C20.6707 0.888173 20.8299 0.842113 20.9895 0.794408C21.2926 0.70599 21.5981 0.634433 21.9069 0.568634C21.9356 0.562465 21.9643 0.556296 21.9938 0.550128C22.6298 0.415238 23.2675 0.3005 23.9121 0.216606C23.9477 0.212082 23.9832 0.207147 24.02 0.202624C25.4134 0.023731 26.7923 -0.0247962 28.1958 0.0109823Z" fill="white"/>
<path d="M213.054 36.1548H209.165V16.3188H213.054V36.1548Z" fill="white"/>
<path d="M199.26 21.6169C201.174 21.6169 202.635 22.0345 203.645 22.8697C204.671 23.6875 205.185 24.949 205.185 26.6542V36.1546H202.47L201.713 34.2232H201.609C201.209 34.7278 200.791 35.1454 200.356 35.476C199.938 35.8066 199.451 36.0415 198.894 36.1807C198.355 36.3373 197.685 36.4156 196.885 36.4156C196.05 36.4156 195.293 36.259 194.614 35.9458C193.953 35.6152 193.431 35.1193 193.048 34.4581C192.665 33.7795 192.474 32.9269 192.474 31.9003C192.474 30.3865 193.005 29.2729 194.066 28.5595C195.127 27.8287 196.719 27.4285 198.842 27.3589L201.322 27.2806V26.6542C201.322 25.906 201.122 25.3579 200.721 25.0099C200.339 24.6619 199.799 24.4879 199.103 24.4879C198.407 24.4879 197.729 24.5923 197.067 24.8011C196.406 24.9925 195.745 25.2361 195.084 25.5319L193.805 22.8958C194.571 22.4956 195.414 22.1824 196.337 21.9562C197.276 21.73 198.251 21.6169 199.26 21.6169ZM199.808 29.6035C198.555 29.6383 197.685 29.8645 197.198 30.2821C196.711 30.6997 196.467 31.2478 196.467 31.9264C196.467 32.518 196.641 32.9443 196.989 33.2053C197.337 33.4489 197.79 33.5707 198.346 33.5707C199.182 33.5707 199.886 33.3271 200.46 32.8399C201.035 32.3353 201.322 31.6306 201.322 30.7258V29.5513L199.808 29.6035Z" fill="white"/>
<path d="M181.517 21.6431C182.387 21.6431 183.17 21.8171 183.866 22.1651C184.562 22.5131 185.153 23.0351 185.64 23.7311H185.745L186.058 21.9041H189.347V36.1808C189.347 37.538 189.077 38.6777 188.538 39.5999C188.016 40.5221 187.224 41.2181 186.162 41.6879C185.101 42.1751 183.787 42.4187 182.221 42.4187C181.212 42.4187 180.273 42.3578 179.403 42.236C178.55 42.1142 177.715 41.8967 176.897 41.5835V38.4776C177.489 38.7212 178.08 38.9213 178.672 39.0779C179.281 39.2519 179.898 39.3737 180.525 39.4433C181.169 39.5303 181.812 39.5738 182.456 39.5738C183.465 39.5738 184.214 39.3041 184.701 38.7647C185.205 38.2253 185.458 37.4162 185.458 36.3374V36.0503C185.458 35.7545 185.466 35.45 185.484 35.1368C185.519 34.8236 185.545 34.5452 185.562 34.3016H185.458C184.971 35.0498 184.388 35.5892 183.709 35.9198C183.03 36.2504 182.265 36.4157 181.412 36.4157C179.724 36.4157 178.402 35.7719 177.445 34.4843C176.505 33.1793 176.036 31.3697 176.036 29.0555C176.036 27.4895 176.253 26.1584 176.688 25.0622C177.123 23.9486 177.75 23.1047 178.567 22.5305C179.403 21.9389 180.386 21.6431 181.517 21.6431ZM182.743 24.8012C182.134 24.8012 181.621 24.9665 181.203 25.2971C180.803 25.6103 180.499 26.0888 180.29 26.7326C180.099 27.359 180.003 28.1507 180.003 29.1077C180.003 30.5345 180.229 31.6046 180.681 32.318C181.134 33.014 181.839 33.362 182.796 33.362C183.3 33.362 183.735 33.3011 184.101 33.1793C184.466 33.0401 184.762 32.8226 184.988 32.5268C185.232 32.2136 185.414 31.8134 185.536 31.3262C185.658 30.839 185.719 30.2474 185.719 29.5514V29.0816C185.719 28.055 185.614 27.2285 185.406 26.6021C185.197 25.9757 184.875 25.5233 184.44 25.2449C184.005 24.9491 183.439 24.8012 182.743 24.8012Z" fill="white"/>
<path d="M167.349 21.6431C168.671 21.6431 169.802 21.8954 170.742 22.4C171.699 22.9046 172.439 23.6354 172.961 24.5924C173.483 25.5494 173.744 26.7239 173.744 28.1159V29.9951H164.556C164.591 31.0913 164.913 31.9526 165.522 32.579C166.148 33.2054 167.01 33.5186 168.106 33.5186C169.028 33.5186 169.863 33.4316 170.612 33.2576C171.36 33.0662 172.134 32.7791 172.934 32.3963V35.3978C172.238 35.7458 171.499 35.9981 170.716 36.1547C169.95 36.3287 169.019 36.4157 167.923 36.4157C166.496 36.4157 165.235 36.1547 164.139 35.6327C163.043 35.0933 162.181 34.2842 161.555 33.2054C160.928 32.1266 160.615 30.7694 160.615 29.1338C160.615 27.4634 160.894 26.0801 161.45 24.9839C162.025 23.8703 162.816 23.0351 163.826 22.4783C164.835 21.9215 166.009 21.6431 167.349 21.6431ZM167.375 24.4097C166.627 24.4097 166.001 24.6533 165.496 25.1405C165.009 25.6277 164.722 26.3846 164.635 27.4112H170.09C170.09 26.837 169.985 26.3237 169.776 25.8713C169.585 25.4189 169.289 25.0622 168.889 24.8012C168.489 24.5402 167.984 24.4097 167.375 24.4097Z" fill="white"/>
<path d="M147.032 36.1547V17.5193H150.973V32.8922H158.542V36.1547H147.032Z" fill="white"/>
<path d="M136.725 29.0033C136.725 30.1865 136.56 31.2392 136.229 32.1614C135.916 33.0836 135.455 33.8666 134.846 34.5104C134.254 35.1368 133.532 35.6153 132.679 35.9459C131.827 36.2591 130.861 36.4157 129.782 36.4157C128.79 36.4157 127.868 36.2591 127.016 35.9459C126.18 35.6153 125.458 35.1368 124.849 34.5104C124.24 33.8666 123.762 33.0836 123.414 32.1614C123.083 31.2392 122.918 30.1865 122.918 29.0033C122.918 27.4199 123.196 26.0888 123.753 25.01C124.31 23.9138 125.11 23.0786 126.154 22.5044C127.198 21.9302 128.434 21.6431 129.861 21.6431C131.2 21.6431 132.384 21.9302 133.41 22.5044C134.437 23.0786 135.246 23.9138 135.837 25.01C136.429 26.0888 136.725 27.4199 136.725 29.0033ZM126.885 29.0033C126.885 29.9429 126.981 30.7346 127.172 31.3784C127.381 32.0048 127.703 32.4833 128.138 32.8139C128.573 33.1271 129.138 33.2837 129.834 33.2837C130.53 33.2837 131.087 33.1271 131.505 32.8139C131.94 32.4833 132.253 32.0048 132.444 31.3784C132.653 30.7346 132.758 29.9429 132.758 29.0033C132.758 28.0637 132.653 27.2807 132.444 26.6543C132.253 26.0279 131.94 25.5581 131.505 25.2449C131.07 24.9317 130.504 24.7751 129.808 24.7751C128.782 24.7751 128.034 25.1318 127.564 25.8452C127.111 26.5412 126.885 27.5939 126.885 29.0033Z" fill="white"/>
<path d="M118.466 33.3098C118.901 33.3098 119.318 33.2663 119.718 33.1793C120.119 33.0923 120.519 32.9879 120.919 32.8661V35.7632C120.501 35.9372 119.979 36.0851 119.353 36.2069C118.744 36.3461 118.074 36.4157 117.343 36.4157C116.491 36.4157 115.725 36.2765 115.047 35.9981C114.385 35.7197 113.855 35.2412 113.454 34.5626C113.072 33.8666 112.88 32.9096 112.88 31.6916V24.8273H111.027V23.183L113.167 21.878L114.29 18.8765H116.769V21.9041H120.762V24.8273H116.769V31.6916C116.769 32.231 116.926 32.6399 117.239 32.9183C117.552 33.1793 117.961 33.3098 118.466 33.3098Z" fill="white"/>
<path d="M109.433 31.9265C109.433 32.8835 109.207 33.7013 108.754 34.3799C108.302 35.0411 107.623 35.5457 106.719 35.8937C105.814 36.2417 104.692 36.4157 103.352 36.4157C102.36 36.4157 101.507 36.3461 100.794 36.2069C100.081 36.0851 99.3672 35.8763 98.6538 35.5805V32.3702C99.4194 32.7182 100.246 33.0053 101.133 33.2315C102.021 33.4577 102.804 33.5708 103.482 33.5708C104.248 33.5708 104.787 33.4577 105.1 33.2315C105.431 33.0053 105.596 32.7095 105.596 32.3441C105.596 32.1005 105.527 31.883 105.388 31.6916C105.266 31.5002 104.987 31.2827 104.552 31.0391C104.117 30.7955 103.439 30.4823 102.517 30.0995C101.629 29.7167 100.898 29.3426 100.324 28.9772C99.75 28.5944 99.3237 28.142 99.0453 27.62C98.7669 27.0806 98.6277 26.4107 98.6277 25.6103C98.6277 24.2879 99.141 23.2961 100.168 22.6349C101.194 21.9737 102.56 21.6431 104.265 21.6431C105.153 21.6431 105.997 21.7301 106.797 21.9041C107.597 22.0781 108.424 22.3652 109.276 22.7654L108.102 25.5581C107.632 25.3493 107.18 25.1666 106.745 25.01C106.31 24.8534 105.883 24.7316 105.466 24.6446C105.066 24.5576 104.648 24.5141 104.213 24.5141C103.639 24.5141 103.204 24.5924 102.908 24.749C102.63 24.9056 102.49 25.1405 102.49 25.4537C102.49 25.6799 102.56 25.8887 102.699 26.0801C102.856 26.2541 103.143 26.4455 103.561 26.6543C103.996 26.8631 104.631 27.1415 105.466 27.4895C106.284 27.8201 106.988 28.1681 107.58 28.5335C108.172 28.8815 108.624 29.3252 108.937 29.8646C109.268 30.3866 109.433 31.0739 109.433 31.9265Z" fill="white"/>
<path d="M89.5839 21.6169C91.4979 21.6169 92.9595 22.0345 93.9687 22.8697C94.9953 23.6875 95.5086 24.949 95.5086 26.6542V36.1546H92.7942L92.0373 34.2232H91.9329C91.5327 34.7278 91.1151 35.1454 90.6801 35.476C90.2625 35.8066 89.7753 36.0415 89.2185 36.1807C88.6791 36.3373 88.0092 36.4156 87.2088 36.4156C86.3736 36.4156 85.6167 36.259 84.9381 35.9458C84.2769 35.6152 83.7549 35.1193 83.3721 34.4581C82.9893 33.7795 82.7979 32.9269 82.7979 31.9003C82.7979 30.3865 83.3286 29.2729 84.39 28.5595C85.4514 27.8287 87.0435 27.4285 89.1663 27.3589L91.6458 27.2806V26.6542C91.6458 25.906 91.4457 25.3579 91.0455 25.0099C90.6627 24.6619 90.1233 24.4879 89.4272 24.4879C88.7312 24.4879 88.0527 24.5923 87.3915 24.8011C86.7303 24.9925 86.0691 25.2361 85.4079 25.5319L84.129 22.8958C84.8946 22.4956 85.7385 22.1824 86.6607 21.9562C87.6003 21.73 88.5747 21.6169 89.5839 21.6169ZM90.132 29.6035C88.8792 29.6383 88.0092 29.8645 87.522 30.2821C87.0348 30.6997 86.7912 31.2478 86.7912 31.9264C86.7912 32.518 86.9652 32.9443 87.3132 33.2053C87.6612 33.4489 88.1136 33.5707 88.6704 33.5707C89.5056 33.5707 90.2103 33.3271 90.7845 32.8399C91.3587 32.3353 91.6458 31.6306 91.6458 30.7258V29.5513L90.132 29.6035Z" fill="white"/>
<path d="M73.6124 17.5193C76.0136 17.5193 77.7623 18.0413 78.8585 19.0853C79.9721 20.1119 80.5289 21.53 80.5289 23.3396C80.5289 24.1574 80.4071 24.9404 80.1635 25.6886C79.9199 26.4194 79.511 27.0806 78.9368 27.6722C78.38 28.2464 77.6405 28.6988 76.7183 29.0294C75.7961 29.36 74.6564 29.5253 73.2992 29.5253H71.6027V36.1547H67.6616V17.5193H73.6124ZM73.4036 20.7557H71.6027V26.2889H72.9077C73.6559 26.2889 74.2997 26.1932 74.8391 26.0018C75.3785 25.8104 75.7961 25.5059 76.0919 25.0883C76.3877 24.6707 76.5356 24.1313 76.5356 23.4701C76.5356 22.5479 76.2833 21.8693 75.7787 21.4343C75.2741 20.9819 74.4824 20.7557 73.4036 20.7557Z" fill="white"/>
</svg>
